<?xml version="1.0" encoding="UTF-8" standalone="no"?>
<svg
   xmlns:dc="http://purl.org/dc/elements/1.1/"
   xmlns:cc="http://creativecommons.org/ns#"
   xmlns:rdf="http://www.w3.org/1999/02/22-rdf-syntax-ns#"
   xmlns:svg="http://www.w3.org/2000/svg"
   xmlns="http://www.w3.org/2000/svg"
   xmlns:sodipodi="http://sodipodi.sourceforge.net/DTD/sodipodi-0.dtd"
   xmlns:inkscape="http://www.inkscape.org/namespaces/inkscape"
   width="24in"
   height="12in"
   viewBox="0 0 609.6 304.79999"
   version="1.1"
   id="svg2"
   inkscape:version="0.91 r13725"
   sodipodi:docname="Frame_sides.svg">
  <metadata
     id="metadata18">
    <rdf:RDF>
      <cc:Work
         rdf:about="">
        <dc:format>image/svg+xml</dc:format>
        <dc:type
           rdf:resource="http://purl.org/dc/dcmitype/StillImage" />
        <dc:title></dc:title>
      </cc:Work>
    </rdf:RDF>
  </metadata>
  <defs
     id="defs16" />
  <sodipodi:namedview
     pagecolor="#ffffff"
     bordercolor="#666666"
     borderopacity="1"
     objecttolerance="10"
     gridtolerance="10"
     guidetolerance="10"
     inkscape:pageopacity="0"
     inkscape:pageshadow="2"
     inkscape:window-width="1366"
     inkscape:window-height="705"
     id="namedview14"
     showgrid="false"
     units="in"
     inkscape:zoom="0.41956752"
     inkscape:cx="837.51572"
     inkscape:cy="68.308842"
     inkscape:window-x="-8"
     inkscape:window-y="-8"
     inkscape:window-maximized="1"
     inkscape:current-layer="svg2" />
  <desc
     id="desc4">Output from Flights of Ideas SVG Sketchup Plugin</desc>
  <path
     id="face0-cut"
     style="fill:none;stroke:#0000ff;stroke-width:1;stroke-linecap:round;stroke-linejoin:round;stroke-miterlimit:4;stroke-dasharray:none"
     d="m 18.406778,174.49913 1e-6,10 50.249995,0 33.750006,-30 m 255,0 0,-10 -3.00001,0 0,-10 3.00001,0 -1e-5,-10 -3,0 0,-9.99999 3,-1e-5 1e-5,-9.99999 -3.00001,-1e-5 0,-9.999998 3.00001,2e-6 0,-10.000002 -3.00001,-2e-6 0,-10.000002 3.00001,2e-6 0,-9.999999 -3.00001,0 0,-9.999999 3.00001,0 0,-10 -3.00001,-1e-6 0,-9.999999 3.00001,0 0,-10 -3.00001,0 0,-10 -335.999999,1e-6 0,10 -2.999993,-2e-6 1e-6,10 2.999993,2e-6 0,10 -2.999993,-2e-6 -9e-6,10.000002 3.000002,-10e-7 1e-6,10 -3.000003,10e-7 1e-6,10 3.000002,-10e-7 10e-7,10 -3.000003,10e-7 10e-7,9.999999 3.000002,0 1e-6,9.999998 -3.000003,0 10e-7,10 3.000002,0 0,10 -3.000002,0 0,10 3.000003,0 0,10 -3.000002,0 0,10 3.000003,0 0,10 -3.000003,0 10e-7,10 3.000003,0 M 324.40678,24.499132 l 10,0 0,3 -10,0 0,-3 m -20,3 0,-3 10,0 0,3 -10,0 m -20,0 0,-3 10,0 0,3 -10,0 m -10,0 -10,0 0,-3.000001 10,1e-6 0,3 m -20,0 -10,0 0,-3 10,0 0,3 m -20,-3 0,3 -10,0 0,-3 10,0 m -30,3 0,-3 10,0 0,3 -10,0 m -10,0 -10,0 0,-3 10,-1e-6 0,3.000001 m -20.00001,-2.999999 1e-5,2.999998 -10,1e-6 -1e-5,-2.999999 10,0 m -19.99999,-2e-6 0,3.000001 -10.00001,0 1e-5,-3.000001 10,0 m -20.00001,3.000002 -10,0 0,-3.000001 10.00001,0 -1e-5,3.000001 m -20,-3 1e-5,2.999998 -10,0 -1e-5,-2.999998 10,0 m -29.999993,-1e-6 10.000001,-1e-6 -3e-6,3.000001 -10.000001,0 3e-6,-3 m -10.000002,0 -3e-6,3.000001 -10.000002,0 3e-6,-3 10.000002,-1e-6 m -19.999997,2.999999 -10.000002,0 3e-6,-3 9.999992,2e-6 7e-6,2.999998 m 274.795342,80.584129 0.20306,1.28937 -0.13758,1.29799 -0.46883,1.21816 -0.76814,1.05531 -1.0151,0.82053 -1.19288,0.52986 -1.28937,0.20305 -1.29799,-0.13757 -1.21816,-0.46884 -1.0553,-0.76814 -0.82054,-1.0151 -0.52985,-1.19288 -0.20306,-1.28937 0.13758,-1.29799 0.46883,-1.21816 0.76814,-1.0553 1.0151,-0.82054 1.19288,-0.52985 1.28937,-0.20306 1.29799,0.13758 1.21816,0.46883 1.0553,0.76814 0.82054,1.0151 0.52985,1.19288"
     inkscape:connector-curvature="0" />
  <path
     id="face1-cut"
     style="fill:none;stroke:#0000ff;stroke-width:1;stroke-linecap:round;stroke-linejoin:round;stroke-miterlimit:4;stroke-dasharray:none"
     d="m 441.40678,134.49913 -1e-5,-10 -50.24999,1e-5 -33.75,29.99999 m -255,0 0,10 2.99999,1e-5 0,10 -2.99999,-1e-5 0,10 2.99999,0 0,10 -2.99999,0 -1e-5,10 3,0 0,10 -3,0 0,10 3,1e-5 0,9.99999 -3,0 0,10.00001 3,-1e-5 0,10 -3,0 0,10 3.00001,0 0,10 -3.00001,0 0,10 3.00001,1e-5 0,9.99999 336,0 0,-9.99999 3,-1e-5 0,-10 -3,0 0,-10 3,1e-5 0,-10.00001 -3,0 0,-10 3,0 0,-10 -3,0 0,-9.99999 3,-1e-5 0,-10 -3,0 0,-10 3,0 0,-10 -3,0 0,-10 3,0 0,-10 -3,0 0,-9.99999 3,-1e-5 0,-9.99999 -3,-1e-5 0,-10 3,0 0,-10 -3,0 m -306.00001,150.00001 -9.99999,-1e-5 -1e-5,-3 10,0 0,3.00001 m 20.00001,-3.00001 0,3 -10.00001,0 1e-5,-3 10,0 m 19.99999,0 1e-5,3 -10,0 0,-3 9.99999,0 m 10.00001,0 10,0 0,3 -10.00001,0 1e-5,-3 m 20,0 10,0 0,3 -10,0 0,-3 m 20,3 0,-2.99999 10.00001,0 -1e-5,2.99999 -10,0 m 30,-2.99999 0,2.99999 -10,0 0,-2.99999 10,0 m 10,0 10,-1e-5 0,3 -10,0 0,-2.99999 m 20,3 0,-3.00001 10,0 0,3.00001 -10,0 m 20,0 0,-3.00001 10,0 0,3.00001 -10,0 m 20,-3.00001 10,0 0,3 -10,0 0,-3 m 20,3 0,-3 10,0 0,3.00001 -10,-1e-5 m 30,0 -10,0 0,-3 10,0 0,3 m 10,0 -1e-5,-3 10.00001,0 0,3 -10,0 m 20,-3 10,0 0,3 -10,0 0,-3"
     inkscape:connector-curvature="0" />
  <path
     id="face0-interior"
     style="fill:none;stroke:#ff0000;stroke-width:1;stroke-linecap:round;stroke-linejoin:round;stroke-miterlimit:4;stroke-dasharray:none"
     d="m 18.406778,174.49913 m 1e-6,10 m 50.249995,0 m 33.750006,-30 255,0 m 0,-10 m -3.00001,0 m 0,-10 m 3.00001,0 m -1e-5,-10 m -3,0 m 0,-9.99999 m 3,-1e-5 m 1e-5,-9.99999 m -3.00001,-1e-5 m 0,-9.999998 m 3.00001,2e-6 m 0,-10.000002 m -3.00001,-2e-6 m 0,-10.000002 m 3.00001,2e-6 m 0,-9.999999 m -3.00001,0 m 0,-9.999999 m 3.00001,0 m 0,-10 m -3.00001,-1e-6 m 0,-9.999999 m 3.00001,0 m 0,-10 m -3.00001,0 m 0,-10 m -335.999999,1e-6 m 0,10 m -2.999993,-2e-6 m 1e-6,10 m 2.999993,2e-6 m 0,10 m -2.999993,-2e-6 m -9e-6,10.000002 m 3.000002,-10e-7 m 1e-6,10 m -3.000003,10e-7 m 1e-6,10 m 3.000002,-10e-7 m 10e-7,10 m -3.000003,10e-7 m 10e-7,9.999999 m 3.000002,0 m 1e-6,9.999998 m -3.000003,0 m 10e-7,10 m 3.000002,0 m 0,10 m -3.000002,0 m 0,10 m 3.000003,0 m 0,10 m -3.000002,0 m 0,10 m 3.000003,0 m 0,10 m -3.000003,0 m 10e-7,10 M 324.40678,24.499132 m 10,0 m 0,3 m -10,0 m -20,0 m 0,-3 m 10,0 m 0,3 m -30,0 m 0,-3 m 10,0 m 0,3 m -20,0 m -10,0 m 0,-3.000001 m 10,1e-6 m -20,3 m -10,0 m 0,-3 m 10,0 m -20,0 m 0,3 m -10,0 m 0,-3 m -20,3 m 0,-3 m 10,0 m 0,3 m -20,0 m -10,0 m 0,-3 m 10,-1e-6 m -20.00001,2e-6 m 1e-5,2.999998 m -10,1e-6 m -1e-5,-2.999999 m -9.99999,-2e-6 m 0,3.000001 m -10.00001,0 m 1e-5,-3.000001 m -10.00001,3.000002 m -10,0 m 0,-3.000001 m 10.00001,0 m -20.00001,1e-6 m 1e-5,2.999998 m -10,0 m -1e-5,-2.999998 m -19.999993,-1e-6 m 10.000001,-1e-6 m -3e-6,3.000001 m -10.000001,0 m -9.999999,-3 m -3e-6,3.000001 m -10.000002,0 m 3e-6,-3 m -9.999995,2.999998 m -10.000002,0 m 3e-6,-3 m 9.999992,2e-6 M 329.20212,108.08326 m 0.20306,1.28937 m -0.13758,1.29799 m -0.46883,1.21816 m -0.76814,1.05531 m -1.0151,0.82053 m -1.19288,0.52986 m -1.28937,0.20305 m -1.29799,-0.13757 m -1.21816,-0.46884 m -1.0553,-0.76814 m -0.82054,-1.0151 m -0.52985,-1.19288 m -0.20306,-1.28937 m 0.13758,-1.29799 m 0.46883,-1.21816 m 0.76814,-1.0553 m 1.0151,-0.82054 m 1.19288,-0.52985 m 1.28937,-0.20306 m 1.29799,0.13758 m 1.21816,0.46883 m 1.0553,0.76814 m 0.82054,1.0151"
     inkscape:connector-curvature="0" />
  <path
     id="face1-interior"
     style="fill:none;stroke:#ff0000;stroke-width:1;stroke-linecap:round;stroke-linejoin:round;stroke-miterlimit:4;stroke-dasharray:none"
     d="m 441.40678,134.49913 m -1e-5,-10 m -50.24999,1e-5 m -33.75,29.99999 m -255,0 m 0,10 m 2.99999,1e-5 m 0,10 m -2.99999,-1e-5 m 0,10 m 2.99999,0 m 0,10 m -2.99999,0 m -1e-5,10 m 3,0 m 0,10 m -3,0 m 0,10 m 3,1e-5 m 0,9.99999 m -3,0 m 0,10.00001 m 3,-1e-5 m 0,10 m -3,0 m 0,10 m 3.00001,0 m 0,10 m -3.00001,0 m 0,10 m 3.00001,1e-5 m 0,9.99999 m 336,0 m 0,-9.99999 m 3,-1e-5 m 0,-10 m -3,0 m 0,-10 m 3,1e-5 m 0,-10.00001 m -3,0 m 0,-10 m 3,0 m 0,-10 m -3,0 m 0,-9.99999 m 3,-1e-5 m 0,-10 m -3,0 m 0,-10 m 3,0 m 0,-10 m -3,0 m 0,-10 m 3,0 m 0,-10 m -3,0 m 0,-9.99999 m 3,-1e-5 m 0,-9.99999 m -3,-1e-5 m 0,-10 m 3,0 m 0,-10 M 135.40677,284.49914 m -9.99999,-1e-5 m -1e-5,-3 m 10,0 m 20.00001,0 m 0,3 m -10.00001,0 m 1e-5,-3 m 29.99999,0 m 1e-5,3 m -10,0 m 0,-3 m 20,0 m 10,0 m 0,3 m -10.00001,0 m 20.00001,-3 m 10,0 m 0,3 m -10,0 m 20,0 m 0,-2.99999 m 10.00001,0 m -1e-5,2.99999 m 20,-2.99999 m 0,2.99999 m -10,0 m 0,-2.99999 m 20,0 m 10,-1e-5 m 0,3 m -10,0 m 20,1e-5 m 0,-3.00001 m 10,0 m 0,3.00001 m 10,0 m 0,-3.00001 m 10,0 m 0,3.00001 m 10,-3.00001 m 10,0 m 0,3 m -10,0 m 20,0 m 0,-3 m 10,0 m 0,3.00001 m 20,-1e-5 m -10,0 m 0,-3 m 10,0 m 10,3 m -1e-5,-3 m 10.00001,0 m 0,3 m 10,-3 m 10,0 m 0,3 m -10,0"
     inkscape:connector-curvature="0" />
  <path
     id="path10"
     style="fill:none;stroke:#00ff00;stroke-width:1;stroke-linecap:round;stroke-linejoin:round;stroke-miterlimit:4;stroke-dasharray:none"
     d="m 18.406778,174.49913 m 1e-6,10 m 50.249995,0 m 33.750006,-30 m 255,0 m 0,-10 m -3.00001,0 m 0,-10 m 3.00001,0 m -1e-5,-10 m -3,0 m 0,-9.99999 m 3,-1e-5 m 1e-5,-9.99999 m -3.00001,-1e-5 m 0,-9.999998 m 3.00001,2e-6 m 0,-10.000002 m -3.00001,-2e-6 m 0,-10.000002 m 3.00001,2e-6 m 0,-9.999999 m -3.00001,0 m 0,-9.999999 m 3.00001,0 m 0,-10 m -3.00001,-1e-6 m 0,-9.999999 m 3.00001,0 m 0,-10 m -3.00001,0 m 0,-10 m -335.999999,1e-6 m 0,10 m -2.999993,-2e-6 m 1e-6,10 m 2.999993,2e-6 m 0,10 m -2.999993,-2e-6 m -9e-6,10.000002 m 3.000002,-10e-7 m 1e-6,10 m -3.000003,10e-7 m 1e-6,10 m 3.000002,-10e-7 m 10e-7,10 m -3.000003,10e-7 m 10e-7,9.999999 m 3.000002,0 m 1e-6,9.999998 m -3.000003,0 m 10e-7,10 m 3.000002,0 m 0,10 m -3.000002,0 m 0,10 m 3.000003,0 m 0,10 m -3.000002,0 m 0,10 m 3.000003,0 m 0,10 m -3.000003,0 m 10e-7,10 M 324.40678,24.499132 m 10,0 m 0,3 m -10,0 m -20,0 m 0,-3 m 10,0 m 0,3 m -30,0 m 0,-3 m 10,0 m 0,3 m -20,0 m -10,0 m 0,-3.000001 m 10,1e-6 m -20,3 m -10,0 m 0,-3 m 10,0 m -20,0 m 0,3 m -10,0 m 0,-3 m -20,3 m 0,-3 m 10,0 m 0,3 m -20,0 m -10,0 m 0,-3 m 10,-1e-6 m -20.00001,2e-6 m 1e-5,2.999998 m -10,1e-6 m -1e-5,-2.999999 m -9.99999,-2e-6 m 0,3.000001 m -10.00001,0 m 1e-5,-3.000001 m -10.00001,3.000002 m -10,0 m 0,-3.000001 m 10.00001,0 m -20.00001,1e-6 m 1e-5,2.999998 m -10,0 m -1e-5,-2.999998 m -19.999993,-1e-6 m 10.000001,-1e-6 m -3e-6,3.000001 m -10.000001,0 m -9.999999,-3 m -3e-6,3.000001 m -10.000002,0 m 3e-6,-3 m -9.999995,2.999998 m -10.000002,0 m 3e-6,-3 m 9.999992,2e-6 M 329.20212,108.08326 m 0.20306,1.28937 m -0.13758,1.29799 m -0.46883,1.21816 m -0.76814,1.05531 m -1.0151,0.82053 m -1.19288,0.52986 m -1.28937,0.20305 m -1.29799,-0.13757 m -1.21816,-0.46884 m -1.0553,-0.76814 m -0.82054,-1.0151 m -0.52985,-1.19288 m -0.20306,-1.28937 m 0.13758,-1.29799 m 0.46883,-1.21816 m 0.76814,-1.0553 m 1.0151,-0.82054 m 1.19288,-0.52985 m 1.28937,-0.20306 m 1.29799,0.13758 m 1.21816,0.46883 m 1.0553,0.76814 m 0.82054,1.0151"
     inkscape:connector-curvature="0" />
  <path
     id="path12"
     style="fill:none;stroke:#00ff00;stroke-width:1;stroke-linecap:round;stroke-linejoin:round;stroke-miterlimit:4;stroke-dasharray:none"
     d="m 441.40678,134.49913 m -1e-5,-10 m -50.24999,1e-5 m -33.75,29.99999 m -255,0 m 0,10 m 2.99999,1e-5 m 0,10 m -2.99999,-1e-5 m 0,10 m 2.99999,0 m 0,10 m -2.99999,0 m -1e-5,10 m 3,0 m 0,10 m -3,0 m 0,10 m 3,1e-5 m 0,9.99999 m -3,0 m 0,10.00001 m 3,-1e-5 m 0,10 m -3,0 m 0,10 m 3.00001,0 m 0,10 m -3.00001,0 m 0,10 m 3.00001,1e-5 m 0,9.99999 m 336,0 m 0,-9.99999 m 3,-1e-5 m 0,-10 m -3,0 m 0,-10 m 3,1e-5 m 0,-10.00001 m -3,0 m 0,-10 m 3,0 m 0,-10 m -3,0 m 0,-9.99999 m 3,-1e-5 m 0,-10 m -3,0 m 0,-10 m 3,0 m 0,-10 m -3,0 m 0,-10 m 3,0 m 0,-10 m -3,0 m 0,-9.99999 m 3,-1e-5 m 0,-9.99999 m -3,-1e-5 m 0,-10 m 3,0 m 0,-10 M 135.40677,284.49914 m -9.99999,-1e-5 m -1e-5,-3 m 10,0 m 20.00001,0 m 0,3 m -10.00001,0 m 1e-5,-3 m 29.99999,0 m 1e-5,3 m -10,0 m 0,-3 m 20,0 m 10,0 m 0,3 m -10.00001,0 m 20.00001,-3 m 10,0 m 0,3 m -10,0 m 20,0 m 0,-2.99999 m 10.00001,0 m -1e-5,2.99999 m 20,-2.99999 m 0,2.99999 m -10,0 m 0,-2.99999 m 20,0 m 10,-1e-5 m 0,3 m -10,0 m 20,1e-5 m 0,-3.00001 m 10,0 m 0,3.00001 m 10,0 m 0,-3.00001 m 10,0 m 0,3.00001 m 10,-3.00001 m 10,0 m 0,3 m -10,0 m 20,0 m 0,-3 m 10,0 m 0,3.00001 m 20,-1e-5 m -10,0 m 0,-3 m 10,0 m 10,3 m -1e-5,-3 m 10.00001,0 m 0,3 m 10,-3 m 10,0 m 0,3 m -10,0"
     inkscape:connector-curvature="0" />
</svg>
