<?xml version="1.0" encoding="UTF-8" standalone="no"?>
<svg
   xmlns:dc="http://purl.org/dc/elements/1.1/"
   xmlns:cc="http://creativecommons.org/ns#"
   xmlns:rdf="http://www.w3.org/1999/02/22-rdf-syntax-ns#"
   xmlns:svg="http://www.w3.org/2000/svg"
   xmlns="http://www.w3.org/2000/svg"
   xmlns:sodipodi="http://sodipodi.sourceforge.net/DTD/sodipodi-0.dtd"
   xmlns:inkscape="http://www.inkscape.org/namespaces/inkscape"
   width="24in"
   height="12in"
   viewBox="0 0 609.60002 304.79999"
   version="1.1"
   id="svg2"
   inkscape:version="0.91 r13725"
   sodipodi:docname="Frame_back_top_compartment_side.svg">
  <metadata
     id="metadata18">
    <rdf:RDF>
      <cc:Work
         rdf:about="">
        <dc:format>image/svg+xml</dc:format>
        <dc:type
           rdf:resource="http://purl.org/dc/dcmitype/StillImage" />
        <dc:title />
      </cc:Work>
    </rdf:RDF>
  </metadata>
  <defs
     id="defs16" />
  <sodipodi:namedview
     pagecolor="#ffffff"
     bordercolor="#666666"
     borderopacity="1"
     objecttolerance="10"
     gridtolerance="10"
     guidetolerance="10"
     inkscape:pageopacity="0"
     inkscape:pageshadow="2"
     inkscape:window-width="1366"
     inkscape:window-height="705"
     id="namedview14"
     showgrid="false"
     units="in"
     inkscape:zoom="0.5296576"
     inkscape:cx="62.118088"
     inkscape:cy="509.90141"
     inkscape:window-x="-8"
     inkscape:window-y="-8"
     inkscape:window-maximized="1"
     inkscape:current-layer="svg2" />
  <desc
     id="desc4">Output from Flights of Ideas SVG Sketchup Plugin</desc>
  <path
     id="face0-cut"
     style="fill:none;stroke:#0000ff;stroke-width:1;stroke-linecap:round;stroke-linejoin:round;stroke-miterlimit:4;stroke-dasharray:none"
     d="m 17.694924,12.977929 0,42.000001 6,0 0,3 -6,0 0,40 0,0.652642 0.17037,0.641453 0.21023,0.619322 0.28927,0.586583 0.36336,0.54381 0.43124,0.49172 0.49172,0.43124 0.54381,0.36336 0.58658,0.28927 0.61932,0.21023 0.64147,0.12759 0.65263,0.0428 42.250003,0 0.802119,0.0186 0.39329,-0.0186 0.40814,-0.0192 0.79681,-0.094 0.78825,-0.14968 0.77579,-0.20466 0.7595,-0.25861 0.73948,-0.3113 0.7158,-0.36245 0.68859,-0.4118 0.65797,-0.45913 0.31785,-0.25677 0.30627,-0.24742 0.58719,-0.546764 30.012954,-26.678187 m 244.99999,0 0.6563,-0.0327 0.64607,-0.119922 0.62431,-0.205005 0.5914,-0.286427 0.54792,-0.362732 0.49466,-0.432558 0.43256,-0.494658 0.36273,-0.547921 0.28643,-0.591399 0.205,-0.624312 0.11992,-0.64607 0.0327,-0.656295 0,-55.000001 -27.50538,0 0,10.163849 -0.1274,0.640074 -0.28874,0.585287 -0.43037,0.490615 -0.5427,0.362508 -0.61802,0.209697 -0.65124,0.04259 -0.64007,-0.12741 -0.58529,-0.288731 -0.49062,-0.430377 -0.3625,-0.542692 -0.2097,-0.618025 -0.0319,-0.487385 -0.0107,-0.163849 0.0107,-9.836151 -303.516086,0 m 86.000006,42.000001 0,3 -10.000004,0 0,-3 10.000004,0 m -20.000004,3 -10,0 0,-3 10,0 0,3 m -40.000002,0 -10,0 0,-3 10,0 0,3 m 20.000003,0 -10,0 0,-3 10,0 0,3 m 60.000003,0 -10,0 0,-3 10,0 0,3 m 20,0 -10,0 0,-3 10,0 0,3 m 20,0 -10,0 0,-3 10,0 0,3 m 20,0 -10,0 0,-3 10,0 0,3 m 20,0 -10,0 0,-3 10,0 0,3 m 19.99999,0 -9.99999,0 0,-3 9.99999,0 0,3 m 20,0 -10,0 0,-3 10,0 0,3 m 20,0 -10,0 0,-3 10,0 0,3 m 20,0 -10,0 0,-3 10,0 0,3 m 20,0 -10,0 0,-3 10,0 0,3 m 20,0 -10,0 0,-3 10,0 0,3 m 20,0 -10,0 0,-3 10,0 0,3"
     inkscape:connector-curvature="0" />
  <path
     id="face1-cut"
     style="fill:none;stroke:#0000ff;stroke-width:1;stroke-linecap:round;stroke-linejoin:round;stroke-miterlimit:4;stroke-dasharray:none"
     d="m 500.69492,212.97793 0,-10 -3,0 0,-10 3,0 0,-10 -3,0 0,-10 3,0 0,-10 -3,0 0,-10 3,0 0,-10 -3,0 0,-10 3,0 0,-10 -3,0 0,-10 3,0 0,-10 -3,0 0,-10 3,0 0,-10 -3,0 0,-10.000001 -149,0 m -244.99999,0 0,10.000001 -3,0 0,10 3,0 0,10 -3,0 0,10 3,0 0,10 -3,0 0,10 3,0 0,10 -3,0 0,10 3,0 0,10 -3,0 0,10 3,0 0,10 -3,0 0,10 3,0 0,10 -3,0 0,10 399.99999,0 m -33,-10 0,-3 10,0 0,3 -10,0 m -10,-3 0,3 -10,0 0,-3 10,0 m -30,3 0,-3 10,0 0,3 -10,0 m -10,0 -10,0 0,-3 10,0 0,3 m -20,0 -10,0 0,-3 10,0 0,3 m -20,-3 0,3 -10,0 0,-3 10,0 m -30,3 0,-3 10,0 0,3 -10,0 m -10,0 -10,0 0,-3 10,0 0,3 m -30,0 0,-3 10,0 0,3 -10,0 m -14,0 -10,0 0,-3 10,0 0,3 m -30,0 0,-3 10,0 0,3 -10,0 m -10,0 -10,0 0,-3 10,0 0,3 m -30,-3 10,0 0,3 -10,0 0,-3 m -19.99999,3 0,-3 10,0 0,3 -10,0 m -10,-3 0,3 -10,0 0,-3 10,0 m -30,0 10,0 0,3 -10,0 0,-3 m -20,3 0,-3 10,0 0,3 -10,0 m -20,0 0,-3 10,0 0,3 -10,0"
     inkscape:connector-curvature="0" />
  <path
     id="face0-interior"
     style="fill:none;stroke:#ff0000;stroke-width:1;stroke-linecap:round;stroke-linejoin:round;stroke-miterlimit:4;stroke-dasharray:none"
     d="m 17.694924,12.977929 m 0,42.000001 m 6,0 m 0,3 m -6,0 m 0,40 m 0,0.652642 m 0.17037,0.641453 m 0.21023,0.619322 m 0.28927,0.586583 m 0.36336,0.54381 m 0.43124,0.49172 m 0.49172,0.43124 m 0.54381,0.36336 m 0.58658,0.28927 m 0.61932,0.21023 m 0.64147,0.12759 m 0.65263,0.0428 m 42.250003,0 m 0.802119,0.0186 m 0.39329,-0.0186 m 0.40814,-0.0192 m 0.79681,-0.094 m 0.78825,-0.14968 m 0.77579,-0.20466 m 0.7595,-0.25861 m 0.73948,-0.3113 m 0.7158,-0.36245 m 0.68859,-0.4118 m 0.65797,-0.45913 m 0.31785,-0.25677 m 0.30627,-0.24742 m 0.58719,-0.546764 m 30.012954,-26.678183 244.99999,0 m 0.6563,-0.0327 m 0.64607,-0.119922 m 0.62431,-0.205005 m 0.5914,-0.286427 m 0.54792,-0.362728 m 0.49466,-0.432558 m 0.43256,-0.494658 m 0.36273,-0.547921 m 0.28643,-0.591399 m 0.205,-0.624312 m 0.11992,-0.646074 m 0.0327,-0.656299 m 0,-55.000001 m -27.50538,0 m 0,10.163849 m -0.1274,0.640074 m -0.28874,0.585287 m -0.43037,0.490615 m -0.5427,0.362508 m -0.61802,0.209697 m -0.65124,0.04259 m -0.64007,-0.12741 m -0.58529,-0.288731 m -0.49062,-0.430377 m -0.3625,-0.542692 m -0.2097,-0.618025 m -0.0319,-0.487385 m -0.0107,-0.163849 m 0.0107,-9.836151 M 103.69493,54.97793 m 0,3 m -10.000004,0 m 0,-3 m -10,3 m -10,0 m 0,-3 m 10,0 m -40.000002,3 m -10,0 m 0,-3 m 10,0 m 20.000003,3 m -10,0 m 0,-3 m 10,0 m 60.000003,3 m -10,0 m 0,-3 m 10,0 m 20,3 m -10,0 m 0,-3 m 10,0 m 20,3 m -10,0 m 0,-3 m 10,0 m 20,3 m -10,0 m 0,-3 m 10,0 m 20,3 m -10,0 m 0,-3 m 10,0 m 19.99999,3 m -9.99999,0 m 0,-3 m 9.99999,0 m 20,3 m -10,0 m 0,-3 m 10,0 m 20,3 m -10,0 m 0,-3 m 10,0 m 20,3 m -10,0 m 0,-3 m 10,0 m 20,3 m -10,0 m 0,-3 m 10,0 m 20,3 m -10,0 m 0,-3 m 10,0 m 20,3 m -10,0 m 0,-3 m 10,0"
     inkscape:connector-curvature="0" />
  <path
     id="face1-interior"
     style="fill:none;stroke:#ff0000;stroke-width:1;stroke-linecap:round;stroke-linejoin:round;stroke-miterlimit:4;stroke-dasharray:none"
     d="m 500.69492,212.97793 m 0,-10 m -3,0 m 0,-10 m 3,0 m 0,-10 m -3,0 m 0,-10 m 3,0 m 0,-10 m -3,0 m 0,-10 m 3,0 m 0,-10 m -3,0 m 0,-10 m 3,0 m 0,-10 m -3,0 m 0,-10 m 3,0 m 0,-10 m -3,0 m 0,-10 m 3,0 m 0,-10 m -3,0 m 0,-10.000001 m -149,0 m -244.99999,0 m 0,10.000001 m -3,0 m 0,10 m 3,0 m 0,10 m -3,0 m 0,10 m 3,0 m 0,10 m -3,0 m 0,10 m 3,0 m 0,10 m -3,0 m 0,10 m 3,0 m 0,10 m -3,0 m 0,10 m 3,0 m 0,10 m -3,0 m 0,10 m 3,0 m 0,10 m -3,0 m 0,10 m 366.99999,-10 m 0,-3 m 10,0 m 0,3 m -20,-3 m 0,3 m -10,0 m 0,-3 m -20,3 m 0,-3 m 10,0 m 0,3 m -20,0 m -10,0 m 0,-3 m 10,0 m -20,3 m -10,0 m 0,-3 m 10,0 m -20,0 m 0,3 m -10,0 m 0,-3 m -20,3 m 0,-3 m 10,0 m 0,3 m -20,0 m -10,0 m 0,-3 m 10,0 m -30,3 m 0,-3 m 10,0 m 0,3 m -24,0 m -10,0 m 0,-3 m 10,0 m -30,3 m 0,-3 m 10,0 m 0,3 m -20,0 m -10,0 m 0,-3 m 10,0 m -30,0 m 10,0 m 0,3 m -10,0 m -19.99999,0 m 0,-3 m 10,0 m 0,3 m -20,-3 m 0,3 m -10,0 m 0,-3 m -20,0 m 10,0 m 0,3 m -10,0 m -20,0 m 0,-3 m 10,0 m 0,3 m -30,0 m 0,-3 m 10,0 m 0,3"
     inkscape:connector-curvature="0" />
  <path
     id="path10"
     style="fill:none;stroke:#00ff00;stroke-width:1;stroke-linecap:round;stroke-linejoin:round;stroke-miterlimit:4;stroke-dasharray:none"
     d="m 17.694924,12.977929 m 0,42.000001 m 6,0 m 0,3 m -6,0 m 0,40 m 0,0.652642 m 0.17037,0.641453 m 0.21023,0.619322 m 0.28927,0.586583 m 0.36336,0.54381 m 0.43124,0.49172 m 0.49172,0.43124 m 0.54381,0.36336 m 0.58658,0.28927 m 0.61932,0.21023 m 0.64147,0.12759 m 0.65263,0.0428 m 42.250003,0 m 0.802119,0.0186 m 0.39329,-0.0186 m 0.40814,-0.0192 m 0.79681,-0.094 m 0.78825,-0.14968 m 0.77579,-0.20466 m 0.7595,-0.25861 m 0.73948,-0.3113 m 0.7158,-0.36245 m 0.68859,-0.4118 m 0.65797,-0.45913 m 0.31785,-0.25677 m 0.30627,-0.24742 m 0.58719,-0.546764 M 103.69493,72.977933 m 244.99999,0 m 0.6563,-0.0327 m 0.64607,-0.119922 m 0.62431,-0.205005 m 0.5914,-0.286427 m 0.54792,-0.362728 m 0.49466,-0.432558 m 0.43256,-0.494658 m 0.36273,-0.547921 m 0.28643,-0.591399 m 0.205,-0.624312 m 0.11992,-0.646074 m 0.0327,-0.656299 m 0,-55.000001 m -27.50538,0 m 0,10.163849 m -0.1274,0.640074 m -0.28874,0.585287 m -0.43037,0.490615 m -0.5427,0.362508 m -0.61802,0.209697 m -0.65124,0.04259 m -0.64007,-0.12741 m -0.58529,-0.288731 m -0.49062,-0.430377 m -0.3625,-0.542692 m -0.2097,-0.618025 m -0.0319,-0.487385 m -0.0107,-0.163849 m 0.0107,-9.836151 M 103.69493,54.97793 m 0,3 m -10.000004,0 m 0,-3 m -10,3 m -10,0 m 0,-3 m 10,0 m -40.000002,3 m -10,0 m 0,-3 m 10,0 m 20.000003,3 m -10,0 m 0,-3 m 10,0 m 60.000003,3 m -10,0 m 0,-3 m 10,0 m 20,3 m -10,0 m 0,-3 m 10,0 m 20,3 m -10,0 m 0,-3 m 10,0 m 20,3 m -10,0 m 0,-3 m 10,0 m 20,3 m -10,0 m 0,-3 m 10,0 m 19.99999,3 m -9.99999,0 m 0,-3 m 9.99999,0 m 20,3 m -10,0 m 0,-3 m 10,0 m 20,3 m -10,0 m 0,-3 m 10,0 m 20,3 m -10,0 m 0,-3 m 10,0 m 20,3 m -10,0 m 0,-3 m 10,0 m 20,3 m -10,0 m 0,-3 m 10,0 m 20,3 m -10,0 m 0,-3 m 10,0"
     inkscape:connector-curvature="0" />
  <path
     id="path12"
     style="fill:none;stroke:#00ff00;stroke-width:1;stroke-linecap:round;stroke-linejoin:round;stroke-miterlimit:4;stroke-dasharray:none"
     d="m 500.69492,212.97793 m 0,-10 m -3,0 m 0,-10 m 3,0 m 0,-10 m -3,0 m 0,-10 m 3,0 m 0,-10 m -3,0 m 0,-10 m 3,0 m 0,-10 m -3,0 m 0,-10 m 3,0 m 0,-10 m -3,0 m 0,-10 m 3,0 m 0,-10 m -3,0 m 0,-10 m 3,0 m 0,-10 m -3,0 m 0,-10.000001 m -149,0 m -244.99999,0 m 0,10.000001 m -3,0 m 0,10 m 3,0 m 0,10 m -3,0 m 0,10 m 3,0 m 0,10 m -3,0 m 0,10 m 3,0 m 0,10 m -3,0 m 0,10 m 3,0 m 0,10 m -3,0 m 0,10 m 3,0 m 0,10 m -3,0 m 0,10 m 3,0 m 0,10 m -3,0 m 0,10 m 366.99999,-10 m 0,-3 m 10,0 m 0,3 m -20,-3 m 0,3 m -10,0 m 0,-3 m -20,3 m 0,-3 m 10,0 m 0,3 m -20,0 m -10,0 m 0,-3 m 10,0 m -20,3 m -10,0 m 0,-3 m 10,0 m -20,0 m 0,3 m -10,0 m 0,-3 m -20,3 m 0,-3 m 10,0 m 0,3 m -20,0 m -10,0 m 0,-3 m 10,0 m -30,3 m 0,-3 m 10,0 m 0,3 m -24,0 m -10,0 m 0,-3 m 10,0 m -30,3 m 0,-3 m 10,0 m 0,3 m -20,0 m -10,0 m 0,-3 m 10,0 m -30,0 m 10,0 m 0,3 m -10,0 m -19.99999,0 m 0,-3 m 10,0 m 0,3 m -20,-3 m 0,3 m -10,0 m 0,-3 m -20,0 m 10,0 m 0,3 m -10,0 m -20,0 m 0,-3 m 10,0 m 0,3 m -30,0 m 0,-3 m 10,0 m 0,3"
     inkscape:connector-curvature="0" />
</svg>
