<?xml version="1.0" encoding="UTF-8" standalone="no"?>
<svg
   xmlns:dc="http://purl.org/dc/elements/1.1/"
   xmlns:cc="http://creativecommons.org/ns#"
   xmlns:rdf="http://www.w3.org/1999/02/22-rdf-syntax-ns#"
   xmlns:svg="http://www.w3.org/2000/svg"
   xmlns="http://www.w3.org/2000/svg"
   xmlns:sodipodi="http://sodipodi.sourceforge.net/DTD/sodipodi-0.dtd"
   xmlns:inkscape="http://www.inkscape.org/namespaces/inkscape"
   width="24in"
   height="12in"
   viewBox="0 0 609.59999 304.79999"
   version="1.1"
   id="svg2"
   inkscape:version="0.91 r13725"
   sodipodi:docname="Frame_bottom_1_2.svg">
  <metadata
     id="metadata18">
    <rdf:RDF>
      <cc:Work
         rdf:about="">
        <dc:format>image/svg+xml</dc:format>
        <dc:type
           rdf:resource="http://purl.org/dc/dcmitype/StillImage" />
        <dc:title></dc:title>
      </cc:Work>
    </rdf:RDF>
  </metadata>
  <defs
     id="defs16" />
  <sodipodi:namedview
     pagecolor="#ffffff"
     bordercolor="#666666"
     borderopacity="1"
     objecttolerance="10"
     gridtolerance="10"
     guidetolerance="10"
     inkscape:pageopacity="0"
     inkscape:pageshadow="2"
     inkscape:window-width="1366"
     inkscape:window-height="705"
     id="namedview14"
     showgrid="false"
     inkscape:zoom="0.088388348"
     inkscape:cx="-617.89635"
     inkscape:cy="1093.4257"
     inkscape:window-x="-8"
     inkscape:window-y="-8"
     inkscape:window-maximized="1"
     inkscape:current-layer="svg2"
     units="in" />
  <desc
     id="desc4">Output from Flights of Ideas SVG Sketchup Plugin</desc>
  <path
     id="face0-cut"
     style="fill:none;stroke:#0000ff;stroke-width:1;stroke-linecap:round;stroke-linejoin:round;stroke-miterlimit:4;stroke-dasharray:none"
     d="m 17.375566,180.11246 0,8 10,0 0,5 10,0 0,-10 10,0 0,10 10,0 0,-10 10,0 0,10 10,0 0,-10 10,0 0,10 10,0 0,-10 10.000004,0 0,10 10,0 0,-10 10,0 0,10 9.99999,0 0,-10 10,0 0,10 10,0 0,-10 10,0 0,10 10,0 0,-10 10,0 0,10 10,0 0,-10 10,0 0,10 10,0 0,-10 10,0 0,10 10,0 0,-10 10,0 0,10 10,0 0,-10 10,0 0,10 10,0 0,-10 10,0 0,10 10,0 0,-10 10,0 0,10 10,0 0,-10 10,0 0,10 10,0 0,-10 10,0 0,10 10,0 0,-10 10,0 0,10 10,0 0,-10 10,0 0,10 10,0 0,-10 10,0 0,5 10,0 0,-8 -3,0 0,-10 3,0 0,-10 -3,0 0,-10 3,0 0,-10 -3,0 0,-10 3,0 0,-10 -3,0 0,-10 3,0 0,-10 -3,0 0,-9.999996 3,0 0,-10 -3,0 0,-10.000004 3,0 0,-10 -3,0 0,-10 3,0 0,-10 -3,0 0,-20 -20,0 0,-3 -10,0 0,3 -10,0 0,-3 -10,0 0,3 -10,0 0,-3 -10,0 0,3 -10,0 0,-3 -10,0 0,3 -10,0 0,-3 -10,0 0,3 -10,0 0,-3 -10,0 0,3 -10,0 0,-3 -10,0 0,3 -10,0 0,-3 -10,0 0,3 -10,0 0,-3 -10,0 0,3 -14,0 0,-3 -10,0 0,3 -10,0 0,-3 -10,0 0,3 -10,0 0,-3 -10,0 0,3 -10,0 0,-3 -10,0 0,3 -9.99999,0 0,-3 -10,0 0,3 -10,0 0,-3 -10,0 0,3 -10.000004,0 0,-3 -10,0 0,3 -10,0 0,-3 -10,0 0,3 -10,0 0,-3 -10,0 0,3 -20,0 0,20 -3,0 0,10 3,0 0,10 -3,0 0,10 3,0 0,10.000004 -3,0 0,10 3,0 0,9.999996 -3,0 0,10 3,0 0,10 -3,0 0,10 3,0 0,10 -3,0 0,10 3,0 0,10 -3,0 0,10 3,0 0,10 -3,0"
     inkscape:connector-curvature="0" />
  <path
     id="face1-cut"
     style="fill:none;stroke:#0000ff;stroke-width:1;stroke-linecap:round;stroke-linejoin:round;stroke-miterlimit:4;stroke-dasharray:none"
     d="m -61.578579,-0.12565989 0,-2.00000001 -10,0 0,-5 -10,0 0,10 -10,0 0,-10 -10.000001,0 0,10 -10,0 0,-10 -10,0 0,10 -10,0 0,-10 -10,0 0,10 -10,0 0,-10 -10,0 0,10 -10,0 0,-10 -10,0 0,10 -10,0 0,-10 -10,0 0,10 -10,0 0,-10 -10,0 0,10 -9.9999,0 0,-10 -10,0 0,10 -10,0 0,-10 -10,0 0,10 -10,0 0,-10 -10,0 0,10 -10,0 0,-10 -10,0 0,10 -10,0 0,-10 -10,0 0,10 -10,0 0,-10 -10,0 0,10 -10,0 0,-10 -10,0 0,10 -10,0 0,-10 -10,0 0,10 -10,0 0,-10 -10,0 0,10 -10.0001,0 0,-10 -10,0 0,10 -10,0 0,-10 -10,0 0,10 -10,0 0,-5 -10,0 0,2.00000001 3,0 0,9.99999959 -3,0 0,10.0000003 3,0 0,10 -3,0 0,10 3,0 0,10 -3,0 0,10 3,0 0,10 -3,0 0,10 3,0 0,10 -3,0 0,10 3,0 0,10 -3,0 0,10 3,0 0,10 -3,0 0,10 3,0 0,26 20,0 0,3 10,0 0,-3 10,0 0,3 10,0 0,-3 10.0001,0 0,3 10,0 0,-3 10,0 0,3 10,0 0,-3 10,0 0,3 10,0 0,-3 10,0 0,3 10,0 0,-3 10,0 0,3 10,0 0,-3 10,0 0,3 10,0 0,-3 10,0 0,3 10,0 0,-3 14,0 0,3 10,0 0,-3 10,0 0,3 9.9999,0 0,-3 10,0 0,3 10,0 0,-3 10,0 0,3 10,0 0,-3 10,0 0,3 10,0 0,-3 10,0 0,3 10,0 0,-3 10,0 0,3 10,0 0,-3 10,0 0,3 10,0 0,-3 10.000001,0 0,3 10,0 0,-3 20,0 0,-26 3,0 0,-10 -3,0 0,-10 3,0 0,-10 -3,0 0,-10 3,0 0,-10 -3,0 0,-10 3,0 0,-10 -3,0 0,-10 3,0 0,-10 -3,0 0,-10 3,0 0,-10 -3,0 0,-10 3,0 0,-10.0000003 -3,0 0,-9.99999959 3,0"
     inkscape:connector-curvature="0" />
  <path
     id="face0-interior"
     style="fill:none;stroke:#ff0000;stroke-width:1;stroke-linecap:round;stroke-linejoin:round;stroke-miterlimit:4;stroke-dasharray:none"
     d="m 17.375566,180.11246 m 0,8 m 10,0 m 0,5 m 10,0 m 0,-10 m 10,0 m 0,10 m 10,0 m 0,-10 m 10,0 m 0,10 m 10,0 m 0,-10 m 10,0 m 0,10 m 10,0 m 0,-10 m 10.000004,0 m 0,10 m 10,0 m 0,-10 m 10,0 m 0,10 m 9.99999,0 m 0,-10 m 10,0 m 0,10 m 10,0 m 0,-10 m 10,0 m 0,10 m 10,0 m 0,-10 m 10,0 m 0,10 m 10,0 m 0,-10 m 10,0 m 0,10 m 10,0 m 0,-10 m 10,0 m 0,10 m 10,0 m 0,-10 m 10,0 m 0,10 m 10,0 m 0,-10 m 10,0 m 0,10 m 10,0 m 0,-10 m 10,0 m 0,10 m 10,0 m 0,-10 m 10,0 m 0,10 m 10,0 m 0,-10 m 10,0 m 0,10 m 10,0 m 0,-10 m 10,0 m 0,10 m 10,0 m 0,-10 m 10,0 m 0,10 m 10,0 m 0,-10 m 10,0 m 0,10 m 10,0 m 0,-10 m 10,0 m 0,5 m 10,0 m 0,-8 m -3,0 m 0,-10 m 3,0 m 0,-10 m -3,0 m 0,-10 m 3,0 m 0,-10 m -3,0 m 0,-10 m 3,0 m 0,-10 m -3,0 m 0,-10 m 3,0 m 0,-10 m -3,0 m 0,-9.999996 m 3,0 m 0,-10 m -3,0 m 0,-10.000004 m 3,0 m 0,-10 m -3,0 m 0,-10 m 3,0 m 0,-10 m -3,0 m 0,-20 m -20,0 m 0,-3 m -10,0 m 0,3 m -10,0 m 0,-3 m -10,0 m 0,3 m -10,0 m 0,-3 m -10,0 m 0,3 m -10,0 m 0,-3 m -10,0 m 0,3 m -10,0 m 0,-3 m -10,0 m 0,3 m -10,0 m 0,-3 m -10,0 m 0,3 m -10,0 m 0,-3 m -10,0 m 0,3 m -10,0 m 0,-3 m -10,0 m 0,3 m -10,0 m 0,-3 m -10,0 m 0,3 m -14,0 m 0,-3 m -10,0 m 0,3 m -10,0 m 0,-3 m -10,0 m 0,3 m -10,0 m 0,-3 m -10,0 m 0,3 m -10,0 m 0,-3 m -10,0 m 0,3 m -9.99999,0 m 0,-3 m -10,0 m 0,3 m -10,0 m 0,-3 m -10,0 m 0,3 m -10.000004,0 m 0,-3 m -10,0 m 0,3 m -10,0 m 0,-3 m -10,0 m 0,3 m -10,0 m 0,-3 m -10,0 m 0,3 m -20,0 m 0,20 m -3,0 m 0,10 m 3,0 m 0,10 m -3,0 m 0,10 m 3,0 m 0,10.000004 m -3,0 m 0,10 m 3,0 m 0,9.999996 m -3,0 m 0,10 m 3,0 m 0,10 m -3,0 m 0,10 m 3,0 m 0,10 m -3,0 m 0,10 m 3,0 m 0,10 m -3,0 m 0,10 m 3,0 m 0,10"
     inkscape:connector-curvature="0" />
  <path
     id="face1-interior"
     style="fill:none;stroke:#ff0000;stroke-width:1;stroke-linecap:round;stroke-linejoin:round;stroke-miterlimit:4;stroke-dasharray:none"
     d="m -61.578579,-0.12565989 m 0,-2.00000001 m -10,0 m 0,-5 m -10,0 m 0,10 m -10,0 m 0,-10 m -10.000001,0 m 0,10 m -10,0 m 0,-10 m -10,0 m 0,10 m -10,0 m 0,-10 m -10,0 m 0,10 m -10,0 m 0,-10 m -10,0 m 0,10 m -10,0 m 0,-10 m -10,0 m 0,10 m -10,0 m 0,-10 m -10,0 m 0,10 m -10,0 m 0,-10 m -10,0 m 0,10 m -9.9999,0 m 0,-10 m -10,0 m 0,10 m -10,0 m 0,-10 m -10,0 m 0,10 m -10,0 m 0,-10 m -10,0 m 0,10 m -10,0 m 0,-10 m -10,0 m 0,10 m -10,0 m 0,-10 m -10,0 m 0,10 m -10,0 m 0,-10 m -10,0 m 0,10 m -10,0 m 0,-10 m -10,0 m 0,10 m -10,0 m 0,-10 m -10,0 m 0,10 m -10,0 m 0,-10 m -10,0 m 0,10 m -10.0001,0 m 0,-10 m -10,0 m 0,10 m -10,0 m 0,-10 m -10,0 m 0,10 m -10,0 m 0,-5 m -10,0 m 0,2.00000001 m 3,0 m 0,9.99999959 m -3,0 m 0,10.0000003 m 3,0 m 0,10 m -3,0 m 0,10 m 3,0 m 0,10 m -3,0 m 0,10 m 3,0 m 0,10 m -3,0 m 0,10 m 3,0 m 0,10 m -3,0 m 0,10 m 3,0 m 0,10 m -3,0 m 0,10 m 3,0 m 0,10 m -3,0 m 0,10 m 3,0 m 0,26 m 20,0 m 0,3 m 10,0 m 0,-3 m 10,0 m 0,3 m 10,0 m 0,-3 m 10.0001,0 m 0,3 m 10,0 m 0,-3 m 10,0 m 0,3 m 10,0 m 0,-3 m 10,0 m 0,3 m 10,0 m 0,-3 m 10,0 m 0,3 m 10,0 m 0,-3 m 10,0 m 0,3 m 10,0 m 0,-3 m 10,0 m 0,3 m 10,0 m 0,-3 m 10,0 m 0,3 m 10,0 m 0,-3 m 14,0 m 0,3 m 10,0 m 0,-3 m 10,0 m 0,3 m 9.9999,0 m 0,-3 m 10,0 m 0,3 m 10,0 m 0,-3 m 10,0 m 0,3 m 10,0 m 0,-3 m 10,0 m 0,3 m 10,0 m 0,-3 m 10,0 m 0,3 m 10,0 m 0,-3 m 10,0 m 0,3 m 10,0 m 0,-3 m 10,0 m 0,3 m 10,0 m 0,-3 m 10.000001,0 m 0,3 m 10,0 m 0,-3 m 20,0 m 0,-26 m 3,0 m 0,-10 m -3,0 m 0,-10 m 3,0 m 0,-10 m -3,0 m 0,-10 m 3,0 m 0,-10 m -3,0 m 0,-10 m 3,0 m 0,-10 m -3,0 m 0,-10 m 3,0 m 0,-10 m -3,0 m 0,-10 m 3,0 m 0,-10 m -3,0 m 0,-10 m 3,0 m 0,-10.0000003 m -3,0 m 0,-9.99999959"
     inkscape:connector-curvature="0" />
  <path
     id="path10"
     style="fill:none;stroke:#00ff00;stroke-width:1;stroke-linecap:round;stroke-linejoin:round;stroke-miterlimit:4;stroke-dasharray:none"
     d="m 17.375566,180.11246 m 0,8 m 10,0 m 0,5 m 10,0 m 0,-10 m 10,0 m 0,10 m 10,0 m 0,-10 m 10,0 m 0,10 m 10,0 m 0,-10 m 10,0 m 0,10 m 10,0 m 0,-10 m 10.000004,0 m 0,10 m 10,0 m 0,-10 m 10,0 m 0,10 m 9.99999,0 m 0,-10 m 10,0 m 0,10 m 10,0 m 0,-10 m 10,0 m 0,10 m 10,0 m 0,-10 m 10,0 m 0,10 m 10,0 m 0,-10 m 10,0 m 0,10 m 10,0 m 0,-10 m 10,0 m 0,10 m 10,0 m 0,-10 m 10,0 m 0,10 m 10,0 m 0,-10 m 10,0 m 0,10 m 10,0 m 0,-10 m 10,0 m 0,10 m 10,0 m 0,-10 m 10,0 m 0,10 m 10,0 m 0,-10 m 10,0 m 0,10 m 10,0 m 0,-10 m 10,0 m 0,10 m 10,0 m 0,-10 m 10,0 m 0,10 m 10,0 m 0,-10 m 10,0 m 0,10 m 10,0 m 0,-10 m 10,0 m 0,5 m 10,0 m 0,-8 m -3,0 m 0,-10 m 3,0 m 0,-10 m -3,0 m 0,-10 m 3,0 m 0,-10 m -3,0 m 0,-10 m 3,0 m 0,-10 m -3,0 m 0,-10 m 3,0 m 0,-10 m -3,0 m 0,-9.999996 m 3,0 m 0,-10 m -3,0 m 0,-10.000004 m 3,0 m 0,-10 m -3,0 m 0,-10 m 3,0 m 0,-10 m -3,0 m 0,-20 m -20,0 m 0,-3 m -10,0 m 0,3 m -10,0 m 0,-3 m -10,0 m 0,3 m -10,0 m 0,-3 m -10,0 m 0,3 m -10,0 m 0,-3 m -10,0 m 0,3 m -10,0 m 0,-3 m -10,0 m 0,3 m -10,0 m 0,-3 m -10,0 m 0,3 m -10,0 m 0,-3 m -10,0 m 0,3 m -10,0 m 0,-3 m -10,0 m 0,3 m -10,0 m 0,-3 m -10,0 m 0,3 m -14,0 m 0,-3 m -10,0 m 0,3 m -10,0 m 0,-3 m -10,0 m 0,3 m -10,0 m 0,-3 m -10,0 m 0,3 m -10,0 m 0,-3 m -10,0 m 0,3 m -9.99999,0 m 0,-3 m -10,0 m 0,3 m -10,0 m 0,-3 m -10,0 m 0,3 m -10.000004,0 m 0,-3 m -10,0 m 0,3 m -10,0 m 0,-3 m -10,0 m 0,3 m -10,0 m 0,-3 m -10,0 m 0,3 m -20,0 m 0,20 m -3,0 m 0,10 m 3,0 m 0,10 m -3,0 m 0,10 m 3,0 m 0,10.000004 m -3,0 m 0,10 m 3,0 m 0,9.999996 m -3,0 m 0,10 m 3,0 m 0,10 m -3,0 m 0,10 m 3,0 m 0,10 m -3,0 m 0,10 m 3,0 m 0,10 m -3,0 m 0,10 m 3,0 m 0,10"
     inkscape:connector-curvature="0" />
  <path
     id="path12"
     style="fill:none;stroke:#00ff00;stroke-width:1;stroke-linecap:round;stroke-linejoin:round;stroke-miterlimit:4;stroke-dasharray:none"
     d="m -61.578579,-0.12565989 m 0,-2.00000001 m -10,0 m 0,-5 m -10,0 m 0,10 m -10,0 m 0,-10 m -10.000001,0 m 0,10 m -10,0 m 0,-10 m -10,0 m 0,10 m -10,0 m 0,-10 m -10,0 m 0,10 m -10,0 m 0,-10 m -10,0 m 0,10 m -10,0 m 0,-10 m -10,0 m 0,10 m -10,0 m 0,-10 m -10,0 m 0,10 m -10,0 m 0,-10 m -10,0 m 0,10 m -9.9999,0 m 0,-10 m -10,0 m 0,10 m -10,0 m 0,-10 m -10,0 m 0,10 m -10,0 m 0,-10 m -10,0 m 0,10 m -10,0 m 0,-10 m -10,0 m 0,10 m -10,0 m 0,-10 m -10,0 m 0,10 m -10,0 m 0,-10 m -10,0 m 0,10 m -10,0 m 0,-10 m -10,0 m 0,10 m -10,0 m 0,-10 m -10,0 m 0,10 m -10,0 m 0,-10 m -10,0 m 0,10 m -10.0001,0 m 0,-10 m -10,0 m 0,10 m -10,0 m 0,-10 m -10,0 m 0,10 m -10,0 m 0,-5 m -10,0 m 0,2.00000001 m 3,0 m 0,9.99999959 m -3,0 m 0,10.0000003 m 3,0 m 0,10 m -3,0 m 0,10 m 3,0 m 0,10 m -3,0 m 0,10 m 3,0 m 0,10 m -3,0 m 0,10 m 3,0 m 0,10 m -3,0 m 0,10 m 3,0 m 0,10 m -3,0 m 0,10 m 3,0 m 0,10 m -3,0 m 0,10 m 3,0 m 0,26 m 20,0 m 0,3 m 10,0 m 0,-3 m 10,0 m 0,3 m 10,0 m 0,-3 m 10.0001,0 m 0,3 m 10,0 m 0,-3 m 10,0 m 0,3 m 10,0 m 0,-3 m 10,0 m 0,3 m 10,0 m 0,-3 m 10,0 m 0,3 m 10,0 m 0,-3 m 10,0 m 0,3 m 10,0 m 0,-3 m 10,0 m 0,3 m 10,0 m 0,-3 m 10,0 m 0,3 m 10,0 m 0,-3 m 14,0 m 0,3 m 10,0 m 0,-3 m 10,0 m 0,3 m 9.9999,0 m 0,-3 m 10,0 m 0,3 m 10,0 m 0,-3 m 10,0 m 0,3 m 10,0 m 0,-3 m 10,0 m 0,3 m 10,0 m 0,-3 m 10,0 m 0,3 m 10,0 m 0,-3 m 10,0 m 0,3 m 10,0 m 0,-3 m 10,0 m 0,3 m 10,0 m 0,-3 m 10.000001,0 m 0,3 m 10,0 m 0,-3 m 20,0 m 0,-26 m 3,0 m 0,-10 m -3,0 m 0,-10 m 3,0 m 0,-10 m -3,0 m 0,-10 m 3,0 m 0,-10 m -3,0 m 0,-10 m 3,0 m 0,-10 m -3,0 m 0,-10 m 3,0 m 0,-10 m -3,0 m 0,-10 m 3,0 m 0,-10 m -3,0 m 0,-10 m 3,0 m 0,-10.0000003 m -3,0 m 0,-9.99999959"
     inkscape:connector-curvature="0" />
</svg>
