<?xml version="1.0" encoding="UTF-8" standalone="no"?>
<svg
   xmlns:dc="http://purl.org/dc/elements/1.1/"
   xmlns:cc="http://creativecommons.org/ns#"
   xmlns:rdf="http://www.w3.org/1999/02/22-rdf-syntax-ns#"
   xmlns:svg="http://www.w3.org/2000/svg"
   xmlns="http://www.w3.org/2000/svg"
   xmlns:sodipodi="http://sodipodi.sourceforge.net/DTD/sodipodi-0.dtd"
   xmlns:inkscape="http://www.inkscape.org/namespaces/inkscape"
   width="24in"
   height="12in"
   viewBox="0 0 609.6 304.8"
   version="1.1"
   id="svg2"
   inkscape:version="0.91 r13725"
   sodipodi:docname="Frame_front_top_compartment_side.svg">
  <metadata
     id="metadata18">
    <rdf:RDF>
      <cc:Work
         rdf:about="">
        <dc:format>image/svg+xml</dc:format>
        <dc:type
           rdf:resource="http://purl.org/dc/dcmitype/StillImage" />
        <dc:title></dc:title>
      </cc:Work>
    </rdf:RDF>
  </metadata>
  <defs
     id="defs16" />
  <sodipodi:namedview
     pagecolor="#ffffff"
     bordercolor="#666666"
     borderopacity="1"
     objecttolerance="10"
     gridtolerance="10"
     guidetolerance="10"
     inkscape:pageopacity="0"
     inkscape:pageshadow="2"
     inkscape:window-width="1366"
     inkscape:window-height="705"
     id="namedview14"
     showgrid="false"
     units="in"
     inkscape:zoom="0.094074074"
     inkscape:cx="-1201.1811"
     inkscape:cy="1254.3307"
     inkscape:window-x="-8"
     inkscape:window-y="-8"
     inkscape:window-maximized="1"
     inkscape:current-layer="svg2" />
  <desc
     id="desc4">Output from Flights of Ideas SVG Sketchup Plugin</desc>
  <path
     id="face0-cut"
     style="fill:none;stroke:#0000ff;stroke-width:1;stroke-linecap:round;stroke-linejoin:round;stroke-miterlimit:4;stroke-dasharray:none"
     d="m 365.49761,95.297611 0,-10 -50.25,0 -33.75,-30 -254.999994,0 0,10 3,0 0,10 -3,0 0,10 3,0 0,10 7,0 0,3 10,0 0,-3 10,0 0,3 10,0 0,-3 10,0 0,3 10,0 0,-3 10,0 0,3 10.000004,0 0,-3 10,0 0,3 10,0 0,-3 10,0 0,3 10,0 0,-3 10,0 0,3 10,0 0,-3 10,0 10,0 0,3 10,0 0,-3 10,0 0,3 10,0 0,-3 10,0 0,3 10,0 0,-3 9.99999,0 0,3 10,0 0,-3 10,0 0,3 10,0 0,-3 10,0 0,3 10,0 0,-3 10,0 0,3 10,0 0,-3 10,0 0,3 10,0 0,-3 10,0 0,3 10,0 0,-3 9,0"
     inkscape:connector-curvature="0" />
  <path
     id="face1-cut"
     style="fill:none;stroke:#0000ff;stroke-width:1;stroke-linecap:round;stroke-linejoin:round;stroke-miterlimit:4;stroke-dasharray:none"
     d="m 291.49763,-27.702384 33.75,-30 50.25,0 0,-10 -9,0 0,-3 -10,0 0,3 -10,0 0,-3 -10,0 0,3 -10,0 0,-3 -10,0 0,3 -10,0 0,-3 -10,0 0,3 -10,0 0,-3 -10,0 0,3 -10,0 0,-3 -10,0 0,3 -10,0 0,-3 -10,0 0,3 -10,0 0,-3 -10,0 0,3 -10,0 0,-3 -10,0 0,3 -10,0 -10,0 0,-3 -10,0 0,3 -10,0 0,-3 -10,0 0,3 -10,0 0,-3 -10,0 0,3 -10,0 0,-3 -10,0 0,3 -10.000004,0 0,-3 -9.999999,0 0,3 -10,0 0,-3 -10.000001,0 0,3 -10,0 0,-3 -10,0 0,3 -7,0 0,10 -3,0 0,10 3,0 0,10 -3,0 0,10 255.000004,0"
     inkscape:connector-curvature="0" />
  <path
     id="face0-interior"
     style="fill:none;stroke:#ff0000;stroke-width:1;stroke-linecap:round;stroke-linejoin:round;stroke-miterlimit:4;stroke-dasharray:none"
     d="m 365.49761,95.297611 m 0,-10 m -50.25,0 m -33.75,-30 m -254.999994,0 m 0,10 m 3,0 m 0,10 m -3,0 m 0,10 m 3,0 m 0,10 m 7,0 m 0,3 m 10,0 m 0,-3 m 10,0 m 0,3 m 10,0 m 0,-3 m 10,0 m 0,3 m 10,0 m 0,-3 m 10,0 m 0,3 m 10.000004,0 m 0,-3 m 10,0 m 0,3 m 10,0 m 0,-3 m 10,0 m 0,3 m 10,0 m 0,-3 m 10,0 m 0,3 m 10,0 m 0,-3 m 10,0 m 10,0 m 0,3 m 10,0 m 0,-3 m 10,0 m 0,3 m 10,0 m 0,-3 m 10,0 m 0,3 m 10,0 m 0,-3 m 9.99999,0 m 0,3 m 10,0 m 0,-3 m 10,0 m 0,3 m 10,0 m 0,-3 m 10,0 m 0,3 m 10,0 m 0,-3 m 10,0 m 0,3 m 10,0 m 0,-3 m 10,0 m 0,3 m 10,0 m 0,-3 m 10,0 m 0,3 m 10,0 m 0,-3"
     inkscape:connector-curvature="0" />
  <path
     id="face1-interior"
     style="fill:none;stroke:#ff0000;stroke-width:1;stroke-linecap:round;stroke-linejoin:round;stroke-miterlimit:4;stroke-dasharray:none"
     d="m 291.49763,-27.702384 m 33.75,-30 m 50.25,0 m 0,-10 m -9,0 m 0,-3 m -10,0 m 0,3 m -10,0 m 0,-3 m -10,0 m 0,3 m -10,0 m 0,-3 m -10,0 m 0,3 m -10,0 m 0,-3 m -10,0 m 0,3 m -10,0 m 0,-3 m -10,0 m 0,3 m -10,0 m 0,-3 m -10,0 m 0,3 m -10,0 m 0,-3 m -10,0 m 0,3 m -10,0 m 0,-3 m -10,0 m 0,3 m -10,0 m 0,-3 m -10,0 m 0,3 m -10,0 m -10,0 m 0,-3 m -10,0 m 0,3 m -10,0 m 0,-3 m -10,0 m 0,3 m -10,0 m 0,-3 m -10,0 m 0,3 m -10,0 m 0,-3 m -10,0 m 0,3 m -10.000004,0 m 0,-3 m -9.999999,0 m 0,3 m -10,0 m 0,-3 m -10.000001,0 m 0,3 m -10,0 m 0,-3 m -10,0 m 0,3 m -7,0 m 0,10 m -3,0 m 0,10 m 3,0 m 0,10 m -3,0 m 0,10"
     inkscape:connector-curvature="0" />
  <path
     id="path10"
     style="fill:none;stroke:#00ff00;stroke-width:1;stroke-linecap:round;stroke-linejoin:round;stroke-miterlimit:4;stroke-dasharray:none"
     d="m 365.49761,95.297611 m 0,-10 m -50.25,0 m -33.75,-30 m -254.999994,0 m 0,10 m 3,0 m 0,10 m -3,0 m 0,10 m 3,0 m 0,10 m 7,0 m 0,3 m 10,0 m 0,-3 m 10,0 m 0,3 m 10,0 m 0,-3 m 10,0 m 0,3 m 10,0 m 0,-3 m 10,0 m 0,3 m 10.000004,0 m 0,-3 m 10,0 m 0,3 m 10,0 m 0,-3 m 10,0 m 0,3 m 10,0 m 0,-3 m 10,0 m 0,3 m 10,0 m 0,-3 m 10,0 m 10,0 m 0,3 m 10,0 m 0,-3 m 10,0 m 0,3 m 10,0 m 0,-3 m 10,0 m 0,3 m 10,0 m 0,-3 m 9.99999,0 m 0,3 m 10,0 m 0,-3 m 10,0 m 0,3 m 10,0 m 0,-3 m 10,0 m 0,3 m 10,0 m 0,-3 m 10,0 m 0,3 m 10,0 m 0,-3 m 10,0 m 0,3 m 10,0 m 0,-3 m 10,0 m 0,3 m 10,0 m 0,-3"
     inkscape:connector-curvature="0" />
  <path
     id="path12"
     style="fill:none;stroke:#00ff00;stroke-width:1;stroke-linecap:round;stroke-linejoin:round;stroke-miterlimit:4;stroke-dasharray:none"
     d="m 291.49763,-27.702384 m 33.75,-30 m 50.25,0 m 0,-10 m -9,0 m 0,-3 m -10,0 m 0,3 m -10,0 m 0,-3 m -10,0 m 0,3 m -10,0 m 0,-3 m -10,0 m 0,3 m -10,0 m 0,-3 m -10,0 m 0,3 m -10,0 m 0,-3 m -10,0 m 0,3 m -10,0 m 0,-3 m -10,0 m 0,3 m -10,0 m 0,-3 m -10,0 m 0,3 m -10,0 m 0,-3 m -10,0 m 0,3 m -10,0 m 0,-3 m -10,0 m 0,3 m -10,0 m -10,0 m 0,-3 m -10,0 m 0,3 m -10,0 m 0,-3 m -10,0 m 0,3 m -10,0 m 0,-3 m -10,0 m 0,3 m -10,0 m 0,-3 m -10,0 m 0,3 m -10.000004,0 m 0,-3 m -9.999999,0 m 0,3 m -10,0 m 0,-3 m -10.000001,0 m 0,3 m -10,0 m 0,-3 m -10,0 m 0,3 m -7,0 m 0,10 m -3,0 m 0,10 m 3,0 m 0,10 m -3,0 m 0,10"
     inkscape:connector-curvature="0" />
</svg>
