<?xml version="1.0" encoding="UTF-8" standalone="no"?>
<svg
   xmlns:dc="http://purl.org/dc/elements/1.1/"
   xmlns:cc="http://creativecommons.org/ns#"
   xmlns:rdf="http://www.w3.org/1999/02/22-rdf-syntax-ns#"
   xmlns:svg="http://www.w3.org/2000/svg"
   xmlns="http://www.w3.org/2000/svg"
   xmlns:sodipodi="http://sodipodi.sourceforge.net/DTD/sodipodi-0.dtd"
   xmlns:inkscape="http://www.inkscape.org/namespaces/inkscape"
   width="24in"
   height="12in"
   viewBox="0 0 609.59997 304.80001"
   version="1.1"
   id="svg2"
   inkscape:version="0.91 r13725"
   sodipodi:docname="Front_flair.svg">
  <metadata
     id="metadata70">
    <rdf:RDF>
      <cc:Work
         rdf:about="">
        <dc:format>image/svg+xml</dc:format>
        <dc:type
           rdf:resource="http://purl.org/dc/dcmitype/StillImage" />
        <dc:title></dc:title>
      </cc:Work>
    </rdf:RDF>
  </metadata>
  <defs
     id="defs68" />
  <sodipodi:namedview
     pagecolor="#ffffff"
     bordercolor="#666666"
     borderopacity="1"
     objecttolerance="10"
     gridtolerance="10"
     guidetolerance="10"
     inkscape:pageopacity="0"
     inkscape:pageshadow="2"
     inkscape:window-width="1366"
     inkscape:window-height="705"
     id="namedview66"
     showgrid="false"
     units="in"
     inkscape:zoom="0.19293906"
     inkscape:cx="1434.3999"
     inkscape:cy="928.79777"
     inkscape:window-x="-8"
     inkscape:window-y="-8"
     inkscape:window-maximized="1"
     inkscape:current-layer="svg2" />
  <desc
     id="desc4">Output from Flights of Ideas SVG Sketchup Plugin</desc>
  <path
     id="face0-cut"
     style="fill:none;stroke:#0000ff;stroke-width:1;stroke-linecap:round;stroke-linejoin:round;stroke-miterlimit:4;stroke-dasharray:none"
     d="m 151.06419,247.2918 0,-2 -140.000004,0 0,2 1.54065,4.08901 1.77927,3.99096 2.01168,3.87901 2.23709,3.75353 2.4547,3.61497 2.66375,3.46381 2.86352,3.30059 3.05331,3.12584 3.23244,2.94021 3.40033,2.74433 3.55635,2.53889 3.69998,2.32459 3.83071,2.1022 3.94809,1.87247 4.05171,1.63621 4.1412,1.39427 4.21628,1.14745 4.27663,0.89664 4.32211,0.64269 4.35249,0.38651 4.36771,0.129 4.36772,-0.12899 4.35248,-0.38652 4.3221,-0.64269 4.27663,-0.89664 4.216284,-1.14744 4.1412,-1.39427 4.05171,-1.63621 3.94809,-1.87248 3.83072,-2.10219 3.69998,-2.32459 3.55635,-2.53888 3.40032,-2.74434 3.23246,-2.94021 3.05329,-3.12584 2.86353,-3.30059 2.66375,-3.46381 2.4547,-3.61497 2.23708,-3.75353 2.01168,-3.87902 1.77928,-3.99095 1.54065,-4.08902 m -133.100714,3.00001 126.201424,0 -1.57613,3.48431 -1.76834,3.3908 -1.95503,3.28671 -2.13562,3.17233 -2.30952,3.04806 -2.47622,2.91426 -2.63518,2.77135 -2.78591,2.61978 -2.92794,2.46004 -3.0608,2.2926 -3.18412,2.11801 -3.29749,1.93679 -3.40054,1.74952 -3.493,1.5568 -3.5745,1.35919 -3.644874,1.15736 -3.70386,0.9519 -3.75123,0.74347 -3.78692,0.53271 -3.81077,0.3203 -3.82272,0.10688 -3.82271,-0.10689 -3.81077,-0.32029 -3.78693,-0.53271 -3.75124,-0.74348 -3.70385,-0.95186 -3.64487,-1.15736 -3.57453,-1.35918 -3.49297,-1.5568 -3.40055,-1.74952 -3.29749,-1.9368 -3.18412,-2.11801 -3.06082,-2.29259 -2.92793,-2.46004 -2.7859,-2.61978 -2.63519,-2.77135 -2.47621,-2.91426 -2.30953,-3.04806 -2.13561,-3.17233 -1.95503,-3.28672 -1.76834,-3.39079 -1.57613,-3.48431"
     inkscape:connector-curvature="0" />
  <path
     id="face1-cut"
     style="fill:none;stroke:#0000ff;stroke-width:1;stroke-linecap:round;stroke-linejoin:round;stroke-miterlimit:4;stroke-dasharray:none"
     d="m 600.93379,11.208548 -125.00001,0 -1.36821,5.21853 -1.73083,5.10973 -2.08494,4.97575 -2.42878,4.81727 -2.76065,4.63507 -3.07894,4.43004 -3.38205,4.20319 -3.66852,3.95565 -3.9369,3.68861 -4.18591,3.40341 -4.4143,3.10146 -4.8004,2.46129 162.84044,0 0,-5 -110.00001,0 -1.2941,-0.17038 -1.2059,-0.4995 -1.03553,-0.79459 -0.7946,-1.03553 -0.4995,-1.20591 -0.17037,-1.29409 0.17037,-1.2941 0.4995,-1.2059 0.7946,-1.03554 1.03553,-0.79459 1.2059,-0.4995 1.2941,-0.17037 110.00001,0 0,-5 -110.00001,0 -1.2941,-0.17037 -1.2059,-0.49951 -1.03553,-0.79459 -0.7946,-1.03553 -0.4995,-1.20591 -0.17037,-1.29409 0.17037,-1.2941 0.4995,-1.2059 0.7946,-1.03554 1.03553,-0.79459 1.2059,-0.4995 1.2941,-0.17037 110.00001,0 0,-5 -110.00001,0 -1.2941,-0.17037 -1.2059,-0.49951 -1.03553,-0.79459 -0.7946,-1.03553 -0.4995,-1.20591 -0.17037,-1.29409 0.17037,-1.2941 0.4995,-1.2059 0.7946,-1.03554 1.03553,-0.79459 1.2059,-0.4995 1.2941,-0.17037 110.00001,0 0,-5"
     inkscape:connector-curvature="0" />
  <path
     id="face14-cut"
     style="fill:none;stroke:#0000ff;stroke-width:1;stroke-linecap:round;stroke-linejoin:round;stroke-miterlimit:4;stroke-dasharray:none"
     d="m 567.2943,72.534929 -125.00001,0 0,5 110.00001,-1e-5 1.29409,0.17037 1.20591,0.49951 1.03553,0.79459 0.7946,1.03554 0.4995,1.2059 0.17037,1.2941 -0.17037,1.29409 -0.4995,1.2059 -0.7946,1.03554 -1.03553,0.79459 -1.20591,0.49951 -1.29409,0.17037 -110.00001,-1e-5 0,5 110.00001,1e-5 1.29409,0.17037 1.20591,0.49949 1.03553,0.7946 0.7946,1.03553 0.4995,1.20591 0.17037,1.29409 -0.17037,1.2941 -0.4995,1.205901 -0.7946,1.03554 -1.03553,0.7946 -1.20591,0.4995 -1.29409,0.17037 -110.00001,-1e-5 0,5 110.00001,1e-5 1.29409,0.17037 1.20591,0.4995 1.03553,0.79459 0.7946,1.03553 0.4995,1.20591 0.17037,1.2941 -0.17037,1.29409 -0.4995,1.20591 -0.7946,1.03553 -1.03553,0.79459 -1.20591,0.4995 -1.29409,0.17037 -110.00001,1e-5 0,5 162.84044,-1e-5 -4.8004,-2.46128 -4.4143,-3.10145 -4.18591,-3.40342 -3.93691,-3.68862 -3.66851,-3.95563 -3.38205,-4.20319 -3.07894,-4.430051 -2.76065,-4.63506 -2.42878,-4.81728 -2.08494,-4.97576 -1.73084,-5.10972 -1.3682,-5.21853"
     inkscape:connector-curvature="0" />
  <path
     id="face0-interior"
     style="fill:none;stroke:#ff0000;stroke-width:1;stroke-linecap:round;stroke-linejoin:round;stroke-miterlimit:4;stroke-dasharray:none"
     d="m 59.973165,-235.61946 m 2,0 m 0,-140 m -2,0 m -4.089007,1.54065 m -3.990962,1.77927 m -3.879007,2.01168 m -3.753532,2.23709 m -3.614973,2.4547 m -3.463813,2.66375 m -3.300582,2.86352 m -3.125845,3.05331 m -2.940212,3.23244 m -2.744333,3.40033 m -2.538887,3.55635 m -2.324591,3.69998 m -2.102194,3.83071 m -1.872469,3.94809 m -1.636217,4.05171 m -1.394262,4.14121 m -1.147448,4.21627 m -0.896634,4.27664 m -0.642694,4.3221 m -0.386515,4.35249 M 10,-305.61946 m 0.128988,4.36772 m 0.386515,4.35249 m 0.642694,4.3221 m 0.896634,4.27663 m 1.147448,4.21627 m 1.394262,4.14121 m 1.636217,4.05171 m 1.872469,3.94809 m 2.102194,3.83071 m 2.324591,3.69998 m 2.538887,3.55635 m 2.744333,3.40033 m 2.940212,3.23245 m 3.125845,3.0533 m 3.300582,2.86352 m 3.463813,2.66375 m 3.614973,2.4547 m 3.753532,2.23709 m 3.879007,2.01168 m 3.990962,1.77927 m 1.089007,-131.56005 m 0,126.20141 m -3.484309,-1.57613 m -3.390802,-1.76834 m -3.286704,-1.95503 m -3.172336,-2.13561 m -3.048058,-2.30953 m -2.914257,-2.47622 m -2.771351,-2.63518 m -2.619786,-2.78591 m -2.460037,-2.92793 m -2.292602,-3.06081 m -2.118005,-3.18412 m -1.936791,-3.29748 m -1.749525,-3.40055 m -1.556793,-3.49299 m -1.359198,-3.57451 m -1.157357,-3.64487 m -0.9519,-3.70385 m -0.743468,-3.75124 m -0.532714,-3.78692 m -0.320296,-3.81077 M 15,-305.61946 m 0.106876,-3.82271 m 0.320296,-3.81077 m 0.532714,-3.78693 m 0.743468,-3.75124 m 0.9519,-3.70384 m 1.157357,-3.64487 m 1.359198,-3.57452 m 1.556793,-3.49298 m 1.749525,-3.40055 m 1.936791,-3.29749 m 2.118005,-3.18412 m 2.292602,-3.06081 m 2.460037,-2.92793 m 2.619786,-2.78591 m 2.771351,-2.63518 m 2.914257,-2.47622 m 3.048058,-2.30953 m 3.172336,-2.13561 m 3.286704,-1.95503 m 3.390802,-1.76834"
     inkscape:connector-curvature="0" />
  <path
     id="face1-interior"
     style="fill:none;stroke:#ff0000;stroke-width:1;stroke-linecap:round;stroke-linejoin:round;stroke-miterlimit:4;stroke-dasharray:none"
     d="m 60,-62.779027 m 0,-125.000003 m -5.218535,-1.36821 m -5.109727,-1.73083 m -4.975752,-2.08494 m -4.817274,-2.42878 m -4.63507,-2.76065 m -4.43004,-3.07894 m -4.20319,-3.38205 m -3.955642,-3.66852 m -3.688612,-3.9369 m -3.403416,-4.18591 m -3.101459,-4.4143 M 10,-225.61946 m 0,162.840433 m 5,0 m 0,-110.000003 m 0.170371,-1.2941 m 0.499502,-1.2059 m 0.794593,-1.03553 M 17.5,-177.10916 m 1.205905,-0.4995 M 20,-177.77903 m 1.294095,0.17037 m 1.205905,0.4995 m 1.035534,0.7946 m 0.794593,1.03553 m 0.499502,1.2059 M 25,-172.77903 m 0,110.000003 m 5,0 m 0,-110.000003 m 0.170371,-1.2941 m 0.499502,-1.2059 m 0.794593,-1.03553 M 32.5,-177.10916 m 1.205905,-0.4995 M 35,-177.77903 m 1.294095,0.17037 m 1.205905,0.4995 m 1.035534,0.7946 m 0.794593,1.03553 m 0.499502,1.2059 M 40,-172.77903 m 0,110.000003 m 5,0 m 0,-110.000003 m 0.170371,-1.2941 m 0.499502,-1.2059 m 0.794593,-1.03553 M 47.5,-177.10916 m 1.205905,-0.4995 M 50,-177.77903 m 1.294095,0.17037 m 1.205905,0.4995 m 1.035534,0.7946 m 0.794593,1.03553 m 0.499502,1.2059 M 55,-172.77903 m 0,110.000003"
     inkscape:connector-curvature="0" />
  <path
     id="face14-interior"
     style="fill:none;stroke:#ff0000;stroke-width:1;stroke-linecap:round;stroke-linejoin:round;stroke-miterlimit:4;stroke-dasharray:none"
     d="m 60,256.95962 m 0,-125 m -5,0 m 0,110 m -0.170371,1.29409 m -0.499502,1.20591 m -0.794593,1.03553 M 52.5,246.28975 m -1.205905,0.4995 M 50,246.95962 m -1.294095,-0.17037 M 47.5,246.28975 m -1.035534,-0.7946 m -0.794593,-1.03553 m -0.499502,-1.20591 M 45,241.95962 m 0,-110 m -5,0 m 0,110 m -0.170371,1.29409 m -0.499502,1.20591 m -0.794593,1.03553 M 37.5,246.28975 m -1.205905,0.4995 M 35,246.95962 m -1.294095,-0.17037 M 32.5,246.28975 m -1.035534,-0.7946 m -0.794593,-1.03553 m -0.499502,-1.20591 M 30,241.95962 m 0,-110 m -5,0 m 0,110 m -0.170371,1.29409 m -0.499502,1.20591 m -0.794593,1.03553 M 22.5,246.28975 m -1.205905,0.4995 M 20,246.95962 m -1.294095,-0.17037 M 17.5,246.28975 m -1.035534,-0.7946 m -0.794593,-1.03553 m -0.499502,-1.20591 M 15,241.95962 m 0,-110 m -5,0 m 0,162.84043 m 2.461283,-4.8004 m 3.101459,-4.4143 m 3.403416,-4.18591 m 3.688612,-3.93691 m 3.955642,-3.66851 m 4.20319,-3.38205 m 4.43004,-3.07894 m 4.63507,-2.76065 m 4.817274,-2.42878 m 4.975752,-2.08494 m 5.109727,-1.73084"
     inkscape:connector-curvature="0" />
  <path
     id="path36"
     style="fill:none;stroke:#00ff00;stroke-width:1;stroke-linecap:round;stroke-linejoin:round;stroke-miterlimit:4;stroke-dasharray:none"
     d="m 59.973165,-235.61946 m 2,0 m 0,-140 m -2,0 m -4.089007,1.54065 m -3.990962,1.77927 m -3.879007,2.01168 m -3.753532,2.23709 m -3.614973,2.4547 m -3.463813,2.66375 m -3.300582,2.86352 m -3.125845,3.05331 m -2.940212,3.23244 m -2.744333,3.40033 m -2.538887,3.55635 m -2.324591,3.69998 m -2.102194,3.83071 m -1.872469,3.94809 m -1.636217,4.05171 m -1.394262,4.14121 m -1.147448,4.21627 m -0.896634,4.27664 m -0.642694,4.3221 m -0.386515,4.35249 M 10,-305.61946 m 0.128988,4.36772 m 0.386515,4.35249 m 0.642694,4.3221 m 0.896634,4.27663 m 1.147448,4.21627 m 1.394262,4.14121 m 1.636217,4.05171 m 1.872469,3.94809 m 2.102194,3.83071 m 2.324591,3.69998 m 2.538887,3.55635 m 2.744333,3.40033 m 2.940212,3.23245 m 3.125845,3.0533 m 3.300582,2.86352 m 3.463813,2.66375 m 3.614973,2.4547 m 3.753532,2.23709 m 3.879007,2.01168 m 3.990962,1.77927 m 1.089007,-131.56005 m 0,126.20141 m -3.484309,-1.57613 m -3.390802,-1.76834 m -3.286704,-1.95503 m -3.172336,-2.13561 m -3.048058,-2.30953 m -2.914257,-2.47622 m -2.771351,-2.63518 m -2.619786,-2.78591 m -2.460037,-2.92793 m -2.292602,-3.06081 m -2.118005,-3.18412 m -1.936791,-3.29748 m -1.749525,-3.40055 m -1.556793,-3.49299 m -1.359198,-3.57451 m -1.157357,-3.64487 m -0.9519,-3.70385 m -0.743468,-3.75124 m -0.532714,-3.78692 m -0.320296,-3.81077 M 15,-305.61946 m 0.106876,-3.82271 m 0.320296,-3.81077 m 0.532714,-3.78693 m 0.743468,-3.75124 m 0.9519,-3.70384 m 1.157357,-3.64487 m 1.359198,-3.57452 m 1.556793,-3.49298 m 1.749525,-3.40055 m 1.936791,-3.29749 m 2.118005,-3.18412 m 2.292602,-3.06081 m 2.460037,-2.92793 m 2.619786,-2.78591 m 2.771351,-2.63518 m 2.914257,-2.47622 m 3.048058,-2.30953 m 3.172336,-2.13561 m 3.286704,-1.95503 m 3.390802,-1.76834"
     inkscape:connector-curvature="0" />
  <path
     id="path38"
     style="fill:none;stroke:#00ff00;stroke-width:1;stroke-linecap:round;stroke-linejoin:round;stroke-miterlimit:4;stroke-dasharray:none"
     d="m 60,-62.779027 m 0,-125.000003 m -5.218535,-1.36821 m -5.109727,-1.73083 m -4.975752,-2.08494 m -4.817274,-2.42878 m -4.63507,-2.76065 m -4.43004,-3.07894 m -4.20319,-3.38205 m -3.955642,-3.66852 m -3.688612,-3.9369 m -3.403416,-4.18591 m -3.101459,-4.4143 M 10,-225.61946 m 0,162.840433 m 5,0 m 0,-110.000003 m 0.170371,-1.2941 m 0.499502,-1.2059 m 0.794593,-1.03553 M 17.5,-177.10916 m 1.205905,-0.4995 M 20,-177.77903 m 1.294095,0.17037 m 1.205905,0.4995 m 1.035534,0.7946 m 0.794593,1.03553 m 0.499502,1.2059 M 25,-172.77903 m 0,110.000003 m 5,0 m 0,-110.000003 m 0.170371,-1.2941 m 0.499502,-1.2059 m 0.794593,-1.03553 M 32.5,-177.10916 m 1.205905,-0.4995 M 35,-177.77903 m 1.294095,0.17037 m 1.205905,0.4995 m 1.035534,0.7946 m 0.794593,1.03553 m 0.499502,1.2059 M 40,-172.77903 m 0,110.000003 m 5,0 m 0,-110.000003 m 0.170371,-1.2941 m 0.499502,-1.2059 m 0.794593,-1.03553 M 47.5,-177.10916 m 1.205905,-0.4995 M 50,-177.77903 m 1.294095,0.17037 m 1.205905,0.4995 m 1.035534,0.7946 m 0.794593,1.03553 m 0.499502,1.2059 M 55,-172.77903 m 0,110.000003"
     inkscape:connector-curvature="0" />
  <path
     id="path64"
     style="fill:none;stroke:#00ff00;stroke-width:1;stroke-linecap:round;stroke-linejoin:round;stroke-miterlimit:4;stroke-dasharray:none"
     d="m 60,256.95962 m 0,-125 m -5,0 m 0,110 m -0.170371,1.29409 m -0.499502,1.20591 m -0.794593,1.03553 M 52.5,246.28975 m -1.205905,0.4995 M 50,246.95962 m -1.294095,-0.17037 M 47.5,246.28975 m -1.035534,-0.7946 m -0.794593,-1.03553 m -0.499502,-1.20591 M 45,241.95962 m 0,-110 m -5,0 m 0,110 m -0.170371,1.29409 m -0.499502,1.20591 m -0.794593,1.03553 M 37.5,246.28975 m -1.205905,0.4995 M 35,246.95962 m -1.294095,-0.17037 M 32.5,246.28975 m -1.035534,-0.7946 m -0.794593,-1.03553 m -0.499502,-1.20591 M 30,241.95962 m 0,-110 m -5,0 m 0,110 m -0.170371,1.29409 m -0.499502,1.20591 m -0.794593,1.03553 M 22.5,246.28975 m -1.205905,0.4995 M 20,246.95962 m -1.294095,-0.17037 M 17.5,246.28975 m -1.035534,-0.7946 m -0.794593,-1.03553 m -0.499502,-1.20591 M 15,241.95962 m 0,-110 m -5,0 m 0,162.84043 m 2.461283,-4.8004 m 3.101459,-4.4143 m 3.403416,-4.18591 m 3.688612,-3.93691 m 3.955642,-3.66851 m 4.20319,-3.38205 m 4.43004,-3.07894 m 4.63507,-2.76065 m 4.817274,-2.42878 m 4.975752,-2.08494 m 5.109727,-1.73084"
     inkscape:connector-curvature="0" />
</svg>
