<?xml version="1.0" encoding="UTF-8" standalone="no"?>
<svg
   xmlns:dc="http://purl.org/dc/elements/1.1/"
   xmlns:cc="http://creativecommons.org/ns#"
   xmlns:rdf="http://www.w3.org/1999/02/22-rdf-syntax-ns#"
   xmlns:svg="http://www.w3.org/2000/svg"
   xmlns="http://www.w3.org/2000/svg"
   xmlns:sodipodi="http://sodipodi.sourceforge.net/DTD/sodipodi-0.dtd"
   xmlns:inkscape="http://www.inkscape.org/namespaces/inkscape"
   width="24in"
   height="12in"
   viewBox="0 0 609.60001 304.79999"
   version="1.1"
   id="svg2"
   inkscape:version="0.91 r13725"
   sodipodi:docname="Top_cover_sides.svg">
  <metadata
     id="metadata18">
    <rdf:RDF>
      <cc:Work
         rdf:about="">
        <dc:format>image/svg+xml</dc:format>
        <dc:type
           rdf:resource="http://purl.org/dc/dcmitype/StillImage" />
        <dc:title />
      </cc:Work>
    </rdf:RDF>
  </metadata>
  <defs
     id="defs16" />
  <sodipodi:namedview
     pagecolor="#ffffff"
     bordercolor="#666666"
     borderopacity="1"
     objecttolerance="10"
     gridtolerance="10"
     guidetolerance="10"
     inkscape:pageopacity="0"
     inkscape:pageshadow="2"
     inkscape:window-width="1366"
     inkscape:window-height="705"
     id="namedview14"
     showgrid="false"
     units="in"
     inkscape:zoom="0.1855277"
     inkscape:cx="187.79528"
     inkscape:cy="636.02362"
     inkscape:window-x="-8"
     inkscape:window-y="-8"
     inkscape:window-maximized="1"
     inkscape:current-layer="svg2" />
  <desc
     id="desc4">Output from Flights of Ideas SVG Sketchup Plugin</desc>
  <path
     id="face1-cut"
     style="fill:none;stroke:#0000ff;stroke-width:1;stroke-linecap:round;stroke-linejoin:round;stroke-miterlimit:4;stroke-dasharray:none"
     d="m 92.237299,50.761829 -33.749999,30 -50.2500044,0 0,10 9.0000004,0 0,3 10.000004,0 0,-3 10,0 0,3 10,0 0,-3 10,0 0,3 9.999999,0 0,-3 10,0 0,3 10,0 0,-3 10,0 0,3 10.000001,0 0,-3 10,0 0,3 10,0 0,-3 10,0 0,3 10,0 0,-3 10,0 0,3 10,0 0,-3 10,0 0,3 10,0 0,-3 10,0 9.99999,0 0,3 10,0 0,-3 10.00001,0 0,3 10,0 0,-3 10,0 0,3 10,0 0,-3 10,0 0,3 10,0 0,-3 10,0 0,3 10,0 0,-3 10,0 0,3 10,0 0,-3 10,0 0,3 10,0 0,-3 7,0 0,-10 3,0 0,-10 -3,0 0,-10 3,0 0,-10"
     inkscape:connector-curvature="0" />
  <path
     id="face0-interior"
     style="fill:none;stroke:#ff0000;stroke-width:1;stroke-linecap:round;stroke-linejoin:round;stroke-miterlimit:4;stroke-dasharray:none"
     d="m 8.2372956,10.76183 m 0,10.000001 m 50.2500044,0 m 33.749999,29.999998 255.000001,0 m 0,-10 m -3,0 m 0,-10 m 3,0 m 0,-9.999998 m -3,0 m 0,-10.000001 m -7,0 m 0,-3 m -10,0 m 0,3 m -10,0 m 0,-3 m -10,0 m 0,3 m -10,0 m 0,-3 m -10,0 m 0,3 m -10,0 m 0,-3 m -10,0 m 0,3 m -10,0 m 0,-3 m -10,0 m 0,3 m -10,0 m 0,-3 m -10,0 m 0,3 m -10.00001,0 m 0,-3 m -10,0 m 0,3 m -9.99999,0 m -10,0 m 0,-3 m -10,0 m 0,3 m -10,0 m 0,-3 m -10,0 m 0,3 m -10,0 m 0,-3 m -10,0 m 0,3 m -10,0 m 0,-3 m -10,0 m 0,3 m -10,0 m 0,-3 m -10.000001,0 m 0,3 m -10,0 m 0,-3 m -10,0 m 0,3 m -10,0 m 0,-3 m -9.999999,0 m 0,3 m -10,0 m 0,-3 m -10,0 m 0,3 m -10,0 m 0,-3 m -10.000004,0 m 0,3"
     inkscape:connector-curvature="0" />
  <path
     id="face1-interior"
     style="fill:none;stroke:#ff0000;stroke-width:1;stroke-linecap:round;stroke-linejoin:round;stroke-miterlimit:4;stroke-dasharray:none"
     d="m 92.237299,50.761829 m -33.749999,30 m -50.2500044,0 m 0,10 m 9.0000004,0 m 0,3 m 10.000004,0 m 0,-3 m 10,0 m 0,3 m 10,0 m 0,-3 m 10,0 m 0,3 m 9.999999,0 m 0,-3 m 10,0 m 0,3 m 10,0 m 0,-3 m 10,0 m 0,3 m 10.000001,0 m 0,-3 m 10,0 m 0,3 m 10,0 m 0,-3 m 10,0 m 0,3 m 10,0 m 0,-3 m 10,0 m 0,3 m 10,0 m 0,-3 m 10,0 m 0,3 m 10,0 m 0,-3 m 10,0 m 9.99999,0 m 0,3 m 10,0 m 0,-3 m 10.00001,0 m 0,3 m 10,0 m 0,-3 m 10,0 m 0,3 m 10,0 m 0,-3 m 10,0 m 0,3 m 10,0 m 0,-3 m 10,0 m 0,3 m 10,0 m 0,-3 m 10,0 m 0,3 m 10,0 m 0,-3 m 10,0 m 0,3 m 10,0 m 0,-3 m 7,0 m 0,-10 m 3,0 m 0,-10 m -3,0 m 0,-10 m 3,0 m 0,-10"
     inkscape:connector-curvature="0" />
  <path
     id="path10"
     style="fill:none;stroke:#00ff00;stroke-width:1;stroke-linecap:round;stroke-linejoin:round;stroke-miterlimit:4;stroke-dasharray:none"
     d="m 8.2372956,10.76183 m 0,10.000001 m 50.2500044,0 m 33.749999,29.999998 m 255.000001,0 m 0,-10 m -3,0 m 0,-10 m 3,0 m 0,-9.999998 m -3,0 m 0,-10.000001 m -7,0 m 0,-3 m -10,0 m 0,3 m -10,0 m 0,-3 m -10,0 m 0,3 m -10,0 m 0,-3 m -10,0 m 0,3 m -10,0 m 0,-3 m -10,0 m 0,3 m -10,0 m 0,-3 m -10,0 m 0,3 m -10,0 m 0,-3 m -10,0 m 0,3 m -10.00001,0 m 0,-3 m -10,0 m 0,3 m -9.99999,0 m -10,0 m 0,-3 m -10,0 m 0,3 m -10,0 m 0,-3 m -10,0 m 0,3 m -10,0 m 0,-3 m -10,0 m 0,3 m -10,0 m 0,-3 m -10,0 m 0,3 m -10,0 m 0,-3 m -10.000001,0 m 0,3 m -10,0 m 0,-3 m -10,0 m 0,3 m -10,0 m 0,-3 m -9.999999,0 m 0,3 m -10,0 m 0,-3 m -10,0 m 0,3 m -10,0 m 0,-3 m -10.000004,0 m 0,3"
     inkscape:connector-curvature="0" />
  <path
     id="path12"
     style="fill:none;stroke:#00ff00;stroke-width:1;stroke-linecap:round;stroke-linejoin:round;stroke-miterlimit:4;stroke-dasharray:none"
     d="m 92.237299,50.761829 m -33.749999,30 m -50.2500044,0 m 0,10 m 9.0000004,0 m 0,3 m 10.000004,0 m 0,-3 m 10,0 m 0,3 m 10,0 m 0,-3 m 10,0 m 0,3 m 9.999999,0 m 0,-3 m 10,0 m 0,3 m 10,0 m 0,-3 m 10,0 m 0,3 m 10.000001,0 m 0,-3 m 10,0 m 0,3 m 10,0 m 0,-3 m 10,0 m 0,3 m 10,0 m 0,-3 m 10,0 m 0,3 m 10,0 m 0,-3 m 10,0 m 0,3 m 10,0 m 0,-3 m 10,0 m 9.99999,0 m 0,3 m 10,0 m 0,-3 m 10.00001,0 m 0,3 m 10,0 m 0,-3 m 10,0 m 0,3 m 10,0 m 0,-3 m 10,0 m 0,3 m 10,0 m 0,-3 m 10,0 m 0,3 m 10,0 m 0,-3 m 10,0 m 0,3 m 10,0 m 0,-3 m 10,0 m 0,3 m 10,0 m 0,-3 m 7,0 m 0,-10 m 3,0 m 0,-10 m -3,0 m 0,-10 m 3,0 m 0,-10"
     inkscape:connector-curvature="0" />
  <path
     id="face0-cut-0"
     style="fill:none;stroke:#0000ff;stroke-width:1;stroke-linecap:round;stroke-linejoin:round;stroke-miterlimit:4;stroke-dasharray:none"
     d="m -3.6906685,-17.940866 0,9.9999997 50.2500095,0 33.75,30.0000003 m 254.999989,0 0,-10 -3,0 0,-10.0000003 3,0 0,-10 -3,0 0,-9.9999997 -6.99998,0 0,-3 -10.00001,0 0,3 -10.00001,0 0,-3 -9.99998,0 0,3 -10.00001,0 0,-3 -10,0 0,3 -10,0 0,-3 -10,0 0,3 -10,0 0,-3 -10,0 0,3 -10,0 0,-3 -10,0 0,3 -10.00001,0 0,-3 -10,0 0,3 -9.99999,0 -10,0 0,-3 -10,0 0,3 -10,0 0,-3 -10,0 0,3 -10,0 0,-3 -10,0 0,3 -10,0 0,-3 -10,0 0,3 -9.999999,0 0,-3 -10,0 0,3 -10.00001,0 0,-3 -10,0 0,3 -9.99999,0 0,-3 -10,0 0,3 -10,0 0,-3 -10,0 0,3 -10,0 0,-3 -10.0000095,0 0,3 -9,0"
     inkscape:connector-curvature="0" />
  <path
     id="face0-interior-2"
     style="fill:none;stroke:#ff0000;stroke-width:1;stroke-linecap:round;stroke-linejoin:round;stroke-miterlimit:4;stroke-dasharray:none"
     d="m -3.6906685,-17.940866 m 0,9.9999997 m 50.2500095,0 m 33.75,30.0000003 254.999989,0 m 0,-10 m -3,0 m 0,-10.0000003 m 3,0 m 0,-10 m -3,0 m 0,-9.9999997 m -6.99998,0 m 0,-3 m -10.00001,0 m 0,3 m -10.00001,0 m 0,-3 m -9.99998,0 m 0,3 m -10.00001,0 m 0,-3 m -10,0 m 0,3 m -10,0 m 0,-3 m -10,0 m 0,3 m -10,0 m 0,-3 m -10,0 m 0,3 m -10,0 m 0,-3 m -10,0 m 0,3 m -10.00001,0 m 0,-3 m -10,0 m 0,3 m -9.99999,0 m -10,0 m 0,-3 m -10,0 m 0,3 m -10,0 m 0,-3 m -10,0 m 0,3 m -10,0 m 0,-3 m -10,0 m 0,3 m -10,0 m 0,-3 m -10,0 m 0,3 m -9.999999,0 m 0,-3 m -10,0 m 0,3 m -10.00001,0 m 0,-3 m -10,0 m 0,3 m -9.99999,0 m 0,-3 m -10,0 m 0,3 m -10,0 m 0,-3 m -10,0 m 0,3 m -10,0 m 0,-3 m -10.0000095,0 m 0,3"
     inkscape:connector-curvature="0" />
  <path
     id="path10-4"
     style="fill:none;stroke:#00ff00;stroke-width:1;stroke-linecap:round;stroke-linejoin:round;stroke-miterlimit:4;stroke-dasharray:none"
     d="m -3.6906685,-17.940866 m 0,9.9999997 m 50.2500095,0 m 33.75,30.0000003 m 254.999989,0 m 0,-10 m -3,0 m 0,-10.0000003 m 3,0 m 0,-10 m -3,0 m 0,-9.9999997 m -6.99998,0 m 0,-3 m -10.00001,0 m 0,3 m -10.00001,0 m 0,-3 m -9.99998,0 m 0,3 m -10.00001,0 m 0,-3 m -10,0 m 0,3 m -10,0 m 0,-3 m -10,0 m 0,3 m -10,0 m 0,-3 m -10,0 m 0,3 m -10,0 m 0,-3 m -10,0 m 0,3 m -10.00001,0 m 0,-3 m -10,0 m 0,3 m -9.99999,0 m -10,0 m 0,-3 m -10,0 m 0,3 m -10,0 m 0,-3 m -10,0 m 0,3 m -10,0 m 0,-3 m -10,0 m 0,3 m -10,0 m 0,-3 m -10,0 m 0,3 m -9.999999,0 m 0,-3 m -10,0 m 0,3 m -10.00001,0 m 0,-3 m -10,0 m 0,3 m -9.99999,0 m 0,-3 m -10,0 m 0,3 m -10,0 m 0,-3 m -10,0 m 0,3 m -10,0 m 0,-3 m -10.0000095,0 m 0,3"
     inkscape:connector-curvature="0" />
</svg>
