<?xml version="1.0" encoding="UTF-8" standalone="no"?>
<svg
   xmlns:dc="http://purl.org/dc/elements/1.1/"
   xmlns:cc="http://creativecommons.org/ns#"
   xmlns:rdf="http://www.w3.org/1999/02/22-rdf-syntax-ns#"
   xmlns:svg="http://www.w3.org/2000/svg"
   xmlns="http://www.w3.org/2000/svg"
   xmlns:sodipodi="http://sodipodi.sourceforge.net/DTD/sodipodi-0.dtd"
   xmlns:inkscape="http://www.inkscape.org/namespaces/inkscape"
   width="24in"
   height="12in"
   viewBox="0 0 609.6 304.79999"
   version="1.1"
   id="svg2"
   inkscape:version="0.91 r13725"
   sodipodi:docname="Top_compartment_circle.svg">
  <metadata
     id="metadata18">
    <rdf:RDF>
      <cc:Work
         rdf:about="">
        <dc:format>image/svg+xml</dc:format>
        <dc:type
           rdf:resource="http://purl.org/dc/dcmitype/StillImage" />
        <dc:title></dc:title>
      </cc:Work>
    </rdf:RDF>
  </metadata>
  <defs
     id="defs16" />
  <sodipodi:namedview
     pagecolor="#ffffff"
     bordercolor="#666666"
     borderopacity="1"
     objecttolerance="10"
     gridtolerance="10"
     guidetolerance="10"
     inkscape:pageopacity="0"
     inkscape:pageshadow="2"
     inkscape:window-width="1366"
     inkscape:window-height="705"
     id="namedview14"
     showgrid="false"
     units="in"
     inkscape:zoom="0.14959102"
     inkscape:cx="919.75572"
     inkscape:cy="1346.9554"
     inkscape:window-x="-8"
     inkscape:window-y="-8"
     inkscape:window-maximized="1"
     inkscape:current-layer="svg2" />
  <desc
     id="desc4">Output from Flights of Ideas SVG Sketchup Plugin</desc>
  <path
     id="face0-cut"
     style="fill:none;stroke:#0000ff;stroke-width:1;stroke-linecap:round;stroke-linejoin:round;stroke-miterlimit:4;stroke-dasharray:none"
     d="m 583.90074,33.638889 0.35832,-7.27604 -9.85514,0 0,-10 -10,0 0,10 -10,0 0,-10 -10,0 0,10 -10,0 0,-5 0,-5 -10,0 0,10 -10,0 0,-10 -10,0 0,10 -10,0 0,-5 0,-5 -10,0 0,10 -10,0 0,-10 -10,0 0,10 -10,0 0,-10 -10,0 0,10 -10,0 0,-5 0,-5 -10,0 0,10 -10,0 0,-10 -10,0 0,10 -10,0 0,-5 0,-5 -10,0 0,10 -10,0 0,-10 -10,0 0,10 -10,0 0,-5 0,-5 -10,0 0,10 -10,0 0,-10 -10,0 0,10 -10,0 0,-10 -10,0 0,10 -10,0 0,-10 -9.85514,0 -0.12449,2.52781 0.15943,9.81443 0.80098,9.78299 1.43911,9.70965 2.07106,9.59475 2.69416,9.43875 3.30571,9.24233 3.90312,9.00634 4.4838,8.73178 5.04528,8.419831 5.58517,8.07183 6.10112,7.68925 6.59097,7.27376 7.05259,6.82712 7.48399,6.35124 7.88337,5.84816 8.24897,5.32005 8.57926,4.76914 8.87281,4.19783 9.12836,3.60853 9.34483,3.00377 9.52127,2.38617 9.65695,1.75833 9.75128,1.12298 9.80384,0.48281 9.81443,-0.15943 9.78299,-0.80098 9.70966,-1.43911 9.59475,-2.07106 9.43874,-2.69416 9.24234,-3.30571 9.00634,-3.90312 8.73178,-4.4838 8.41983,-5.04528 8.07183,-5.58517 7.68926,-6.10112 7.27376,-6.59097 6.82711,-7.05259 6.35124,-7.48399 5.84816,-7.88337 5.32005,-8.248971 4.76915,-8.57926 4.19782,-8.87281 3.60853,-9.12836 3.00377,-9.34483 2.38617,-9.52127 1.75833,-9.65695 1.12298,-9.75128"
     inkscape:connector-curvature="0" />
  <path
     id="face1-cut"
     style="fill:none;stroke:#0000ff;stroke-width:1;stroke-linecap:round;stroke-linejoin:round;stroke-miterlimit:4;stroke-dasharray:none"
     d="m 15.305398,165.07498 -0.35832,7.27604 9.85514,0 0,10 10,0 0,-10 10,0 0,10 10,0 0,-10 10,0 0,10 10.000001,0 0,-10 10,0 0,5 0,5 9.999999,0 0,-10 10.000002,0 0,10 10,0 0,-10 10,0 0,5 0,5 10,0 0,-10 10,0 0,10 10,0 0,-10 10,0 0,5 0,5 10,0 0,-10 9.99999,0 0,10 10,0 0,-10 10,0 0,10 10,0 0,-10 10,0 0,5 0,5 10,0 0,-10 10,0 0,10 10,0 0,-10 10,0 0,5 0,5 10,0 0,-10 10,0 0,10 10,0 0,-10 10,0 0,10 9.85514,0 0.12448,-2.52781 -0.15942,-9.81443 -0.80099,-9.78299 -1.4391,-9.70965 -2.07107,-9.59475 -2.69415,-9.43875 -3.30572,-9.24233 -3.90311,-9.00634 -4.4838,-8.73178 -5.04528,-8.419833 -5.58517,-8.07183 -6.10113,-7.68925 -6.59097,-7.27376 -7.05258,-6.82712 -7.484,-6.35124 -7.88336,-5.84816 -8.24897,-5.32004 -8.57926,-4.76915 -8.87281,-4.19782 -9.12836,-3.60853 -9.34483,-3.00378 -9.52128,-2.38616 -9.65695,-1.75834 -9.75126,-1.12298 -9.80385,-0.4828 -9.81443,0.15943 -9.78299,0.80098 -9.70965,1.4391 -9.59475,2.07107 -9.43875,2.69416 -9.24233,3.30571 -9.00634,3.90311 -8.731782,4.4838 -8.419829,5.04528 -8.07183,5.58517 -7.68926,6.10112 -7.273761,6.59097 -6.82711,7.05259 -6.35124,7.48399 -5.84817,7.88337 -5.32004,8.248973 -4.76915,8.57926 -4.19782,8.87281 -3.60853,9.12836 -3.00378,9.34482 -2.38616,9.52128 -1.75834,9.65695 -1.12297,9.75128"
     inkscape:connector-curvature="0" />
  <path
     id="face0-interior"
     style="fill:none;stroke:#ff0000;stroke-width:1;stroke-linecap:round;stroke-linejoin:round;stroke-miterlimit:4;stroke-dasharray:none"
     d="M 27.276039,-314.51125 M 20,-314.86957 m 0,9.85514 m -10,0 m 0,10 m 10,0 m 0,10 m -10,0 m 0,10 m 10,0 m 0,10 m -5,0 m -5,0 m 0,10 m 10,0 m 0,10 m -10,0 m 0,10 m 10,0 m 0,10 m -5,0 m -5,0 m 0,10 m 10,0 m 0,10 m -10,0 m 0,10 m 10,0 m 0,10 m -10,0 m 0,10 m 10,0 m 0,10 m -5,0 m -5,0 m 0,10 m 10,0 m 0,10 m -10,0 m 0,10 m 10,0 m 0,10 m -5,0 m -5,0 m 0,10 m 10,0 m 0,10 m -10,0 m 0,10.000003 m 10,0 m 0,10 m -5,0 m -5,0 m 0,10 m 10,0 m 0,10 m -10,0 m 0,10 m 10,0 m 0,10 m -10,0 m 0,10 m 10,0 m 0,10 m -10,0 m 0,9.85514 m 2.527804,0.12449 m 9.81443,-0.15943 m 9.78299,-0.80098 m 9.709656,-1.43911 m 9.594746,-2.07106 m 9.438748,-2.69416 m 9.242333,-3.30571 m 9.00634,-3.90312 m 8.731782,-4.4838 m 8.419831,-5.04528 m 8.07183,-5.58517 m 7.68925,-6.10112 m 7.27376,-6.59097 m 6.82712,-7.05259 m 6.35124,-7.48399 m 5.84816,-7.88337 m 5.32005,-8.24897 m 4.76914,-8.57926 m 4.19783,-8.872813 m 3.60853,-9.12836 m 3.00377,-9.34483 m 2.38617,-9.52127 m 1.75833,-9.65695 m 1.12298,-9.75128 m 0.48281,-9.80384 m -0.15943,-9.81443 m -0.80098,-9.78299 m -1.43911,-9.70966 m -2.07106,-9.59475 m -2.69416,-9.43874 m -3.30571,-9.24234 m -3.90312,-9.00634 m -4.4838,-8.73178 m -5.04528,-8.41983 m -5.58517,-8.07183 m -6.10112,-7.68926 m -6.59097,-7.27376 m -7.05259,-6.82711 m -7.48399,-6.35124 m -7.88337,-5.84816 m -8.248973,-5.32005 m -8.57926,-4.76915 m -8.872808,-4.19782 M 65.550367,-306.24 m -9.344826,-3.00377 m -9.521274,-2.38617 m -9.656952,-1.75833"
     inkscape:connector-curvature="0" />
  <path
     id="face1-interior"
     style="fill:none;stroke:#ff0000;stroke-width:1;stroke-linecap:round;stroke-linejoin:round;stroke-miterlimit:4;stroke-dasharray:none"
     d="m 147.70359,294.44164 m 7.27604,0.35832 m 0,-9.85514 m 10,0 m 0,-10 m -10,0 m 0,-10 m 10,0 m 0,-10 m -10,0 m 0,-10 m 10,0 m 0,-10 m -10,0 m 0,-10 m 5,0 m 5,0 m 0,-10 m -10,0 m 0,-10 m 10,0 m 0,-10 m -10,0 m 0,-10 m 5,0 m 5,0 m 0,-10 m -10,0 m 0,-10 m 10,0 m 0,-10 m -10,0 m 0,-10 m 5,0 m 5,0 m 0,-10 m -10,0 m 0,-10 m 10,0 m 0,-10 m -10,0 m 0,-10 m 10,0 m 0,-10.000001 m -10,0 m 0,-10 m 5,0 m 5,0 m 0,-10 m -10,0 m 0,-10 m 10,0 m 0,-10 m -10,0 m 0,-10 m 5,0 m 5,0 m 0,-10 m -10,0 m 0,-10 m 10,0 m 0,-10 m -10,0 m 0,-10.0000003 m 10,0 m 0,-9.85514 m -2.52781,-0.12448 m -9.81443,0.15942 m -9.78299,0.80099 m -9.70965,1.4391 M 123.55,-0.56422133 m -9.43875,2.69415003 m -9.24233,3.30572 m -9.006341,3.90311 m -8.731782,4.4838003 m -8.419831,5.04528 m -8.071827,5.58517 m -7.689257,6.10113 m -7.27376,6.59097 m -6.827117,7.05258 m -6.351239,7.484 m -5.848163,7.88336 m -5.320045,8.24897 m -4.769146,8.57926 m -4.197824,8.87281 m -3.608527,9.12836 m -3.003778,9.344831 m -2.386165,9.52128 m -1.758335,9.65695 m -1.122976,9.75127 M 10,142.47263 m 0.159429,9.81443 m 0.800981,9.78299 m 1.439105,9.70965 m 2.071066,9.59475 m 2.694157,9.43875 m 3.305713,9.24233 m 3.903112,9.00634 m 4.483799,8.73178 m 5.045284,8.41983 m 5.585165,8.07183 m 6.10113,7.68926 m 6.590968,7.27376 m 7.052583,6.82711 m 7.483998,6.35124 m 7.883365,5.84817 m 8.248974,5.32004 m 8.57926,4.76915 m 8.872811,4.19782 m 9.12836,3.60853 m 9.34482,3.00378 m 9.52128,2.38616 m 9.65695,1.75834"
     inkscape:connector-curvature="0" />
  <path
     id="path10"
     style="fill:none;stroke:#00ff00;stroke-width:1;stroke-linecap:round;stroke-linejoin:round;stroke-miterlimit:4;stroke-dasharray:none"
     d="M 27.276039,-314.51125 M 20,-314.86957 m 0,9.85514 m -10,0 m 0,10 m 10,0 m 0,10 m -10,0 m 0,10 m 10,0 m 0,10 m -5,0 m -5,0 m 0,10 m 10,0 m 0,10 m -10,0 m 0,10 m 10,0 m 0,10 m -5,0 m -5,0 m 0,10 m 10,0 m 0,10 m -10,0 m 0,10 m 10,0 m 0,10 m -10,0 m 0,10 m 10,0 m 0,10 m -5,0 m -5,0 m 0,10 m 10,0 m 0,10 m -10,0 m 0,10 m 10,0 m 0,10 m -5,0 m -5,0 m 0,10 m 10,0 m 0,10 m -10,0 m 0,10.000003 m 10,0 m 0,10 m -5,0 m -5,0 m 0,10 m 10,0 m 0,10 m -10,0 m 0,10 m 10,0 m 0,10 m -10,0 m 0,10 m 10,0 m 0,10 m -10,0 m 0,9.85514 m 2.527804,0.12449 m 9.81443,-0.15943 m 9.78299,-0.80098 m 9.709656,-1.43911 m 9.594746,-2.07106 m 9.438748,-2.69416 m 9.242333,-3.30571 m 9.00634,-3.90312 m 8.731782,-4.4838 m 8.419831,-5.04528 m 8.07183,-5.58517 m 7.68925,-6.10112 m 7.27376,-6.59097 m 6.82712,-7.05259 m 6.35124,-7.48399 m 5.84816,-7.88337 m 5.32005,-8.24897 m 4.76914,-8.57926 m 4.19783,-8.872813 m 3.60853,-9.12836 m 3.00377,-9.34483 m 2.38617,-9.52127 m 1.75833,-9.65695 m 1.12298,-9.75128 m 0.48281,-9.80384 m -0.15943,-9.81443 m -0.80098,-9.78299 m -1.43911,-9.70966 m -2.07106,-9.59475 m -2.69416,-9.43874 m -3.30571,-9.24234 m -3.90312,-9.00634 m -4.4838,-8.73178 m -5.04528,-8.41983 m -5.58517,-8.07183 m -6.10112,-7.68926 m -6.59097,-7.27376 m -7.05259,-6.82711 m -7.48399,-6.35124 m -7.88337,-5.84816 m -8.248973,-5.32005 m -8.57926,-4.76915 m -8.872808,-4.19782 M 65.550367,-306.24 m -9.344826,-3.00377 m -9.521274,-2.38617 m -9.656952,-1.75833"
     inkscape:connector-curvature="0" />
  <path
     id="path12"
     style="fill:none;stroke:#00ff00;stroke-width:1;stroke-linecap:round;stroke-linejoin:round;stroke-miterlimit:4;stroke-dasharray:none"
     d="m 147.70359,294.44164 m 7.27604,0.35832 m 0,-9.85514 m 10,0 m 0,-10 m -10,0 m 0,-10 m 10,0 m 0,-10 m -10,0 m 0,-10 m 10,0 m 0,-10 m -10,0 m 0,-10 m 5,0 m 5,0 m 0,-10 m -10,0 m 0,-10 m 10,0 m 0,-10 m -10,0 m 0,-10 m 5,0 m 5,0 m 0,-10 m -10,0 m 0,-10 m 10,0 m 0,-10 m -10,0 m 0,-10 m 5,0 m 5,0 m 0,-10 m -10,0 m 0,-10 m 10,0 m 0,-10 m -10,0 m 0,-10 m 10,0 m 0,-10.000001 m -10,0 m 0,-10 m 5,0 m 5,0 m 0,-10 m -10,0 m 0,-10 m 10,0 m 0,-10 m -10,0 m 0,-10 m 5,0 m 5,0 m 0,-10 m -10,0 m 0,-10 m 10,0 m 0,-10 m -10,0 m 0,-10.0000003 m 10,0 m 0,-9.85514 m -2.52781,-0.12448 m -9.81443,0.15942 m -9.78299,0.80099 m -9.70965,1.4391 M 123.55,-0.56422133 m -9.43875,2.69415003 m -9.24233,3.30572 m -9.006341,3.90311 m -8.731782,4.4838003 m -8.419831,5.04528 m -8.071827,5.58517 m -7.689257,6.10113 m -7.27376,6.59097 m -6.827117,7.05258 m -6.351239,7.484 m -5.848163,7.88336 m -5.320045,8.24897 m -4.769146,8.57926 m -4.197824,8.87281 m -3.608527,9.12836 m -3.003778,9.344831 m -2.386165,9.52128 m -1.758335,9.65695 m -1.122976,9.75127 M 10,142.47263 m 0.159429,9.81443 m 0.800981,9.78299 m 1.439105,9.70965 m 2.071066,9.59475 m 2.694157,9.43875 m 3.305713,9.24233 m 3.903112,9.00634 m 4.483799,8.73178 m 5.045284,8.41983 m 5.585165,8.07183 m 6.10113,7.68926 m 6.590968,7.27376 m 7.052583,6.82711 m 7.483998,6.35124 m 7.883365,5.84817 m 8.248974,5.32004 m 8.57926,4.76915 m 8.872811,4.19782 m 9.12836,3.60853 m 9.34482,3.00378 m 9.52128,2.38616 m 9.65695,1.75834"
     inkscape:connector-curvature="0" />
</svg>
