<?xml version="1.0" encoding="UTF-8" standalone="no"?>
<svg
   xmlns:dc="http://purl.org/dc/elements/1.1/"
   xmlns:cc="http://creativecommons.org/ns#"
   xmlns:rdf="http://www.w3.org/1999/02/22-rdf-syntax-ns#"
   xmlns:svg="http://www.w3.org/2000/svg"
   xmlns="http://www.w3.org/2000/svg"
   xmlns:sodipodi="http://sodipodi.sourceforge.net/DTD/sodipodi-0.dtd"
   xmlns:inkscape="http://www.inkscape.org/namespaces/inkscape"
   width="24in"
   height="12in"
   viewBox="0 0 609.59997 304.8"
   version="1.1"
   id="svg2"
   inkscape:version="0.91 r13725"
   sodipodi:docname="Top_compartment_sides_recut.svg">
  <metadata
     id="metadata18">
    <rdf:RDF>
      <cc:Work
         rdf:about="">
        <dc:format>image/svg+xml</dc:format>
        <dc:type
           rdf:resource="http://purl.org/dc/dcmitype/StillImage" />
        <dc:title></dc:title>
      </cc:Work>
    </rdf:RDF>
  </metadata>
  <defs
     id="defs16" />
  <sodipodi:namedview
     pagecolor="#ffffff"
     bordercolor="#666666"
     borderopacity="1"
     objecttolerance="10"
     gridtolerance="10"
     guidetolerance="10"
     inkscape:pageopacity="0"
     inkscape:pageshadow="2"
     inkscape:window-width="1366"
     inkscape:window-height="705"
     id="namedview14"
     showgrid="false"
     units="in"
     inkscape:zoom="0.15051495"
     inkscape:cx="248.0315"
     inkscape:cy="682.77484"
     inkscape:window-x="-8"
     inkscape:window-y="-8"
     inkscape:window-maximized="1"
     inkscape:current-layer="svg2" />
  <desc
     id="desc4">Output from Flights of Ideas SVG Sketchup Plugin</desc>
  <path
     id="face0-cut"
     style="fill:none;stroke:#0000ff;stroke-width:1;stroke-linecap:round;stroke-linejoin:round;stroke-miterlimit:4;stroke-dasharray:none"
     d="m 16.24849,14.169536 0,42.00001 6,0 0,3 -6,0 0,40.000002 0,0.65264 0.17037,0.641452 0.21023,0.61932 0.28927,0.58659 0.36336,0.5438 0.43123,0.49173 0.49173,0.43123 0.54381,0.36336 0.58658,0.28927 0.61932,0.21023 0.64147,0.1276 0.65263,0.0428 42.249996,0 0.802116,0.0186 0.393289,-0.0186 0.40815,-0.0193 0.796807,-0.094 0.788244,-0.14968 0.77579,-0.20466 0.759508,-0.25861 0.739477,-0.3113 0.715799,-0.36245 0.688586,-0.4118 0.657977,-0.45913 0.317846,-0.25677 0.306274,-0.24742 0.587183,-0.54676 30.012958,-26.678184 5.51049,0 m 239.4895,0 0.6563,-0.0327 0.64607,-0.11992 0.62432,-0.20501 0.59139,-0.28642 0.54793,-0.36274 0.49465,-0.43255 0.43256,-0.49466 0.36273,-0.54792 0.28643,-0.5914 0.20501,-0.62432 0.11992,-0.64607 0.0327,-0.65629 0,-55.00001 -27.50537,0 0,10.16385 -0.12741,0.64008 -0.28873,0.58528 -0.43038,0.49062 -0.54269,0.36251 -0.61803,0.20969 -0.65124,0.0426 -0.64007,-0.12741 -0.58529,-0.28873 -0.49061,-0.43038 -0.36251,-0.54269 -0.2097,-0.61802 -0.0319,-0.4874 -0.0107,-0.16384 0.0107,-9.83616 -303.51609,0 m 86,42.00001 0,3 -10.000004,0 0,-3 10.000004,0 m -20.000004,3 -10,0 0,-3 10,0 0,3 m -39.999996,0 -10,0 0,-3 10,0 0,3 m 19.999996,0 -9.999996,0 0,-3 9.999996,0 0,3 m 60.000004,0 -10,0 0,-3 10,0 0,3 m 20,0 -10,0 0,-3 10,0 0,3 m 20,0 -10,0 0,-3 10,0 0,3 m 20,0 -10,0 0,-3 10,0 0,3 m 20,0 -10,0 0,-3 10,0 0,3 m 20,0 -10,0 0,-3 10,0 0,3 m 20,0 -10,0 0,-3 10,0 0,3 m 19.99999,0 -9.99999,0 0,-3 9.99999,0 0,3 m 20,0 -10,0 0,-3 10,0 0,3 m 20,0 -10,0 0,-3 10,0 0,3 m 20,0 -10,0 0,-3 10,0 0,3 m 20,0 -10,0 0,-3 10,0 0,3"
     inkscape:connector-curvature="0" />
  <path
     id="face1-cut"
     style="fill:none;stroke:#0000ff;stroke-width:1;stroke-linecap:round;stroke-linejoin:round;stroke-miterlimit:4;stroke-dasharray:none"
     d="m 438.75897,134.16955 0,-42.000002 -6,0 0,-3.000002 6,0 0,-40 -0.0428,-0.65264 -0.1276,-0.64146 -0.21023,-0.61932 -0.28927,-0.58658 -0.36336,-0.54381 -0.43123,-0.49173 -0.49173,-0.43123 -0.54381,-0.36336 -0.58658,-0.28927 -0.61932,-0.21023 -0.64147,-0.1276 -0.65263,-0.0428 -42.25,0 -0.80211,-0.0185 -0.39329,0.0185 -0.40815,0.0193 -0.79681,0.094 -0.78824,0.14968 -0.77579,0.20466 -0.75951,0.25861 -0.73948,0.3113 -0.7158,0.36245 -0.68858,0.4118 -0.65798,0.45913 -0.31785,0.25677 -0.30627,0.24742 -0.58718,0.54676 -30.01296,26.67819 -5.51049,0 m -239.4895,0 -0.6563,0.0327 -0.64607,0.11992 -0.62432,0.20501 -0.59139,0.28643 -0.54793,0.36273 -0.49465,0.43256 -0.43256,0.49465 -0.36273,0.54792 -0.28643,0.5914 -0.20501,0.62432 -0.11992,0.64607 -0.0327,0.6563 0,55.000004 27.50538,0 0,-10.16385 0.12741,-0.64008 0.28873,-0.58528 0.43038,-0.49062 0.54269,-0.36251 0.61802,-0.20969 0.65124,-0.0426 0.64007,0.12741 0.58529,0.28873 0.49062,0.43038 0.36251,0.54269 0.20969,0.61803 0.0319,0.48739 0.0107,0.16384 -0.0107,9.83616 303.51609,0 m -86,-42.000002 0,-3.000002 10,0 0,3.000002 -10,0 m 20,-3.000002 10,0 0,3.000002 -10,0 0,-3.000002 m 40,0 10,0 0,3.000002 -10,0 0,-3.000002 m -20,0 10,0 0,3.000002 -10,0 0,-3.000002 m -60,0 10,0 0,3.000002 -10,0 0,-3.000002 m -20,0 10,0 0,3.000002 -10,0 0,-3.000002 m -20,0 10,0 0,3.000002 -10,0 0,-3.000002 m -20,0 10,0 0,3.000002 -10,0 0,-3.000002 m -20,0 10,0 0,3.000002 -10,0 0,-3.000002 m -20,0 10,0 0,3.000002 -10,0 0,-3.000002 m -20,0 10,0 0,3.000002 -10,0 0,-3.000002 m -20,0 10,0 0,3.000002 -10,0 0,-3.000002 m -20,0 10,0 0,3.000002 -10,0 0,-3.000002 m -20,0 10,0 0,3.000002 -10,0 0,-3.000002 m -20,0 10,0 0,3.000002 -10,0 0,-3.000002 m -20,0 10,0 0,3.000002 -10,0 0,-3.000002"
     inkscape:connector-curvature="0" />
  <path
     id="face0-interior"
     style="fill:none;stroke:#ff0000;stroke-width:1;stroke-linecap:round;stroke-linejoin:round;stroke-miterlimit:4;stroke-dasharray:none"
     d="m 16.24849,14.169536 m 0,42.00001 m 6,0 m 0,3 m -6,0 m 0,40.000002 m 0,0.65264 m 0.17037,0.641452 m 0.21023,0.61932 m 0.28927,0.58659 m 0.36336,0.5438 m 0.43123,0.49173 m 0.49173,0.43123 m 0.54381,0.36336 m 0.58658,0.28927 m 0.61932,0.21023 m 0.64147,0.1276 m 0.65263,0.0428 m 42.249996,0 m 0.802116,0.0186 m 0.393289,-0.0186 m 0.40815,-0.0193 m 0.796807,-0.094 m 0.788244,-0.14968 m 0.77579,-0.20466 m 0.759508,-0.25861 m 0.739477,-0.3113 m 0.715799,-0.36245 m 0.688586,-0.4118 m 0.657977,-0.45913 m 0.317846,-0.25677 m 0.306274,-0.24742 m 0.587183,-0.54676 M 102.24849,74.169506 m 5.51049,0 239.4895,0 m 0.6563,-0.0327 m 0.64607,-0.11992 m 0.62432,-0.20501 m 0.59139,-0.28642 m 0.54793,-0.36274 m 0.49465,-0.43255 m 0.43256,-0.49466 m 0.36273,-0.54792 m 0.28643,-0.5914 m 0.20501,-0.62432 m 0.11992,-0.64607 m 0.0327,-0.65629 m 0,-55.00001 m -27.50537,0 m 0,10.16385 m -0.12741,0.64008 m -0.28873,0.58528 m -0.43038,0.49062 m -0.54269,0.36251 m -0.61803,0.20969 m -0.65124,0.0426 m -0.64007,-0.12741 m -0.58529,-0.28873 m -0.49061,-0.43038 m -0.36251,-0.54269 m -0.2097,-0.61802 m -0.0319,-0.4874 m -0.0107,-0.16384 m 0.0107,-9.83616 m -217.51609,42.00001 m 0,3 m -10.000004,0 m 0,-3 m -10,3 m -10,0 m 0,-3 m 10,0 m -39.999996,3 m -10,0 m 0,-3 m 10,0 m 19.999996,3 m -9.999996,0 m 0,-3 m 9.999996,0 m 60.000004,3 m -10,0 m 0,-3 m 10,0 m 20,3 m -10,0 m 0,-3 m 10,0 m 20,3 m -10,0 m 0,-3 m 10,0 m 20,3 m -10,0 m 0,-3 m 10,0 m 20,3 m -10,0 m 0,-3 m 10,0 m 20,3 m -10,0 m 0,-3 m 10,0 m 20,3 m -10,0 m 0,-3 m 10,0 m 19.99999,3 m -9.99999,0 m 0,-3 m 9.99999,0 m 20,3 m -10,0 m 0,-3 m 10,0 m 20,3 m -10,0 m 0,-3 m 10,0 m 20,3 m -10,0 m 0,-3 m 10,0 m 20,3 m -10,0 m 0,-3 m 10,0"
     inkscape:connector-curvature="0" />
  <path
     id="face1-interior"
     style="fill:none;stroke:#ff0000;stroke-width:1;stroke-linecap:round;stroke-linejoin:round;stroke-miterlimit:4;stroke-dasharray:none"
     d="m 438.75897,134.16955 m 0,-42.000002 m -6,0 m 0,-3.000002 m 6,0 m 0,-40 m -0.0428,-0.65264 m -0.1276,-0.64146 m -0.21023,-0.61932 m -0.28927,-0.58658 m -0.36336,-0.54381 m -0.43123,-0.49173 m -0.49173,-0.43123 m -0.54381,-0.36336 m -0.58658,-0.28927 m -0.61932,-0.21023 m -0.64147,-0.1276 m -0.65263,-0.0428 m -42.25,0 m -0.80211,-0.0185 m -0.39329,0.0185 m -0.40815,0.0193 m -0.79681,0.094 m -0.78824,0.14968 m -0.77579,0.20466 m -0.75951,0.25861 m -0.73948,0.3113 m -0.7158,0.36245 m -0.68858,0.4118 m -0.65798,0.45913 m -0.31785,0.25677 m -0.30627,0.24742 m -0.58718,0.54676 m -30.01296,26.67819 m -5.51049,0 m -239.4895,0 m -0.6563,0.0327 m -0.64607,0.11992 m -0.62432,0.20501 m -0.59139,0.28643 m -0.54793,0.36273 m -0.49465,0.43256 m -0.43256,0.49465 m -0.36273,0.54792 m -0.28643,0.5914 m -0.20501,0.62432 m -0.11992,0.64607 m -0.0327,0.6563 m 0,55.000004 m 27.50538,0 m 0,-10.16385 m 0.12741,-0.64008 m 0.28873,-0.58528 m 0.43038,-0.49062 m 0.54269,-0.36251 m 0.61802,-0.20969 m 0.65124,-0.0426 m 0.64007,0.12741 m 0.58529,0.28873 m 0.49062,0.43038 m 0.36251,0.54269 m 0.20969,0.61803 m 0.0319,0.48739 m 0.0107,0.16384 m -0.0107,9.83616 M 352.75894,92.169598 m 0,-3.000002 m 10,0 m 0,3.000002 m 10,-3.000002 m 10,0 m 0,3.000002 m -10,0 m 40,-3.000002 m 10,0 m 0,3.000002 m -10,0 m -20,-3.000002 m 10,0 m 0,3.000002 m -10,0 m -60,-3.000002 m 10,0 m 0,3.000002 m -10,0 m -20,-3.000002 m 10,0 m 0,3.000002 m -10,0 m -20,-3.000002 m 10,0 m 0,3.000002 m -10,0 m -20,-3.000002 m 10,0 m 0,3.000002 m -10,0 m -20,-3.000002 m 10,0 m 0,3.000002 m -10,0 m -20,-3.000002 m 10,0 m 0,3.000002 m -10,0 m -20,-3.000002 m 10,0 m 0,3.000002 m -10,0 m -20,-3.000002 m 10,0 m 0,3.000002 m -10,0 m -20,-3.000002 m 10,0 m 0,3.000002 m -10,0 m -20,-3.000002 m 10,0 m 0,3.000002 m -10,0 m -20,-3.000002 m 10,0 m 0,3.000002 m -10,0 m -20,-3.000002 m 10,0 m 0,3.000002 m -10,0"
     inkscape:connector-curvature="0" />
  <path
     id="path10"
     style="fill:none;stroke:#00ff00;stroke-width:1;stroke-linecap:round;stroke-linejoin:round;stroke-miterlimit:4;stroke-dasharray:none"
     d="m 16.24849,14.169536 m 0,42.00001 m 6,0 m 0,3 m -6,0 m 0,40.000002 m 0,0.65264 m 0.17037,0.641452 m 0.21023,0.61932 m 0.28927,0.58659 m 0.36336,0.5438 m 0.43123,0.49173 m 0.49173,0.43123 m 0.54381,0.36336 m 0.58658,0.28927 m 0.61932,0.21023 m 0.64147,0.1276 m 0.65263,0.0428 m 42.249996,0 m 0.802116,0.0186 m 0.393289,-0.0186 m 0.40815,-0.0193 m 0.796807,-0.094 m 0.788244,-0.14968 m 0.77579,-0.20466 m 0.759508,-0.25861 m 0.739477,-0.3113 m 0.715799,-0.36245 m 0.688586,-0.4118 m 0.657977,-0.45913 m 0.317846,-0.25677 m 0.306274,-0.24742 m 0.587183,-0.54676 M 102.24849,74.169506 m 5.51049,0 m 239.4895,0 m 0.6563,-0.0327 m 0.64607,-0.11992 m 0.62432,-0.20501 m 0.59139,-0.28642 m 0.54793,-0.36274 m 0.49465,-0.43255 m 0.43256,-0.49466 m 0.36273,-0.54792 m 0.28643,-0.5914 m 0.20501,-0.62432 m 0.11992,-0.64607 m 0.0327,-0.65629 m 0,-55.00001 m -27.50537,0 m 0,10.16385 m -0.12741,0.64008 m -0.28873,0.58528 m -0.43038,0.49062 m -0.54269,0.36251 m -0.61803,0.20969 m -0.65124,0.0426 m -0.64007,-0.12741 m -0.58529,-0.28873 m -0.49061,-0.43038 m -0.36251,-0.54269 m -0.2097,-0.61802 m -0.0319,-0.4874 m -0.0107,-0.16384 m 0.0107,-9.83616 m -217.51609,42.00001 m 0,3 m -10.000004,0 m 0,-3 m -10,3 m -10,0 m 0,-3 m 10,0 m -39.999996,3 m -10,0 m 0,-3 m 10,0 m 19.999996,3 m -9.999996,0 m 0,-3 m 9.999996,0 m 60.000004,3 m -10,0 m 0,-3 m 10,0 m 20,3 m -10,0 m 0,-3 m 10,0 m 20,3 m -10,0 m 0,-3 m 10,0 m 20,3 m -10,0 m 0,-3 m 10,0 m 20,3 m -10,0 m 0,-3 m 10,0 m 20,3 m -10,0 m 0,-3 m 10,0 m 20,3 m -10,0 m 0,-3 m 10,0 m 19.99999,3 m -9.99999,0 m 0,-3 m 9.99999,0 m 20,3 m -10,0 m 0,-3 m 10,0 m 20,3 m -10,0 m 0,-3 m 10,0 m 20,3 m -10,0 m 0,-3 m 10,0 m 20,3 m -10,0 m 0,-3 m 10,0"
     inkscape:connector-curvature="0" />
  <path
     id="path12"
     style="fill:none;stroke:#00ff00;stroke-width:1;stroke-linecap:round;stroke-linejoin:round;stroke-miterlimit:4;stroke-dasharray:none"
     d="m 438.75897,134.16955 m 0,-42.000002 m -6,0 m 0,-3.000002 m 6,0 m 0,-40 m -0.0428,-0.65264 m -0.1276,-0.64146 m -0.21023,-0.61932 m -0.28927,-0.58658 m -0.36336,-0.54381 m -0.43123,-0.49173 m -0.49173,-0.43123 m -0.54381,-0.36336 m -0.58658,-0.28927 m -0.61932,-0.21023 m -0.64147,-0.1276 m -0.65263,-0.0428 m -42.25,0 m -0.80211,-0.0185 m -0.39329,0.0185 m -0.40815,0.0193 m -0.79681,0.094 m -0.78824,0.14968 m -0.77579,0.20466 m -0.75951,0.25861 m -0.73948,0.3113 m -0.7158,0.36245 m -0.68858,0.4118 m -0.65798,0.45913 m -0.31785,0.25677 m -0.30627,0.24742 m -0.58718,0.54676 m -30.01296,26.67819 m -5.51049,0 m -239.4895,0 m -0.6563,0.0327 m -0.64607,0.11992 m -0.62432,0.20501 m -0.59139,0.28643 m -0.54793,0.36273 m -0.49465,0.43256 m -0.43256,0.49465 m -0.36273,0.54792 m -0.28643,0.5914 m -0.20501,0.62432 m -0.11992,0.64607 m -0.0327,0.6563 m 0,55.000004 m 27.50538,0 m 0,-10.16385 m 0.12741,-0.64008 m 0.28873,-0.58528 m 0.43038,-0.49062 m 0.54269,-0.36251 m 0.61802,-0.20969 m 0.65124,-0.0426 m 0.64007,0.12741 m 0.58529,0.28873 m 0.49062,0.43038 m 0.36251,0.54269 m 0.20969,0.61803 m 0.0319,0.48739 m 0.0107,0.16384 m -0.0107,9.83616 M 352.75894,92.169598 m 0,-3.000002 m 10,0 m 0,3.000002 m 10,-3.000002 m 10,0 m 0,3.000002 m -10,0 m 40,-3.000002 m 10,0 m 0,3.000002 m -10,0 m -20,-3.000002 m 10,0 m 0,3.000002 m -10,0 m -60,-3.000002 m 10,0 m 0,3.000002 m -10,0 m -20,-3.000002 m 10,0 m 0,3.000002 m -10,0 m -20,-3.000002 m 10,0 m 0,3.000002 m -10,0 m -20,-3.000002 m 10,0 m 0,3.000002 m -10,0 m -20,-3.000002 m 10,0 m 0,3.000002 m -10,0 m -20,-3.000002 m 10,0 m 0,3.000002 m -10,0 m -20,-3.000002 m 10,0 m 0,3.000002 m -10,0 m -20,-3.000002 m 10,0 m 0,3.000002 m -10,0 m -20,-3.000002 m 10,0 m 0,3.000002 m -10,0 m -20,-3.000002 m 10,0 m 0,3.000002 m -10,0 m -20,-3.000002 m 10,0 m 0,3.000002 m -10,0 m -20,-3.000002 m 10,0 m 0,3.000002 m -10,0"
     inkscape:connector-curvature="0" />
</svg>
