<?xml version="1.0" standalone="no"?>
<!DOCTYPE svg PUBLIC "-//W3C//DTD SVG 1.1//EN" "http://www.w3.org/Graphics/SVG/1.1/DTD/svg11.dtd">
<svg width="197.0000000000009mm" height="830.0000000000032mm"
 viewBox="0 0 197.0000000000009 830.0000000000032"
 xmlns="http://www.w3.org/2000/svg" version="1.1"
 xmlns:xlink="http://www.w3.org/1999/xlink">
<desc>Output from Flights of Ideas SVG Sketchup Plugin</desc>

  <path id="face0-cut"
 style="fill:none;stroke:#0000FF;stroke-width:1;stroke-miterlimit:4;stroke-dasharray:none;stroke-linejoin:round;stroke-linecap:round"
        d="M 25.0,13.000000000001023 L 15.0,13.000000000001023 L 15.0,25.000000000001194 L 10.0,25.000000000001194 L 10.0,35.00000000000034 L 20.0,35.00000000000034 L 20.0,45.000000000000966 L 10.0,45.000000000000966 L 10.0,55.000000000000114 L 20.0,55.000000000000114 L 20.0,65.00000000000074 L 10.0,65.00000000000074 L 10.0,75.00000000000136 L 20.0,75.00000000000136 L 20.0,85.00000000000051 L 10.0,85.00000000000051 L 10.0,95.00000000000114 L 20.0,95.00000000000114 L 20.0,105.00000000000176 L 10.0,105.00000000000176 L 10.0,115.00000000000091 L 20.0,115.00000000000091 L 20.0,125.00000000000153 L 10.0,125.00000000000153 L 10.0,135.00000000000068 L 20.0,135.00000000000068 L 20.0,145.0000000000013 L 10.0,145.0000000000013 L 10.0,155.00000000000193 L 20.0,155.00000000000193 L 20.0,165.00000000000108 L 10.0,165.00000000000108 L 10.0,175.0000000000017 L 20.0,175.0000000000017 L 20.0,185.00000000000233 L 10.0,185.00000000000233 L 10.0,195.00000000000148 L 20.0,195.00000000000148 L 20.0,205.0000000000021 L 10.0,205.0000000000021 L 10.0,215.00000000000128 L 20.0,215.00000000000128 L 20.0,225.00000000000188 L 10.0,225.00000000000188 L 10.0,235.00000000000244 L 20.0,235.00000000000244 L 20.0,245.00000000000168 L 10.0,245.00000000000168 L 10.0,255.00000000000225 L 20.0,255.00000000000225 L 20.0,265.0000000000029 L 10.0,265.0000000000029 L 10.0,275.00000000000205 L 20.0,275.00000000000205 L 20.0,285.0000000000026 L 10.0,285.0000000000026 L 10.0,295.0000000000018 L 20.0,295.0000000000018 L 20.0,305.00000000000244 L 10.0,305.00000000000244 L 10.0,315.00000000000307 L 20.0,315.0000000000031 L 20.0,325.0000000000023 L 10.0,325.0000000000023 L 10.0,335.00000000000284 L 20.0,335.00000000000284 L 20.0,345.00000000000347 L 10.0,345.00000000000347 L 10.0,355.0000000000026 L 20.0,355.0000000000026 L 20.0,365.0000000000033 L 10.0,365.0000000000033 L 10.0,375.00000000000244 L 20.0,375.00000000000244 L 20.0,385.000000000003 L 10.0,385.000000000003 L 10.0,395.00000000000364 L 15.0,395.0000000000037 L 15.0,407.00000000000233 L 24.99999999999909,407.0000000000024 L 24.99999999999909,410.0000000000017 L 45.0,410.0000000000017 L 44.99999999999909,407.0000000000024 L 54.99999999999909,407.0000000000024 L 55.0,410.00000000000165 L 64.99999999999909,410.0000000000017 L 65.0,407.0000000000024 L 75.0,407.0000000000024 L 75.0,410.0000000000017 L 84.99999999999909,410.0000000000017 L 84.99999999999909,407.0000000000024 L 94.99999999999909,407.0000000000024 L 94.99999999999909,410.0000000000017 L 104.99999999999909,410.0000000000017 L 104.99999999999909,407.0000000000009 L 114.99999999999909,407.00000000000097 L 114.99999999999909,410.00000000000165 L 124.99999999999909,410.0000000000017 L 125.0,407.0000000000009 L 134.9999999999991,407.0000000000009 L 134.9999999999991,410.0000000000017 L 145.0,410.00000000000165 L 145.0,407.0000000000009 L 154.9999999999991,407.0000000000009 L 154.9999999999991,410.0000000000017 L 164.9999999999991,410.0000000000017 L 164.9999999999991,407.00000000000085 L 174.9999999999991,407.00000000000097 L 174.9999999999991,410.0000000000017 L 184.99999999999818,410.0000000000017 L 185.0,400.0000000000011 L 182.0000000000009,400.0000000000011 L 182.0,390.00000000000057 L 185.0,390.00000000000045 L 185.0000000000009,380.00000000000125 L 182.0000000000009,380.0000000000013 L 182.0000000000009,370.0000000000007 L 185.0,370.0000000000006 L 184.9999999999991,360.0000000000015 L 182.0,360.0000000000015 L 182.0,350.00000000000085 L 185.0,350.0000000000009 L 185.0,340.0000000000017 L 182.0,340.00000000000176 L 182.0,330.00000000000114 L 185.0,330.00000000000114 L 185.0,320.0000000000005 L 182.0000000000009,320.0000000000019 L 182.0,310.0000000000013 L 184.9999999999991,310.0000000000013 L 185.0,300.0000000000007 L 182.0000000000009,300.0000000000007 L 182.0,290.0000000000016 L 185.0,290.00000000000153 L 185.0,280.0000000000009 L 182.0000000000009,280.0000000000009 L 182.0,270.00000000000176 L 185.0,270.00000000000176 L 185.0,260.00000000000114 L 182.0,260.0000000000012 L 182.0000000000009,250.00000000000196 L 185.0,250.00000000000196 L 185.0,240.00000000000136 L 182.0000000000009,240.0000000000013 L 182.0,230.00000000000074 L 185.0,230.0000000000008 L 185.0,220.0000000000016 L 182.0000000000009,220.0000000000016 L 182.0000000000009,200.0000000000018 L 185.0,200.0000000000018 L 184.9999999999991,190.0000000000012 L 182.0,190.0000000000012 L 182.0000000000009,180.00000000000196 L 185.0,180.00000000000202 L 185.0,170.00000000000145 L 182.0000000000009,170.00000000000145 L 182.0000000000009,160.0000000000008 L 185.0,160.0000000000008 L 184.9999999999991,150.00000000000165 L 182.0000000000009,150.0000000000016 L 182.0000000000009,140.00000000000102 L 185.0,140.00000000000102 L 185.0,130.00000000000182 L 182.0000000000009,130.00000000000182 L 182.0000000000009,120.0000000000012 L 184.99999999999818,120.0000000000012 L 184.99999999999818,110.00000000000063 L 182.0000000000009,110.00000000000205 L 182.0000000000009,100.00000000000136 L 185.0,100.00000000000142 L 185.0,90.0000000000008 L 182.0000000000009,90.0000000000008 L 182.0000000000009,80.00000000000165 L 185.0,80.00000000000165 L 185.0,70.00000000000102 L 182.0000000000009,70.00000000000108 L 182.0000000000009,60.00000000000193 L 185.0,60.000000000001876 L 185.0,50.000000000001364 L 182.0,50.00000000000131 L 182.0000000000009,40.00000000000216 L 184.9999999999991,40.00000000000216 L 184.9999999999991,30.000000000001762 L 182.0000000000009,30.000000000001535 L 181.9999999999991,20.000000000000853 L 185.0,20.00000000000074 L 184.9999999999991,10.000000000000625 L 175.0,10.000000000001762 L 175.0,13.000000000001023 L 165.0,13.000000000001023 L 165.0,10.000000000001762 L 154.9999999999991,10.000000000002274 L 154.9999999999991,13.000000000001023 L 145.0,13.000000000001023 L 145.0,10.000000000001762 L 135.0,10.000000000001705 L 135.0,13.000000000001023 L 125.0,13.000000000001023 L 125.0,10.000000000001705 L 115.0,10.000000000001592 L 115.0,13.000000000001023 L 105.0,13.000000000001023 L 105.0,10.000000000000227 L 95.0,10.0 L 95.0,13.000000000001023 L 84.99999999999909,13.000000000001023 L 84.99999999999909,10.000000000000341 L 75.0,10.000000000000227 L 75.0,13.000000000001023 L 65.0,13.000000000001023 L 65.0,10.000000000000227 L 55.0,10.000000000000227 L 55.0,13.000000000001023 L 45.0,13.000000000001023 L 45.0,10.000000000000227 L 25.0,10.000000000000227 L 25.0,13.000000000001023 "
  />
  <path id="face1-cut"
 style="fill:none;stroke:#0000FF;stroke-width:1;stroke-miterlimit:4;stroke-dasharray:none;stroke-linejoin:round;stroke-linecap:round"
        d="M 182.0000000000009,820.0000000000032 L 182.0000000000009,817.0000000000039 L 182.0000000000009,805.0000000000052 L 177.0000000000009,805.0000000000052 L 177.0000000000009,795.0000000000045 L 187.0000000000009,795.0000000000045 L 187.0000000000009,785.000000000004 L 177.0000000000009,785.000000000004 L 177.0000000000009,775.0000000000048 L 187.0000000000009,775.0000000000048 L 187.0000000000009,765.0000000000042 L 177.0000000000009,765.0000000000042 L 177.0000000000009,755.000000000005 L 187.0000000000009,755.000000000005 L 187.0000000000009,745.0000000000044 L 177.0000000000009,745.0000000000044 L 177.0000000000009,735.0000000000039 L 187.0000000000009,735.0000000000039 L 187.0000000000009,725.0000000000047 L 177.0000000000009,725.0000000000047 L 177.0000000000009,715.0000000000041 L 187.0000000000009,715.0000000000041 L 187.0000000000009,705.0000000000034 L 177.0000000000009,705.0000000000034 L 177.0000000000009,695.0000000000043 L 187.0000000000009,695.0000000000043 L 187.0000000000009,685.0000000000036 L 177.0000000000009,685.0000000000036 L 177.0000000000009,675.0000000000045 L 187.0000000000009,675.0000000000045 L 187.0000000000009,665.0000000000039 L 177.0000000000009,665.0000000000039 L 177.0000000000009,655.0000000000032 L 187.0000000000009,655.0000000000032 L 187.0000000000009,645.0000000000041 L 177.0000000000009,645.0000000000041 L 177.0000000000009,635.0000000000034 L 187.0000000000009,635.0000000000034 L 187.0000000000009,625.0000000000028 L 177.0000000000009,625.0000000000028 L 177.0000000000009,615.0000000000036 L 187.0000000000009,615.0000000000036 L 187.0000000000009,605.0000000000031 L 177.0000000000009,605.0000000000031 L 177.0000000000009,595.0000000000039 L 187.0000000000009,595.0000000000039 L 187.0000000000009,585.0000000000033 L 177.0000000000009,585.0000000000033 L 177.0000000000009,575.0000000000027 L 187.0000000000009,575.0000000000027 L 187.0000000000009,565.0000000000034 L 177.0000000000009,565.0000000000034 L 177.0000000000009,555.0000000000028 L 187.0000000000009,555.0000000000028 L 187.0000000000009,545.0000000000024 L 177.0000000000009,545.0000000000023 L 177.0000000000009,535.0000000000031 L 187.0000000000009,535.0000000000031 L 187.0000000000009,525.0000000000024 L 177.0000000000009,525.0000000000025 L 177.0000000000009,515.0000000000033 L 187.0000000000009,515.0000000000033 L 187.0000000000009,505.00000000000273 L 177.0000000000009,505.00000000000273 L 177.0000000000009,495.00000000000205 L 187.0000000000009,495.00000000000205 L 187.0000000000009,485.00000000000296 L 177.0000000000009,485.00000000000296 L 177.0000000000009,475.0000000000023 L 187.0000000000009,475.0000000000023 L 187.0000000000009,465.0000000000017 L 177.0000000000009,465.0000000000017 L 177.0000000000009,455.0000000000024 L 187.0000000000009,455.0000000000024 L 187.0000000000009,445.0000000000018 L 177.0000000000009,445.00000000000193 L 177.0000000000009,435.0000000000026 L 182.00000000000182,435.00000000000273 L 182.00000000000182,423.0000000000026 L 182.00000000000182,420.0000000000018 L 172.0000000000009,420.0000000000017 L 172.0000000000009,423.0000000000026 L 162.00000000000182,423.0000000000026 L 162.00000000000182,420.0000000000018 L 152.00000000000182,420.0000000000018 L 152.00000000000182,423.0000000000026 L 142.0000000000009,423.0000000000026 L 142.0000000000009,420.0000000000018 L 132.00000000000182,420.0000000000018 L 132.00000000000182,423.0000000000026 L 122.00000000000182,423.0000000000026 L 122.00000000000182,420.0000000000018 L 112.00000000000182,420.0000000000033 L 112.00000000000182,423.0000000000026 L 102.00000000000182,423.0000000000026 L 102.00000000000182,420.0000000000017 L 92.00000000000182,420.0000000000033 L 92.00000000000182,423.0000000000026 L 82.00000000000182,423.0000000000026 L 82.00000000000182,420.0000000000032 L 72.00000000000182,420.0000000000033 L 72.00000000000182,423.0000000000025 L 62.00000000000182,423.0000000000026 L 62.00000000000182,420.0000000000033 L 52.00000000000091,420.0000000000033 L 52.00000000000273,423.0000000000025 L 42.00000000000091,423.0000000000026 L 42.00000000000091,420.0000000000032 L 32.00000000000091,420.0000000000033 L 32.00000000000091,423.0000000000025 L 22.00000000000091,423.0000000000026 L 22.00000000000091,420.0000000000032 L 10.0,420.0000000000033 L 10.0,430.0000000000024 L 13.0,430.0000000000025 L 13.0,440.00000000000307 L 10.0,440.00000000000296 L 10.0,450.00000000000375 L 13.0,450.00000000000364 L 13.0,460.00000000000284 L 10.0,460.00000000000284 L 10.0,470.0000000000034 L 13.00000000000091,470.0000000000033 L 13.0,480.00000000000273 L 10.0,480.00000000000273 L 10.0,490.0000000000032 L 13.0,490.0000000000032 L 13.0,500.0000000000025 L 10.0,500.0000000000023 L 10.0,510.00000000000307 L 13.00000000000091,510.00000000000296 L 13.00000000000091,520.0000000000036 L 10.0,520.0000000000036 L 10.0,530.0000000000027 L 13.00000000000091,530.0000000000028 L 13.00000000000091,540.0000000000035 L 10.0,540.0000000000033 L 10.0,550.0000000000026 L 13.00000000000091,550.0000000000025 L 13.00000000000091,560.0000000000031 L 10.0,560.0000000000032 L 10.0,570.0000000000039 L 13.00000000000091,570.0000000000039 L 13.00000000000091,580.0000000000031 L 10.0,580.000000000003 L 10.0,590.0000000000036 L 13.00000000000091,590.0000000000036 L 13.00000000000091,600.0000000000027 L 10.0,600.0000000000028 L 10.0,610.0000000000034 L 13.00000000000091,610.0000000000034 L 13.00000000000091,630.0000000000016 L 10.0,630.0000000000017 L 10.0,640.0000000000023 L 13.00000000000091,640.0000000000023 L 13.00000000000091,650.000000000003 L 10.0,650.000000000003 L 10.0,660.000000000002 L 13.00000000000091,660.000000000002 L 13.00000000000091,670.0000000000027 L 10.0,670.0000000000027 L 10.0,680.0000000000018 L 13.00000000000091,680.0000000000018 L 13.00000000000091,690.0000000000025 L 10.0,690.0000000000025 L 10.0,700.0000000000032 L 13.00000000000091,700.0000000000032 L 13.00000000000091,710.0000000000023 L 10.0,710.0000000000023 L 10.0,720.000000000003 L 13.00000000000091,720.0000000000028 L 13.00000000000091,730.000000000002 L 10.0,730.000000000002 L 10.0,740.0000000000027 L 13.00000000000091,740.0000000000027 L 13.00000000000091,750.0000000000018 L 10.0,750.0000000000019 L 10.0,760.0000000000025 L 13.00000000000091,760.0000000000025 L 13.00000000000091,770.000000000003 L 10.0,770.0000000000032 L 10.0,780.0000000000023 L 13.00000000000091,780.0000000000023 L 13.00000000000091,790.0000000000028 L 10.0,790.0000000000027 L 10.0,800.0000000000034 L 13.00000000000091,800.0000000000035 L 13.000000000001819,810.0000000000025 L 10.0,810.0000000000027 L 10.0,820.0000000000032 L 22.00000000000091,820.0000000000032 L 22.00000000000091,817.0000000000028 L 32.00000000000091,817.0000000000023 L 32.00000000000091,820.0000000000032 L 42.00000000000091,820.0000000000032 L 42.00000000000091,817.0000000000026 L 52.00000000000091,817.0000000000027 L 52.00000000000091,820.0000000000032 L 62.00000000000182,820.0000000000032 L 62.00000000000182,817.0000000000025 L 72.00000000000182,817.0000000000031 L 72.00000000000182,820.0000000000032 L 82.00000000000091,820.0000000000032 L 82.00000000000091,817.0000000000025 L 92.00000000000091,817.0000000000023 L 92.00000000000091,820.0000000000032 L 102.00000000000091,820.0000000000032 L 102.00000000000091,817.0000000000024 L 112.00000000000091,817.0000000000023 L 112.00000000000091,820.0000000000032 L 122.00000000000091,820.0000000000032 L 122.00000000000091,817.0000000000039 L 132.00000000000182,817.0000000000025 L 132.00000000000182,820.0000000000032 L 142.0000000000009,820.0000000000032 L 142.0000000000009,817.000000000004 L 152.0000000000009,817.0000000000039 L 152.0000000000009,820.0000000000032 L 162.0000000000009,820.0000000000032 L 162.0000000000009,817.0000000000039 L 172.0000000000009,817.0000000000039 L 172.0000000000009,820.0000000000032 L 182.0000000000009,820.0000000000032 "
  />
  <path id="face0-interior"
 style="fill:none;stroke:#FF0000;stroke-width:1;stroke-miterlimit:4;stroke-dasharray:none;stroke-linejoin:round;stroke-linecap:round"
        d="M 25.0,13.000000000001023 M 15.0,13.000000000001023 M 15.0,25.000000000001194 M 10.0,25.000000000001194 M 10.0,35.00000000000034 M 20.0,35.00000000000034 M 20.0,45.000000000000966 M 10.0,45.000000000000966 M 10.0,55.000000000000114 M 20.0,55.000000000000114 M 20.0,65.00000000000074 M 10.0,65.00000000000074 M 10.0,75.00000000000136 M 20.0,75.00000000000136 M 20.0,85.00000000000051 M 10.0,85.00000000000051 M 10.0,95.00000000000114 M 20.0,95.00000000000114 M 20.0,105.00000000000176 M 10.0,105.00000000000176 M 10.0,115.00000000000091 M 20.0,115.00000000000091 M 20.0,125.00000000000153 M 10.0,125.00000000000153 M 10.0,135.00000000000068 M 20.0,135.00000000000068 M 20.0,145.0000000000013 M 10.0,145.0000000000013 M 10.0,155.00000000000193 M 20.0,155.00000000000193 M 20.0,165.00000000000108 M 10.0,165.00000000000108 M 10.0,175.0000000000017 M 20.0,175.0000000000017 M 20.0,185.00000000000233 M 10.0,185.00000000000233 M 10.0,195.00000000000148 M 20.0,195.00000000000148 M 20.0,205.0000000000021 M 10.0,205.0000000000021 M 10.0,215.00000000000128 M 20.0,215.00000000000128 M 20.0,225.00000000000188 M 10.0,225.00000000000188 M 10.0,235.00000000000244 M 20.0,235.00000000000244 M 20.0,245.00000000000168 M 10.0,245.00000000000168 M 10.0,255.00000000000225 M 20.0,255.00000000000225 M 20.0,265.0000000000029 M 10.0,265.0000000000029 M 10.0,275.00000000000205 M 20.0,275.00000000000205 M 20.0,285.0000000000026 M 10.0,285.0000000000026 M 10.0,295.0000000000018 M 20.0,295.0000000000018 M 20.0,305.00000000000244 M 10.0,305.00000000000244 M 10.0,315.00000000000307 M 20.0,315.0000000000031 M 20.0,325.0000000000023 M 10.0,325.0000000000023 M 10.0,335.00000000000284 M 20.0,335.00000000000284 M 20.0,345.00000000000347 M 10.0,345.00000000000347 M 10.0,355.0000000000026 M 20.0,355.0000000000026 M 20.0,365.0000000000033 M 10.0,365.0000000000033 M 10.0,375.00000000000244 M 20.0,375.00000000000244 M 20.0,385.000000000003 M 10.0,385.000000000003 M 10.0,395.00000000000364 M 15.0,395.0000000000037 M 15.0,407.00000000000233 M 24.99999999999909,407.0000000000024 M 24.99999999999909,410.0000000000017 M 45.0,410.0000000000017 M 44.99999999999909,407.0000000000024 M 54.99999999999909,407.0000000000024 M 55.0,410.00000000000165 M 64.99999999999909,410.0000000000017 M 65.0,407.0000000000024 M 75.0,407.0000000000024 M 75.0,410.0000000000017 M 84.99999999999909,410.0000000000017 M 84.99999999999909,407.0000000000024 M 94.99999999999909,407.0000000000024 M 94.99999999999909,410.0000000000017 M 104.99999999999909,410.0000000000017 M 104.99999999999909,407.0000000000009 M 114.99999999999909,407.00000000000097 M 114.99999999999909,410.00000000000165 M 124.99999999999909,410.0000000000017 M 125.0,407.0000000000009 M 134.9999999999991,407.0000000000009 M 134.9999999999991,410.0000000000017 M 145.0,410.00000000000165 M 145.0,407.0000000000009 M 154.9999999999991,407.0000000000009 M 154.9999999999991,410.0000000000017 M 164.9999999999991,410.0000000000017 M 164.9999999999991,407.00000000000085 M 174.9999999999991,407.00000000000097 M 174.9999999999991,410.0000000000017 M 184.99999999999818,410.0000000000017 M 185.0,400.0000000000011 M 182.0000000000009,400.0000000000011 M 182.0,390.00000000000057 M 185.0,390.00000000000045 M 185.0000000000009,380.00000000000125 M 182.0000000000009,380.0000000000013 M 182.0000000000009,370.0000000000007 M 185.0,370.0000000000006 M 184.9999999999991,360.0000000000015 M 182.0,360.0000000000015 M 182.0,350.00000000000085 M 185.0,350.0000000000009 M 185.0,340.0000000000017 M 182.0,340.00000000000176 M 182.0,330.00000000000114 M 185.0,330.00000000000114 M 185.0,320.0000000000005 M 182.0000000000009,320.0000000000019 M 182.0,310.0000000000013 M 184.9999999999991,310.0000000000013 M 185.0,300.0000000000007 M 182.0000000000009,300.0000000000007 M 182.0,290.0000000000016 M 185.0,290.00000000000153 M 185.0,280.0000000000009 M 182.0000000000009,280.0000000000009 M 182.0,270.00000000000176 M 185.0,270.00000000000176 M 185.0,260.00000000000114 M 182.0,260.0000000000012 M 182.0000000000009,250.00000000000196 M 185.0,250.00000000000196 M 185.0,240.00000000000136 M 182.0000000000009,240.0000000000013 M 182.0,230.00000000000074 M 185.0,230.0000000000008 M 185.0,220.0000000000016 M 182.0000000000009,220.0000000000016 M 182.0000000000009,200.0000000000018 M 185.0,200.0000000000018 M 184.9999999999991,190.0000000000012 M 182.0,190.0000000000012 M 182.0000000000009,180.00000000000196 M 185.0,180.00000000000202 M 185.0,170.00000000000145 M 182.0000000000009,170.00000000000145 M 182.0000000000009,160.0000000000008 M 185.0,160.0000000000008 M 184.9999999999991,150.00000000000165 M 182.0000000000009,150.0000000000016 M 182.0000000000009,140.00000000000102 M 185.0,140.00000000000102 M 185.0,130.00000000000182 M 182.0000000000009,130.00000000000182 M 182.0000000000009,120.0000000000012 M 184.99999999999818,120.0000000000012 M 184.99999999999818,110.00000000000063 M 182.0000000000009,110.00000000000205 M 182.0000000000009,100.00000000000136 M 185.0,100.00000000000142 M 185.0,90.0000000000008 M 182.0000000000009,90.0000000000008 M 182.0000000000009,80.00000000000165 M 185.0,80.00000000000165 M 185.0,70.00000000000102 M 182.0000000000009,70.00000000000108 M 182.0000000000009,60.00000000000193 M 185.0,60.000000000001876 M 185.0,50.000000000001364 M 182.0,50.00000000000131 M 182.0000000000009,40.00000000000216 M 184.9999999999991,40.00000000000216 M 184.9999999999991,30.000000000001762 M 182.0000000000009,30.000000000001535 M 181.9999999999991,20.000000000000853 M 185.0,20.00000000000074 M 184.9999999999991,10.000000000000625 M 175.0,10.000000000001762 M 175.0,13.000000000001023 M 165.0,13.000000000001023 M 165.0,10.000000000001762 M 154.9999999999991,10.000000000002274 M 154.9999999999991,13.000000000001023 M 145.0,13.000000000001023 M 145.0,10.000000000001762 M 135.0,10.000000000001705 M 135.0,13.000000000001023 M 125.0,13.000000000001023 M 125.0,10.000000000001705 M 115.0,10.000000000001592 M 115.0,13.000000000001023 M 105.0,13.000000000001023 M 105.0,10.000000000000227 M 95.0,10.0 M 95.0,13.000000000001023 M 84.99999999999909,13.000000000001023 M 84.99999999999909,10.000000000000341 M 75.0,10.000000000000227 M 75.0,13.000000000001023 M 65.0,13.000000000001023 M 65.0,10.000000000000227 M 55.0,10.000000000000227 M 55.0,13.000000000001023 M 45.0,13.000000000001023 M 45.0,10.000000000000227 M 25.0,10.000000000000227 "
  />
  <path id="face1-interior"
 style="fill:none;stroke:#FF0000;stroke-width:1;stroke-miterlimit:4;stroke-dasharray:none;stroke-linejoin:round;stroke-linecap:round"
        d="M 182.0000000000009,820.0000000000032 M 182.0000000000009,817.0000000000039 M 182.0000000000009,805.0000000000052 M 177.0000000000009,805.0000000000052 M 177.0000000000009,795.0000000000045 M 187.0000000000009,795.0000000000045 M 187.0000000000009,785.000000000004 M 177.0000000000009,785.000000000004 M 177.0000000000009,775.0000000000048 M 187.0000000000009,775.0000000000048 M 187.0000000000009,765.0000000000042 M 177.0000000000009,765.0000000000042 M 177.0000000000009,755.000000000005 M 187.0000000000009,755.000000000005 M 187.0000000000009,745.0000000000044 M 177.0000000000009,745.0000000000044 M 177.0000000000009,735.0000000000039 M 187.0000000000009,735.0000000000039 M 187.0000000000009,725.0000000000047 M 177.0000000000009,725.0000000000047 M 177.0000000000009,715.0000000000041 M 187.0000000000009,715.0000000000041 M 187.0000000000009,705.0000000000034 M 177.0000000000009,705.0000000000034 M 177.0000000000009,695.0000000000043 M 187.0000000000009,695.0000000000043 M 187.0000000000009,685.0000000000036 M 177.0000000000009,685.0000000000036 M 177.0000000000009,675.0000000000045 M 187.0000000000009,675.0000000000045 M 187.0000000000009,665.0000000000039 M 177.0000000000009,665.0000000000039 M 177.0000000000009,655.0000000000032 M 187.0000000000009,655.0000000000032 M 187.0000000000009,645.0000000000041 M 177.0000000000009,645.0000000000041 M 177.0000000000009,635.0000000000034 M 187.0000000000009,635.0000000000034 M 187.0000000000009,625.0000000000028 M 177.0000000000009,625.0000000000028 M 177.0000000000009,615.0000000000036 M 187.0000000000009,615.0000000000036 M 187.0000000000009,605.0000000000031 M 177.0000000000009,605.0000000000031 M 177.0000000000009,595.0000000000039 M 187.0000000000009,595.0000000000039 M 187.0000000000009,585.0000000000033 M 177.0000000000009,585.0000000000033 M 177.0000000000009,575.0000000000027 M 187.0000000000009,575.0000000000027 M 187.0000000000009,565.0000000000034 M 177.0000000000009,565.0000000000034 M 177.0000000000009,555.0000000000028 M 187.0000000000009,555.0000000000028 M 187.0000000000009,545.0000000000024 M 177.0000000000009,545.0000000000023 M 177.0000000000009,535.0000000000031 M 187.0000000000009,535.0000000000031 M 187.0000000000009,525.0000000000024 M 177.0000000000009,525.0000000000025 M 177.0000000000009,515.0000000000033 M 187.0000000000009,515.0000000000033 M 187.0000000000009,505.00000000000273 M 177.0000000000009,505.00000000000273 M 177.0000000000009,495.00000000000205 M 187.0000000000009,495.00000000000205 M 187.0000000000009,485.00000000000296 M 177.0000000000009,485.00000000000296 M 177.0000000000009,475.0000000000023 M 187.0000000000009,475.0000000000023 M 187.0000000000009,465.0000000000017 M 177.0000000000009,465.0000000000017 M 177.0000000000009,455.0000000000024 M 187.0000000000009,455.0000000000024 M 187.0000000000009,445.0000000000018 M 177.0000000000009,445.00000000000193 M 177.0000000000009,435.0000000000026 M 182.00000000000182,435.00000000000273 M 182.00000000000182,423.0000000000026 M 182.00000000000182,420.0000000000018 M 172.0000000000009,420.0000000000017 M 172.0000000000009,423.0000000000026 M 162.00000000000182,423.0000000000026 M 162.00000000000182,420.0000000000018 M 152.00000000000182,420.0000000000018 M 152.00000000000182,423.0000000000026 M 142.0000000000009,423.0000000000026 M 142.0000000000009,420.0000000000018 M 132.00000000000182,420.0000000000018 M 132.00000000000182,423.0000000000026 M 122.00000000000182,423.0000000000026 M 122.00000000000182,420.0000000000018 M 112.00000000000182,420.0000000000033 M 112.00000000000182,423.0000000000026 M 102.00000000000182,423.0000000000026 M 102.00000000000182,420.0000000000017 M 92.00000000000182,420.0000000000033 M 92.00000000000182,423.0000000000026 M 82.00000000000182,423.0000000000026 M 82.00000000000182,420.0000000000032 M 72.00000000000182,420.0000000000033 M 72.00000000000182,423.0000000000025 M 62.00000000000182,423.0000000000026 M 62.00000000000182,420.0000000000033 M 52.00000000000091,420.0000000000033 M 52.00000000000273,423.0000000000025 M 42.00000000000091,423.0000000000026 M 42.00000000000091,420.0000000000032 M 32.00000000000091,420.0000000000033 M 32.00000000000091,423.0000000000025 M 22.00000000000091,423.0000000000026 M 22.00000000000091,420.0000000000032 M 10.0,420.0000000000033 M 10.0,430.0000000000024 M 13.0,430.0000000000025 M 13.0,440.00000000000307 M 10.0,440.00000000000296 M 10.0,450.00000000000375 M 13.0,450.00000000000364 M 13.0,460.00000000000284 M 10.0,460.00000000000284 M 10.0,470.0000000000034 M 13.00000000000091,470.0000000000033 M 13.0,480.00000000000273 M 10.0,480.00000000000273 M 10.0,490.0000000000032 M 13.0,490.0000000000032 M 13.0,500.0000000000025 M 10.0,500.0000000000023 M 10.0,510.00000000000307 M 13.00000000000091,510.00000000000296 M 13.00000000000091,520.0000000000036 M 10.0,520.0000000000036 M 10.0,530.0000000000027 M 13.00000000000091,530.0000000000028 M 13.00000000000091,540.0000000000035 M 10.0,540.0000000000033 M 10.0,550.0000000000026 M 13.00000000000091,550.0000000000025 M 13.00000000000091,560.0000000000031 M 10.0,560.0000000000032 M 10.0,570.0000000000039 M 13.00000000000091,570.0000000000039 M 13.00000000000091,580.0000000000031 M 10.0,580.000000000003 M 10.0,590.0000000000036 M 13.00000000000091,590.0000000000036 M 13.00000000000091,600.0000000000027 M 10.0,600.0000000000028 M 10.0,610.0000000000034 M 13.00000000000091,610.0000000000034 M 13.00000000000091,630.0000000000016 M 10.0,630.0000000000017 M 10.0,640.0000000000023 M 13.00000000000091,640.0000000000023 M 13.00000000000091,650.000000000003 M 10.0,650.000000000003 M 10.0,660.000000000002 M 13.00000000000091,660.000000000002 M 13.00000000000091,670.0000000000027 M 10.0,670.0000000000027 M 10.0,680.0000000000018 M 13.00000000000091,680.0000000000018 M 13.00000000000091,690.0000000000025 M 10.0,690.0000000000025 M 10.0,700.0000000000032 M 13.00000000000091,700.0000000000032 M 13.00000000000091,710.0000000000023 M 10.0,710.0000000000023 M 10.0,720.000000000003 M 13.00000000000091,720.0000000000028 M 13.00000000000091,730.000000000002 M 10.0,730.000000000002 M 10.0,740.0000000000027 M 13.00000000000091,740.0000000000027 M 13.00000000000091,750.0000000000018 M 10.0,750.0000000000019 M 10.0,760.0000000000025 M 13.00000000000091,760.0000000000025 M 13.00000000000091,770.000000000003 M 10.0,770.0000000000032 M 10.0,780.0000000000023 M 13.00000000000091,780.0000000000023 M 13.00000000000091,790.0000000000028 M 10.0,790.0000000000027 M 10.0,800.0000000000034 M 13.00000000000091,800.0000000000035 M 13.000000000001819,810.0000000000025 M 10.0,810.0000000000027 M 10.0,820.0000000000032 M 22.00000000000091,820.0000000000032 M 22.00000000000091,817.0000000000028 M 32.00000000000091,817.0000000000023 M 32.00000000000091,820.0000000000032 M 42.00000000000091,820.0000000000032 M 42.00000000000091,817.0000000000026 M 52.00000000000091,817.0000000000027 M 52.00000000000091,820.0000000000032 M 62.00000000000182,820.0000000000032 M 62.00000000000182,817.0000000000025 M 72.00000000000182,817.0000000000031 M 72.00000000000182,820.0000000000032 M 82.00000000000091,820.0000000000032 M 82.00000000000091,817.0000000000025 M 92.00000000000091,817.0000000000023 M 92.00000000000091,820.0000000000032 M 102.00000000000091,820.0000000000032 M 102.00000000000091,817.0000000000024 M 112.00000000000091,817.0000000000023 M 112.00000000000091,820.0000000000032 M 122.00000000000091,820.0000000000032 M 122.00000000000091,817.0000000000039 M 132.00000000000182,817.0000000000025 M 132.00000000000182,820.0000000000032 M 142.0000000000009,820.0000000000032 M 142.0000000000009,817.000000000004 M 152.0000000000009,817.0000000000039 M 152.0000000000009,820.0000000000032 M 162.0000000000009,820.0000000000032 M 162.0000000000009,817.0000000000039 M 172.0000000000009,817.0000000000039 M 172.0000000000009,820.0000000000032 "
  />
  <path id="face0-interior"
 style="fill:none;stroke:#00FF00;stroke-width:1;stroke-miterlimit:4;stroke-dasharray:none;stroke-linejoin:round;stroke-linecap:round"
        d="M 25.0,13.000000000001023 M 15.0,13.000000000001023 M 15.0,25.000000000001194 M 10.0,25.000000000001194 M 10.0,35.00000000000034 M 20.0,35.00000000000034 M 20.0,45.000000000000966 M 10.0,45.000000000000966 M 10.0,55.000000000000114 M 20.0,55.000000000000114 M 20.0,65.00000000000074 M 10.0,65.00000000000074 M 10.0,75.00000000000136 M 20.0,75.00000000000136 M 20.0,85.00000000000051 M 10.0,85.00000000000051 M 10.0,95.00000000000114 M 20.0,95.00000000000114 M 20.0,105.00000000000176 M 10.0,105.00000000000176 M 10.0,115.00000000000091 M 20.0,115.00000000000091 M 20.0,125.00000000000153 M 10.0,125.00000000000153 M 10.0,135.00000000000068 M 20.0,135.00000000000068 M 20.0,145.0000000000013 M 10.0,145.0000000000013 M 10.0,155.00000000000193 M 20.0,155.00000000000193 M 20.0,165.00000000000108 M 10.0,165.00000000000108 M 10.0,175.0000000000017 M 20.0,175.0000000000017 M 20.0,185.00000000000233 M 10.0,185.00000000000233 M 10.0,195.00000000000148 M 20.0,195.00000000000148 M 20.0,205.0000000000021 M 10.0,205.0000000000021 M 10.0,215.00000000000128 M 20.0,215.00000000000128 M 20.0,225.00000000000188 M 10.0,225.00000000000188 M 10.0,235.00000000000244 M 20.0,235.00000000000244 M 20.0,245.00000000000168 M 10.0,245.00000000000168 M 10.0,255.00000000000225 M 20.0,255.00000000000225 M 20.0,265.0000000000029 M 10.0,265.0000000000029 M 10.0,275.00000000000205 M 20.0,275.00000000000205 M 20.0,285.0000000000026 M 10.0,285.0000000000026 M 10.0,295.0000000000018 M 20.0,295.0000000000018 M 20.0,305.00000000000244 M 10.0,305.00000000000244 M 10.0,315.00000000000307 M 20.0,315.0000000000031 M 20.0,325.0000000000023 M 10.0,325.0000000000023 M 10.0,335.00000000000284 M 20.0,335.00000000000284 M 20.0,345.00000000000347 M 10.0,345.00000000000347 M 10.0,355.0000000000026 M 20.0,355.0000000000026 M 20.0,365.0000000000033 M 10.0,365.0000000000033 M 10.0,375.00000000000244 M 20.0,375.00000000000244 M 20.0,385.000000000003 M 10.0,385.000000000003 M 10.0,395.00000000000364 M 15.0,395.0000000000037 M 15.0,407.00000000000233 M 24.99999999999909,407.0000000000024 M 24.99999999999909,410.0000000000017 M 45.0,410.0000000000017 M 44.99999999999909,407.0000000000024 M 54.99999999999909,407.0000000000024 M 55.0,410.00000000000165 M 64.99999999999909,410.0000000000017 M 65.0,407.0000000000024 M 75.0,407.0000000000024 M 75.0,410.0000000000017 M 84.99999999999909,410.0000000000017 M 84.99999999999909,407.0000000000024 M 94.99999999999909,407.0000000000024 M 94.99999999999909,410.0000000000017 M 104.99999999999909,410.0000000000017 M 104.99999999999909,407.0000000000009 M 114.99999999999909,407.00000000000097 M 114.99999999999909,410.00000000000165 M 124.99999999999909,410.0000000000017 M 125.0,407.0000000000009 M 134.9999999999991,407.0000000000009 M 134.9999999999991,410.0000000000017 M 145.0,410.00000000000165 M 145.0,407.0000000000009 M 154.9999999999991,407.0000000000009 M 154.9999999999991,410.0000000000017 M 164.9999999999991,410.0000000000017 M 164.9999999999991,407.00000000000085 M 174.9999999999991,407.00000000000097 M 174.9999999999991,410.0000000000017 M 184.99999999999818,410.0000000000017 M 185.0,400.0000000000011 M 182.0000000000009,400.0000000000011 M 182.0,390.00000000000057 M 185.0,390.00000000000045 M 185.0000000000009,380.00000000000125 M 182.0000000000009,380.0000000000013 M 182.0000000000009,370.0000000000007 M 185.0,370.0000000000006 M 184.9999999999991,360.0000000000015 M 182.0,360.0000000000015 M 182.0,350.00000000000085 M 185.0,350.0000000000009 M 185.0,340.0000000000017 M 182.0,340.00000000000176 M 182.0,330.00000000000114 M 185.0,330.00000000000114 M 185.0,320.0000000000005 M 182.0000000000009,320.0000000000019 M 182.0,310.0000000000013 M 184.9999999999991,310.0000000000013 M 185.0,300.0000000000007 M 182.0000000000009,300.0000000000007 M 182.0,290.0000000000016 M 185.0,290.00000000000153 M 185.0,280.0000000000009 M 182.0000000000009,280.0000000000009 M 182.0,270.00000000000176 M 185.0,270.00000000000176 M 185.0,260.00000000000114 M 182.0,260.0000000000012 M 182.0000000000009,250.00000000000196 M 185.0,250.00000000000196 M 185.0,240.00000000000136 M 182.0000000000009,240.0000000000013 M 182.0,230.00000000000074 M 185.0,230.0000000000008 M 185.0,220.0000000000016 M 182.0000000000009,220.0000000000016 M 182.0000000000009,200.0000000000018 M 185.0,200.0000000000018 M 184.9999999999991,190.0000000000012 M 182.0,190.0000000000012 M 182.0000000000009,180.00000000000196 M 185.0,180.00000000000202 M 185.0,170.00000000000145 M 182.0000000000009,170.00000000000145 M 182.0000000000009,160.0000000000008 M 185.0,160.0000000000008 M 184.9999999999991,150.00000000000165 M 182.0000000000009,150.0000000000016 M 182.0000000000009,140.00000000000102 M 185.0,140.00000000000102 M 185.0,130.00000000000182 M 182.0000000000009,130.00000000000182 M 182.0000000000009,120.0000000000012 M 184.99999999999818,120.0000000000012 M 184.99999999999818,110.00000000000063 M 182.0000000000009,110.00000000000205 M 182.0000000000009,100.00000000000136 M 185.0,100.00000000000142 M 185.0,90.0000000000008 M 182.0000000000009,90.0000000000008 M 182.0000000000009,80.00000000000165 M 185.0,80.00000000000165 M 185.0,70.00000000000102 M 182.0000000000009,70.00000000000108 M 182.0000000000009,60.00000000000193 M 185.0,60.000000000001876 M 185.0,50.000000000001364 M 182.0,50.00000000000131 M 182.0000000000009,40.00000000000216 M 184.9999999999991,40.00000000000216 M 184.9999999999991,30.000000000001762 M 182.0000000000009,30.000000000001535 M 181.9999999999991,20.000000000000853 M 185.0,20.00000000000074 M 184.9999999999991,10.000000000000625 M 175.0,10.000000000001762 M 175.0,13.000000000001023 M 165.0,13.000000000001023 M 165.0,10.000000000001762 M 154.9999999999991,10.000000000002274 M 154.9999999999991,13.000000000001023 M 145.0,13.000000000001023 M 145.0,10.000000000001762 M 135.0,10.000000000001705 M 135.0,13.000000000001023 M 125.0,13.000000000001023 M 125.0,10.000000000001705 M 115.0,10.000000000001592 M 115.0,13.000000000001023 M 105.0,13.000000000001023 M 105.0,10.000000000000227 M 95.0,10.0 M 95.0,13.000000000001023 M 84.99999999999909,13.000000000001023 M 84.99999999999909,10.000000000000341 M 75.0,10.000000000000227 M 75.0,13.000000000001023 M 65.0,13.000000000001023 M 65.0,10.000000000000227 M 55.0,10.000000000000227 M 55.0,13.000000000001023 M 45.0,13.000000000001023 M 45.0,10.000000000000227 M 25.0,10.000000000000227 "
  />
  <path id="face1-interior"
 style="fill:none;stroke:#00FF00;stroke-width:1;stroke-miterlimit:4;stroke-dasharray:none;stroke-linejoin:round;stroke-linecap:round"
        d="M 182.0000000000009,820.0000000000032 M 182.0000000000009,817.0000000000039 M 182.0000000000009,805.0000000000052 M 177.0000000000009,805.0000000000052 M 177.0000000000009,795.0000000000045 M 187.0000000000009,795.0000000000045 M 187.0000000000009,785.000000000004 M 177.0000000000009,785.000000000004 M 177.0000000000009,775.0000000000048 M 187.0000000000009,775.0000000000048 M 187.0000000000009,765.0000000000042 M 177.0000000000009,765.0000000000042 M 177.0000000000009,755.000000000005 M 187.0000000000009,755.000000000005 M 187.0000000000009,745.0000000000044 M 177.0000000000009,745.0000000000044 M 177.0000000000009,735.0000000000039 M 187.0000000000009,735.0000000000039 M 187.0000000000009,725.0000000000047 M 177.0000000000009,725.0000000000047 M 177.0000000000009,715.0000000000041 M 187.0000000000009,715.0000000000041 M 187.0000000000009,705.0000000000034 M 177.0000000000009,705.0000000000034 M 177.0000000000009,695.0000000000043 M 187.0000000000009,695.0000000000043 M 187.0000000000009,685.0000000000036 M 177.0000000000009,685.0000000000036 M 177.0000000000009,675.0000000000045 M 187.0000000000009,675.0000000000045 M 187.0000000000009,665.0000000000039 M 177.0000000000009,665.0000000000039 M 177.0000000000009,655.0000000000032 M 187.0000000000009,655.0000000000032 M 187.0000000000009,645.0000000000041 M 177.0000000000009,645.0000000000041 M 177.0000000000009,635.0000000000034 M 187.0000000000009,635.0000000000034 M 187.0000000000009,625.0000000000028 M 177.0000000000009,625.0000000000028 M 177.0000000000009,615.0000000000036 M 187.0000000000009,615.0000000000036 M 187.0000000000009,605.0000000000031 M 177.0000000000009,605.0000000000031 M 177.0000000000009,595.0000000000039 M 187.0000000000009,595.0000000000039 M 187.0000000000009,585.0000000000033 M 177.0000000000009,585.0000000000033 M 177.0000000000009,575.0000000000027 M 187.0000000000009,575.0000000000027 M 187.0000000000009,565.0000000000034 M 177.0000000000009,565.0000000000034 M 177.0000000000009,555.0000000000028 M 187.0000000000009,555.0000000000028 M 187.0000000000009,545.0000000000024 M 177.0000000000009,545.0000000000023 M 177.0000000000009,535.0000000000031 M 187.0000000000009,535.0000000000031 M 187.0000000000009,525.0000000000024 M 177.0000000000009,525.0000000000025 M 177.0000000000009,515.0000000000033 M 187.0000000000009,515.0000000000033 M 187.0000000000009,505.00000000000273 M 177.0000000000009,505.00000000000273 M 177.0000000000009,495.00000000000205 M 187.0000000000009,495.00000000000205 M 187.0000000000009,485.00000000000296 M 177.0000000000009,485.00000000000296 M 177.0000000000009,475.0000000000023 M 187.0000000000009,475.0000000000023 M 187.0000000000009,465.0000000000017 M 177.0000000000009,465.0000000000017 M 177.0000000000009,455.0000000000024 M 187.0000000000009,455.0000000000024 M 187.0000000000009,445.0000000000018 M 177.0000000000009,445.00000000000193 M 177.0000000000009,435.0000000000026 M 182.00000000000182,435.00000000000273 M 182.00000000000182,423.0000000000026 M 182.00000000000182,420.0000000000018 M 172.0000000000009,420.0000000000017 M 172.0000000000009,423.0000000000026 M 162.00000000000182,423.0000000000026 M 162.00000000000182,420.0000000000018 M 152.00000000000182,420.0000000000018 M 152.00000000000182,423.0000000000026 M 142.0000000000009,423.0000000000026 M 142.0000000000009,420.0000000000018 M 132.00000000000182,420.0000000000018 M 132.00000000000182,423.0000000000026 M 122.00000000000182,423.0000000000026 M 122.00000000000182,420.0000000000018 M 112.00000000000182,420.0000000000033 M 112.00000000000182,423.0000000000026 M 102.00000000000182,423.0000000000026 M 102.00000000000182,420.0000000000017 M 92.00000000000182,420.0000000000033 M 92.00000000000182,423.0000000000026 M 82.00000000000182,423.0000000000026 M 82.00000000000182,420.0000000000032 M 72.00000000000182,420.0000000000033 M 72.00000000000182,423.0000000000025 M 62.00000000000182,423.0000000000026 M 62.00000000000182,420.0000000000033 M 52.00000000000091,420.0000000000033 M 52.00000000000273,423.0000000000025 M 42.00000000000091,423.0000000000026 M 42.00000000000091,420.0000000000032 M 32.00000000000091,420.0000000000033 M 32.00000000000091,423.0000000000025 M 22.00000000000091,423.0000000000026 M 22.00000000000091,420.0000000000032 M 10.0,420.0000000000033 M 10.0,430.0000000000024 M 13.0,430.0000000000025 M 13.0,440.00000000000307 M 10.0,440.00000000000296 M 10.0,450.00000000000375 M 13.0,450.00000000000364 M 13.0,460.00000000000284 M 10.0,460.00000000000284 M 10.0,470.0000000000034 M 13.00000000000091,470.0000000000033 M 13.0,480.00000000000273 M 10.0,480.00000000000273 M 10.0,490.0000000000032 M 13.0,490.0000000000032 M 13.0,500.0000000000025 M 10.0,500.0000000000023 M 10.0,510.00000000000307 M 13.00000000000091,510.00000000000296 M 13.00000000000091,520.0000000000036 M 10.0,520.0000000000036 M 10.0,530.0000000000027 M 13.00000000000091,530.0000000000028 M 13.00000000000091,540.0000000000035 M 10.0,540.0000000000033 M 10.0,550.0000000000026 M 13.00000000000091,550.0000000000025 M 13.00000000000091,560.0000000000031 M 10.0,560.0000000000032 M 10.0,570.0000000000039 M 13.00000000000091,570.0000000000039 M 13.00000000000091,580.0000000000031 M 10.0,580.000000000003 M 10.0,590.0000000000036 M 13.00000000000091,590.0000000000036 M 13.00000000000091,600.0000000000027 M 10.0,600.0000000000028 M 10.0,610.0000000000034 M 13.00000000000091,610.0000000000034 M 13.00000000000091,630.0000000000016 M 10.0,630.0000000000017 M 10.0,640.0000000000023 M 13.00000000000091,640.0000000000023 M 13.00000000000091,650.000000000003 M 10.0,650.000000000003 M 10.0,660.000000000002 M 13.00000000000091,660.000000000002 M 13.00000000000091,670.0000000000027 M 10.0,670.0000000000027 M 10.0,680.0000000000018 M 13.00000000000091,680.0000000000018 M 13.00000000000091,690.0000000000025 M 10.0,690.0000000000025 M 10.0,700.0000000000032 M 13.00000000000091,700.0000000000032 M 13.00000000000091,710.0000000000023 M 10.0,710.0000000000023 M 10.0,720.000000000003 M 13.00000000000091,720.0000000000028 M 13.00000000000091,730.000000000002 M 10.0,730.000000000002 M 10.0,740.0000000000027 M 13.00000000000091,740.0000000000027 M 13.00000000000091,750.0000000000018 M 10.0,750.0000000000019 M 10.0,760.0000000000025 M 13.00000000000091,760.0000000000025 M 13.00000000000091,770.000000000003 M 10.0,770.0000000000032 M 10.0,780.0000000000023 M 13.00000000000091,780.0000000000023 M 13.00000000000091,790.0000000000028 M 10.0,790.0000000000027 M 10.0,800.0000000000034 M 13.00000000000091,800.0000000000035 M 13.000000000001819,810.0000000000025 M 10.0,810.0000000000027 M 10.0,820.0000000000032 M 22.00000000000091,820.0000000000032 M 22.00000000000091,817.0000000000028 M 32.00000000000091,817.0000000000023 M 32.00000000000091,820.0000000000032 M 42.00000000000091,820.0000000000032 M 42.00000000000091,817.0000000000026 M 52.00000000000091,817.0000000000027 M 52.00000000000091,820.0000000000032 M 62.00000000000182,820.0000000000032 M 62.00000000000182,817.0000000000025 M 72.00000000000182,817.0000000000031 M 72.00000000000182,820.0000000000032 M 82.00000000000091,820.0000000000032 M 82.00000000000091,817.0000000000025 M 92.00000000000091,817.0000000000023 M 92.00000000000091,820.0000000000032 M 102.00000000000091,820.0000000000032 M 102.00000000000091,817.0000000000024 M 112.00000000000091,817.0000000000023 M 112.00000000000091,820.0000000000032 M 122.00000000000091,820.0000000000032 M 122.00000000000091,817.0000000000039 M 132.00000000000182,817.0000000000025 M 132.00000000000182,820.0000000000032 M 142.0000000000009,820.0000000000032 M 142.0000000000009,817.000000000004 M 152.0000000000009,817.0000000000039 M 152.0000000000009,820.0000000000032 M 162.0000000000009,820.0000000000032 M 162.0000000000009,817.0000000000039 M 172.0000000000009,817.0000000000039 M 172.0000000000009,820.0000000000032 "
  />
</svg>
