<?xml version="1.0" encoding="UTF-8" standalone="no"?>
<svg
   xmlns:dc="http://purl.org/dc/elements/1.1/"
   xmlns:cc="http://creativecommons.org/ns#"
   xmlns:rdf="http://www.w3.org/1999/02/22-rdf-syntax-ns#"
   xmlns:svg="http://www.w3.org/2000/svg"
   xmlns="http://www.w3.org/2000/svg"
   xmlns:sodipodi="http://sodipodi.sourceforge.net/DTD/sodipodi-0.dtd"
   xmlns:inkscape="http://www.inkscape.org/namespaces/inkscape"
   width="24in"
   height="12in"
   viewBox="0 0 609.59998 304.80001"
   version="1.1"
   id="svg2"
   inkscape:version="0.91 r13725"
   sodipodi:docname="Top_compartment_top.svg">
  <metadata
     id="metadata18">
    <rdf:RDF>
      <cc:Work
         rdf:about="">
        <dc:format>image/svg+xml</dc:format>
        <dc:type
           rdf:resource="http://purl.org/dc/dcmitype/StillImage" />
        <dc:title></dc:title>
      </cc:Work>
    </rdf:RDF>
  </metadata>
  <defs
     id="defs16" />
  <sodipodi:namedview
     pagecolor="#ffffff"
     bordercolor="#666666"
     borderopacity="1"
     objecttolerance="10"
     gridtolerance="10"
     guidetolerance="10"
     inkscape:pageopacity="0"
     inkscape:pageshadow="2"
     inkscape:window-width="1366"
     inkscape:window-height="705"
     id="namedview14"
     showgrid="false"
     units="in"
     inkscape:zoom="0.11515026"
     inkscape:cx="1323.1586"
     inkscape:cy="-153.0481"
     inkscape:window-x="-8"
     inkscape:window-y="-8"
     inkscape:window-maximized="1"
     inkscape:current-layer="svg2" />
  <desc
     id="desc4">Output from Flights of Ideas SVG Sketchup Plugin</desc>
  <path
     id="face0-cut"
     style="fill:none;stroke:#0000ff;stroke-width:1;stroke-linecap:round;stroke-linejoin:round;stroke-miterlimit:4;stroke-dasharray:none"
     d="m 456.42741,185.30724 -0.10052,2.45896 4.13076,0 0,5 10,0 0,-10 10,0 0,10 10,0 0,-10 10,0 0,10 10,0 0,-10 10,0 0,10 10,0 0,-10 10,0 0,5 10,0 0,-8 3,0 0,-10 -3,0 0,-10 3,0 0,-10 -3,0 0,-10 3,0 0,-10 -3,0 0,-10 3,0 0,-10 -3,0 0,-10.000004 3,0 0,-10 -3,0 0,-10 3,0 0,-10 -3,0 0,-10 3,0 0,-10 -3,0 0,-10 3,0 0,-10 -3,0 0,-10 -30,0 -0.51111,3.88229 -1.49851,3.61771 -2.38378,3.1066 -3.1066,2.38378 -3.61771,1.49851 -3.88229,0.51111 -3.88229,-0.51111 -3.61771,-1.49851 -3.1066,-2.38378 -2.38378,-3.1066 -1.49851,-3.61771 -0.51111,-3.88229 -268.00001,0 -0.51111,3.88229 -1.49851,3.61771 -2.38378,3.1066 -3.1066,2.38378 -3.61771,1.49851 -3.88229,0.51111 -3.88228,-0.51111 -3.61772,-1.49851 -3.1066,-2.38378 -2.38378,-3.1066 -1.4985,-3.61771 -0.51112,-3.88229 -30,0 0,10 -2.99999,0 0,10 2.99999,0 0,10 -2.99999,0 0,10 2.99999,0 0,10 -2.99999,0 0,10 2.99999,0 0,10 -2.99999,0 0,10 2.99999,0 0,10.000004 -2.99999,0 0,10 2.99999,0 0,10 -2.99999,0 0,10 2.99999,0 0,10 -2.99999,0 0,10 2.99999,0 0,10 -2.99999,0 0,10 2.99999,0 0,8 10,0 0,-5 10,0 0,10 10,0 0,-10 10,0 0,10 10,0 0,-10 10,0 0,10 10,0 0,-10 10.00001,0 0,10 9.99999,0 0,-5 4.13076,0 0.43377,-10.61075 2.23567,-12.88816 3.89878,-12.48608 5.49519,-11.87037 6.99757,-11.05155 8.38023,-10.04364 9.61948,-8.86388 10.69416,-7.53244 11.58585,-6.072144 12.2793,-4.50794 12.76265,-2.8666 13.02764,-1.17621 13.06971,0.53429 12.88816,2.23567 12.48608,3.89878 11.87037,5.49519 11.05155,6.997564 10.04364,8.38023 8.86388,9.61948 7.53244,10.69416 6.07214,11.58585 4.50794,12.2793 2.8666,12.76265 1.17621,13.02764"
     inkscape:connector-curvature="0" />
  <path
     id="face1-cut"
     style="fill:none;stroke:#0000ff;stroke-width:1;stroke-linecap:round;stroke-linejoin:round;stroke-miterlimit:4;stroke-dasharray:none"
     d="m 408.34747,125.74923 0,-2 -10,0 0,-5 -10,0 0,10 -10,0 0,-10 -10,0 0,10 -10,0 0,-10 -10,0 0,10 -10,0 0,-10 -10,0 0,10 -10,0 0,-5 -4.13076,0 -0.43377,10.61075 -2.23567,12.88816 -3.89878,12.48608 -5.49519,11.87037 -6.99756,11.05155 -8.38023,10.04364 -9.61948,8.86388 -10.69416,7.53245 -11.58585,6.07214 -12.2793,4.50793 -12.76265,2.8666 -13.02764,1.17621 -13.06971,-0.53429 -12.88816,-2.23567 -12.48608,-3.89878 -11.87037,-5.49519 -11.05155,-6.99757 -10.04364,-8.38022 -8.86388,-9.61948 -7.53244,-10.69416 -6.07214,-11.58585 -4.50794,-12.2793 -2.8666,-12.76265 -1.17621,-13.02764 0.10052,-2.45896 -4.13076,0 0,5 -10,0 0,-10 -10.000005,0 0,10 -10,0 0,-10 -10,0 0,10 -10,0 0,-10 -10.000001,0 0,10 -10,0 0,-10 -10,0 0,5 -10,0 0,2 -2.999998,0 0,10 2.999998,0 0,10 -2.999998,0 0,10 2.999998,0 0,10 -2.999998,0 0,10 2.999998,0 0,10 -2.999998,0 0,10 2.999998,0 0,10 -2.999998,0 0,10 2.999998,0 0,10 -2.999998,0 0,10 2.999998,0 0,10 -2.999998,0 0,10 2.999998,0 0,10 -2.999998,0 0,10 2.999998,0 0,10 -2.999998,0 0,6 32.999998,0 0.51111,-3.88229 1.49851,-3.61771 2.38378,-3.1066 3.1066,-2.38378 3.617711,-1.49851 3.88229,-0.51111 3.88229,0.51111 3.61771,1.49851 3.1066,2.38378 2.38378,3.1066 1.49851,3.61771 0.51111,3.88229 268.000005,0 0.51111,-3.88229 1.49851,-3.61771 2.38378,-3.1066 3.1066,-2.38378 3.61771,-1.49851 3.88229,-0.51111 3.88229,0.51111 3.61771,1.49851 3.1066,2.38378 2.38378,3.1066 1.49851,3.61771 0.51111,3.88229 33,0 0,-6 -3,0 0,-10 3,0 0,-10 -3,0 0,-10 3,0 0,-10 -3,0 0,-10 3,0 0,-10 -3,0 0,-10 3,0 0,-10 -3,0 0,-10 3,0 0,-10 -3,0 0,-10 3,0 0,-10 -3,0 0,-10 3,0 0,-10 -3,0 0,-10 3,0 0,-10 -3,0 m -26.5,126 -0.11926,0.90587 -0.34965,0.84413 -0.55622,0.72487 -0.72487,0.55622 -0.84413,0.34965 -0.90587,0.11926 -0.90587,-0.11926 -0.84413,-0.34965 -0.72487,-0.55622 -0.55622,-0.72487 -0.34965,-0.84413 -0.11926,-0.90587 0.11926,-0.90587 0.34965,-0.84413 0.55622,-0.72487 0.72487,-0.55622 0.84413,-0.34965 0.90587,-0.11926 0.90587,0.11926 0.84413,0.34965 0.72487,0.55622 0.55622,0.72487 0.34965,0.84413 0.11926,0.90587 m -336.329636,-1.2941 0.4995,-1.2059 0.7946,-1.03553 1.03553,-0.7946 1.2059,-0.4995 1.2941,-0.17037 1.2941,0.17037 1.2059,0.4995 1.03553,0.7946 0.7946,1.03553 0.4995,1.2059 0.17037,1.2941 -0.17037,1.29409 -0.4995,1.20591 -0.7946,1.03553 -1.03553,0.7946 -1.2059,0.4995 -1.2941,0.17037 -1.2941,-0.17037 -1.2059,-0.4995 -1.03553,-0.7946 -0.7946,-1.03553 -0.4995,-1.20591 -0.17037,-1.29409 0.17037,-1.2941"
     inkscape:connector-curvature="0" />
</svg>
